<svg xmlns="http://www.w3.org/2000/svg" width="1000" height="432" viewBox="0 0 1000 432">
  <g id="sprint7_131_image_1" transform="translate(272 1286)">
    <rect id="長方形_9040" data-name="長方形 9040" width="3" height="10" transform="translate(-95 -1023) rotate(90)" fill="#f4ad16"/>
    <g id="グループ_17045" data-name="グループ 17045">
      <g id="長方形_9015" data-name="長方形 9015" transform="translate(-272 -1286)" fill="#fff" stroke="#d0d0d0" stroke-width="1">
        <rect width="1000" height="432" stroke="none"/>
        <rect x="0.5" y="0.5" width="999" height="431" fill="none"/>
      </g>
      <g id="グループ_17044" data-name="グループ 17044" transform="translate(1)">
        <g id="グループ_17043" data-name="グループ 17043">
          <g id="グループ_17038" data-name="グループ 17038" transform="translate(39)">
            <rect id="長方形_9038" data-name="長方形 9038" width="15" height="304" transform="translate(-50.152 -1254)" fill="#e6e8ed"/>
            <g id="グループ_16167" data-name="グループ 16167" transform="translate(-85 -1223)">
              <rect id="長方形_7887" data-name="長方形 7887" width="84" height="15" transform="translate(0 7)" fill="#e6e8ed"/>
              <rect id="長方形_7893" data-name="長方形 7893" width="84" height="15" transform="translate(0 36)" fill="#e6e8ed"/>
              <g id="グループ_12947" data-name="グループ 12947" transform="translate(7.746 43.554)">
                <rect id="長方形_7891" data-name="長方形 7891" width="10" height="46" transform="translate(36.071 39.598) rotate(-135)" fill="#e6e8ed"/>
                <rect id="長方形_7892" data-name="長方形 7892" width="10" height="46" transform="translate(0 7.071) rotate(-45)" fill="#e6e8ed"/>
              </g>
              <g id="グループ_12995" data-name="グループ 12995" transform="translate(8)">
                <rect id="長方形_7888" data-name="長方形 7888" width="15" height="15" fill="#e6e8ed"/>
                <rect id="長方形_7895" data-name="長方形 7895" width="15" height="15" transform="translate(0 29)" fill="#e6e8ed"/>
                <rect id="長方形_7889" data-name="長方形 7889" width="15" height="15" transform="translate(53)" fill="#e6e8ed"/>
                <rect id="長方形_7894" data-name="長方形 7894" width="15" height="15" transform="translate(53 29)" fill="#e6e8ed"/>
              </g>
            </g>
          </g>
          <g id="グループ_17040" data-name="グループ 17040" transform="translate(39)">
            <path id="パス_3817" data-name="パス 3817" d="M527,246.5H-82l20.5-58H498.6Z" transform="translate(91 -1442.5)" fill="#e6e8ed"/>
            <rect id="長方形_9027" data-name="長方形 9027" width="15" height="231" transform="translate(24 -1196)" fill="#e6e8ed"/>
            <rect id="長方形_9016" data-name="長方形 9016" width="15" height="231" transform="translate(588 -1196)" fill="#e6e8ed"/>
            <rect id="長方形_9029" data-name="長方形 9029" width="579" height="15" transform="translate(24 -965)" fill="#e6e8ed"/>
          </g>
          <g id="グループ_16179" data-name="グループ 16179" transform="translate(3266 -3875)">
            <rect id="長方形_9020" data-name="長方形 9020" width="198" height="141" transform="translate(-3172 2724)" fill="#efefef"/>
            <text id="_フレッツ光回線終端装置" data-name=" フレッツ光回線終端装置" transform="translate(-3151.589 2809)" font-size="14" font-family="NotoSansCJKjp-Bold, Noto Sans CJK JP" font-weight="700"><tspan x="0" y="0" xml:space="preserve"> フレッツ光回線終端装置</tspan></text>
            <g id="グループ">
              <text id="_テレビ" data-name="（テレビ" transform="translate(-3164 2833)" font-size="14" font-family="YuGothicUI-Regular, Yu Gothic UI"><tspan x="0" y="0">（テレビ</tspan></text>
              <text id="用回線終端装置内蔵" transform="translate(-3120 2833)" font-size="14" font-family="YuGothicUI-Regular, Yu Gothic UI"><tspan x="0" y="0">用回線終端装置内蔵</tspan></text>
              <text id="ONU" transform="translate(-3150.644 2851)" font-size="14" font-family="SegoeUI, Segoe UI"><tspan x="0" y="0">ONU</tspan></text>
              <text id="一体型" transform="translate(-3119.644 2851)" font-size="14" font-family="YuGothicUI-Regular, Yu Gothic UI"><tspan x="0" y="0">一体型</tspan></text>
              <text id="ルーター_" data-name="ルーター）" transform="translate(-3077.644 2851)" font-size="14" font-family="YuGothicUI-Regular, Yu Gothic UI"><tspan x="0" y="0">ルーター）</tspan></text>
              <text id="_2" data-name="※2" transform="translate(-3023.644 2851)" font-size="8.16" font-family="SegoeUISymbol, Segoe UI Symbol" baseline-shift="4.6626572075132104"><tspan x="0" y="0">※</tspan><tspan y="0" font-family="SegoeUI, Segoe UI">2</tspan></text>
            </g>
            <g id="グループ_16170" data-name="グループ 16170" transform="translate(-3732.783 1339.42)">
              <g id="グループ_6534" data-name="グループ 6534" transform="translate(646.783 1394.58)">
                <rect id="長方形_4933" data-name="長方形 4933" width="21.539" height="37" transform="translate(3 8.119)" fill="#fff"/>
                <path id="パス_2170" data-name="パス 2170" d="M673.148,1465.77h-1.536v-4.106H649.288v4.106h-1.916a.588.588,0,0,0-.589.589v3.509a.589.589,0,0,0,.589.589h25.776a.588.588,0,0,0,.589-.589v-3.509a.588.588,0,0,0-.589-.589Z" transform="translate(-646.783 -1419.016)" fill="#787878"/>
                <path id="パス_2171" data-name="パス 2171" d="M673.047,1397.53a2.949,2.949,0,0,0-2.949-2.949H653.672a2.948,2.948,0,0,0-2.949,2.949v5.844h22.323Z" transform="translate(-648.219 -1394.58)" fill="#787878"/>
              </g>
              <path id="パス_2172" data-name="パス 2172" d="M673.047,1432.29h-3.21a.841.841,0,0,1,0-1.681h3.21v-1.748h-3.21a.841.841,0,0,1,0-1.681h3.21v-1.748h-3.21a.84.84,0,1,1,0-1.68h3.21V1422h-3.21a.84.84,0,1,1,0-1.68h3.21v-9.264H650.723v30.494h22.323Z" transform="translate(-1.435 -6.001)" fill="#787878"/>
            </g>
          </g>
          <g id="グループ_16180" data-name="グループ 16180" transform="translate(3266 -3960)">
            <rect id="長方形_9028" data-name="長方形 9028" width="198" height="141" transform="translate(-2853 2809)" fill="#efefef"/>
            <g id="グループ_16171" data-name="グループ 16171" transform="translate(-3896.536 1283.375)">
              <g id="グループ_6505" data-name="グループ 6505" transform="translate(1112.536 1561.625)">
                <path id="パス_2392" data-name="パス 2392" d="M1153.08,1595.96h17.16a2.587,2.587,0,0,0,2.583-2.6v-29.143a2.592,2.592,0,0,0-2.583-2.6h-55.12a2.6,2.6,0,0,0-2.589,2.6v29.143a2.591,2.591,0,0,0,2.589,2.6Zm-10.4-1.445a.408.408,0,1,1,.3-.118.414.414,0,0,1-.3.118Zm26.671-3a.557.557,0,0,1-.556.556h-52.23a.557.557,0,0,1-.556-.556V1566.06a.557.557,0,0,1,.556-.556h52.23a.557.557,0,0,1,.556.556Z" transform="translate(-1112.536 -1561.625)" fill="#787878"/>
              </g>
              <g id="グループ_6506" data-name="グループ 6506" transform="translate(1124.69 1597.66)">
                <path id="パス_2393" data-name="パス 2393" d="M1129.96,1601.08h-.1l-.092.042-3.184,1.486a1.28,1.28,0,0,0,1.082,2.32l6.38-2.977,1.865-.871h-5.947Z" transform="translate(-1125.843 -1601.076)" fill="#787878"/>
                <path id="パス_2394" data-name="パス 2394" d="M1164.8,1603.31a1.268,1.268,0,0,0-.671-.713l-3.274-1.482-.09-.04h-6.2l1.929.872,6.586,2.979a1.265,1.265,0,0,0,.526.113,1.279,1.279,0,0,0,1.2-1.73Z" transform="translate(-1128.329 -1601.076)" fill="#787878"/>
              </g>
              <rect id="長方形_4834" data-name="長方形 4834" width="46.949" height="20.173" rx="1.455" transform="translate(1119.207 1568.707)" fill="#787878"/>
            </g>
            <text id="_デジタル放送対応テレビ" data-name=" デジタル放送対応テレビ" transform="translate(-2832.449 2909)" font-size="14" font-family="NotoSansCJKjp-Bold, Noto Sans CJK JP" font-weight="700"><tspan x="0" y="0" xml:space="preserve"> デジタル放送対応テレビ</tspan></text>
          </g>
          <g id="グループ_17036" data-name="グループ 17036" transform="translate(39)">
            <rect id="長方形_9041" data-name="長方形 9041" width="110" height="144" transform="translate(-222 -1254)" fill="#efefef"/>
            <path id="pictogram_broadcaster" d="M-11584.5-2789.45v-15.3a1.461,1.461,0,0,0-1.456-1.465h-9.942a1.461,1.461,0,0,0-1.457,1.465v15.3h-8.214a1.059,1.059,0,0,1-1.054-1.063v-32.873a1.056,1.056,0,0,1,.308-.749,1.056,1.056,0,0,1,.748-.311h29.009a1.057,1.057,0,0,1,1.054,1.062v5.85h4.762l1.3-5.481a1.48,1.48,0,0,1,1.361-1.073h.116c-3.7-4.273-4.157-10.091-.911-13.361l6.788,6.836,2.2-1.719a1.658,1.658,0,0,1,.42-1.6,1.636,1.636,0,0,1,1.162-.484,1.635,1.635,0,0,1,1.162.484,1.669,1.669,0,0,1,0,2.344,1.631,1.631,0,0,1-1.44.458l-1.561,2.469,6.787,6.836c-2.41,2.427-6.217,2.793-9.755,1.3l.458,2.99h8.243a1.057,1.057,0,0,1,1.053,1.062v25.96a1.057,1.057,0,0,1-1.054,1.063Zm20.065-18.279v4.942a.867.867,0,0,0,.864.869h4.91a.867.867,0,0,0,.863-.869v-4.942a.863.863,0,0,0-.251-.615.867.867,0,0,0-.612-.256h-4.906a.87.87,0,0,0-.834.869Zm-8.751,0v4.942a.867.867,0,0,0,.864.869h4.907a.867.867,0,0,0,.865-.869v-4.944a.87.87,0,0,0-.253-.614.867.867,0,0,0-.614-.254h-4.906a.865.865,0,0,0-.621.25.863.863,0,0,0-.258.619Zm-34.7-18.261a1.06,1.06,0,0,1-1.055-1.063v-3.669a1.057,1.057,0,0,1,1.055-1.062h33.646a1.057,1.057,0,0,1,.748.312,1.053,1.053,0,0,1,.307.75v3.669a1.061,1.061,0,0,1-1.055,1.063Z" transform="translate(11413.922 1596.449)" fill="#787878" stroke="rgba(0,0,0,0)" stroke-miterlimit="10" stroke-width="1"/>
            <text id="_放送信号" data-name=" 放送信号" transform="translate(-196.589 -1169)" font-size="14" font-family="NotoSansCJKjp-Bold, Noto Sans CJK JP" font-weight="700"><tspan x="0" y="0" xml:space="preserve"> 放送信号</tspan></text>
            <g id="グループ-2" data-name="グループ">
              <text id="_放送事業者_" data-name="（放送事業者   " transform="translate(-213.704 -1145)" font-size="14" font-family="YuGothicUI-Regular, Yu Gothic UI"><tspan x="0" y="0">（放送事業者</tspan><tspan y="0" xml:space="preserve" font-family="SegoeUI, Segoe UI">   </tspan></text>
              <text id="受信拠点_" data-name="受信拠点）" transform="translate(-209 -1127)" font-size="14" font-family="YuGothicUI-Regular, Yu Gothic UI"><tspan x="0" y="0">受信拠点）</tspan></text>
            </g>
          </g>
          <g id="グループ_17037" data-name="グループ 17037" transform="translate(39)">
            <rect id="長方形_9043" data-name="長方形 9043" width="110" height="144" transform="translate(-222 -1094)" fill="#efefef"/>
            <text id="_インターネット" data-name=" インターネット" transform="translate(-217.589 -988.33)" font-size="14" font-family="NotoSansCJKjp-Bold, Noto Sans CJK JP" font-weight="700"><tspan x="0" y="0" xml:space="preserve"> インターネット</tspan></text>
            <g id="グループ_12936" data-name="グループ 12936" transform="translate(-191 -1060)">
              <g id="グループ_6674" data-name="グループ 6674">
                <g id="グループ_6510" data-name="グループ 6510">
                  <path id="パス_2143" data-name="パス 2143" d="M750.547,1220.21h.026a1.136,1.136,0,0,0,1.136-1.087,20.637,20.637,0,0,1,8.525-15.78,20.4,20.4,0,0,1,12.146-3.979,21.021,21.021,0,0,1,2.466.146l-.944.531a1.137,1.137,0,0,0,.558,2.128,1.115,1.115,0,0,0,.557-.146l3.662-2.059a1.17,1.17,0,0,0,.13-.091,1.1,1.1,0,0,0,.121-.109.873.873,0,0,0,.118-.144l.069-.11.027-.053.048-.128.02-.066.01-.022.019-.143.006-.081v-.1a.733.733,0,0,0-.02-.168l-.039-.156-.046-.1a1.29,1.29,0,0,0-.069-.132l-2.126-3.345a1.137,1.137,0,1,0-1.919,1.218l.7,1.094a23.116,23.116,0,0,0-3.345-.244,22.664,22.664,0,0,0-13.487,4.419,22.9,22.9,0,0,0-9.453,17.515,1.13,1.13,0,0,0,.3.817,1.147,1.147,0,0,0,.809.375Z" transform="translate(-748.294 -1194.495)" fill="#787878"/>
                  <path id="パス_2144" data-name="パス 2144" d="M783.866,1241.39a1.133,1.133,0,0,0-.6.176,20.442,20.442,0,0,1-10.931,3.127,20.917,20.917,0,0,1-7.658-1.446,20.308,20.308,0,0,1-11.4-11l.852.524a1.137,1.137,0,1,0,1.19-1.937l-3.584-2.2a1.326,1.326,0,0,0-.155-.076l-.054-.022c-.038-.013-.078-.023-.146-.039l-.036-.008-.093-.01c-.037,0-.075-.005-.112-.005a1.111,1.111,0,0,0-.285.037,1.06,1.06,0,0,0-.23.091,1.123,1.123,0,0,0-.174.112l-.059.052a1.124,1.124,0,0,0-.135.143l-.089.126-1.906,3.518a1.134,1.134,0,0,0,.457,1.54,1.113,1.113,0,0,0,.542.138,1.137,1.137,0,0,0,1-.595l.64-1.181a22.533,22.533,0,0,0,12.946,12.9,23.164,23.164,0,0,0,8.485,1.6,22.716,22.716,0,0,0,12.144-3.476,1.137,1.137,0,0,0-.607-2.1Z" transform="translate(-748.12 -1198.968)" fill="#787878"/>
                  <path id="パス_2145" data-name="パス 2145" d="M796.94,1234.5l-1.361.037a22.616,22.616,0,0,0,4.813-16.866,22.872,22.872,0,0,0-10.686-16.95,1.137,1.137,0,1,0-1.195,1.934,20.609,20.609,0,0,1,9.623,15.279,20.389,20.389,0,0,1-3.92,14.646l.027-1a1.135,1.135,0,0,0-1.1-1.166h-.06a1.133,1.133,0,0,0-1.112,1.107l-.112,4.2a1.345,1.345,0,0,0,.012.176l.008.056a1.461,1.461,0,0,0,.061.211,1.13,1.13,0,0,0,.252.382,1.211,1.211,0,0,0,.175.144l.024.016.166.086a1.133,1.133,0,0,0,.135.043l.088.024a1.2,1.2,0,0,0,.217.02h0l3.988-.107a1.137,1.137,0,0,0-.046-2.273Z" transform="translate(-753.365 -1195.292)" fill="#787878"/>
                  <g id="グループ_5294" data-name="グループ 5294" transform="translate(8.406 9.438)">
                    <g id="グループ_5263" data-name="グループ 5263" transform="translate(21.36 0.864)">
                      <g id="グループ_5262" data-name="グループ 5262">
                        <path id="パス_2146" data-name="パス 2146" d="M782.4,1206.36a20.875,20.875,0,0,1,1.733,4.211,14.1,14.1,0,0,0,2.591-1.9,15.926,15.926,0,0,0-4.324-2.311Z" transform="translate(-782.398 -1206.358)" fill="#787878"/>
                      </g>
                    </g>
                    <g id="グループ_5265" data-name="グループ 5265" transform="translate(9.437 7.745)">
                      <g id="グループ_5264" data-name="グループ 5264">
                        <path id="パス_2147" data-name="パス 2147" d="M769.5,1214.28a38.7,38.7,0,0,0-.834,7.367h5.675v-6.321h0a16.154,16.154,0,0,1-4.841-1.046Z" transform="translate(-768.668 -1214.282)" fill="#787878"/>
                      </g>
                    </g>
                    <g id="グループ_5267" data-name="グループ 5267" transform="translate(9.437 16.996)">
                      <g id="グループ_5266" data-name="グループ 5266">
                        <path id="パス_2148" data-name="パス 2148" d="M768.668,1224.94a38.711,38.711,0,0,0,.833,7.362,16.045,16.045,0,0,1,4.842-1.041v-6.321Z" transform="translate(-768.668 -1224.935)" fill="#787878"/>
                      </g>
                    </g>
                    <g id="グループ_5269" data-name="グループ 5269" transform="translate(23.589 4.393)">
                      <g id="グループ_5268" data-name="グループ 5268">
                        <path id="パス_2149" data-name="パス 2149" d="M788.506,1210.42a16.215,16.215,0,0,1-3.541,2.555,40.3,40.3,0,0,1,.968,8.164h7.552A15.976,15.976,0,0,0,788.506,1210.42Z" transform="translate(-784.965 -1210.422)" fill="#787878"/>
                      </g>
                    </g>
                    <g id="グループ_5271" data-name="グループ 5271" transform="translate(16.997 16.996)">
                      <g id="グループ_5270" data-name="グループ 5270">
                        <path id="パス_2150" data-name="パス 2150" d="M777.374,1224.94v6.321a16.04,16.04,0,0,1,4.842,1.041,38.731,38.731,0,0,0,.833-7.362Z" transform="translate(-777.374 -1224.935)" fill="#787878"/>
                      </g>
                    </g>
                    <g id="グループ_5273" data-name="グループ 5273" transform="translate(23.59 16.996)">
                      <g id="グループ_5272" data-name="グループ 5272">
                        <path id="パス_2151" data-name="パス 2151" d="M785.934,1224.94a40.2,40.2,0,0,1-.967,8.158,16.026,16.026,0,0,1,3.546,2.555,15.981,15.981,0,0,0,4.973-10.714Z" transform="translate(-784.966 -1224.935)" fill="#787878"/>
                      </g>
                    </g>
                    <g id="グループ_5275" data-name="グループ 5275" transform="translate(0 4.393)">
                      <g id="グループ_5274" data-name="グループ 5274">
                        <path id="パス_2152" data-name="パス 2152" d="M762.78,1210.42c-.1.1-.2.191-.3.289a15.962,15.962,0,0,0-4.682,10.429h7.552a40.316,40.316,0,0,1,.968-8.165A16.151,16.151,0,0,1,762.78,1210.42Z" transform="translate(-757.801 -1210.422)" fill="#787878"/>
                      </g>
                    </g>
                    <g id="グループ_5277" data-name="グループ 5277" transform="translate(0 16.996)">
                      <g id="グループ_5276" data-name="グループ 5276">
                        <path id="パス_2153" data-name="パス 2153" d="M765.353,1224.94H757.8a15.978,15.978,0,0,0,4.973,10.714,16.008,16.008,0,0,1,3.546-2.555,40.314,40.314,0,0,1-.966-8.159Z" transform="translate(-757.801 -1224.935)" fill="#787878"/>
                      </g>
                    </g>
                    <g id="グループ_5279" data-name="グループ 5279" transform="translate(16.997 7.747)">
                      <g id="グループ_5278" data-name="グループ 5278">
                        <path id="パス_2154" data-name="パス 2154" d="M782.215,1214.28a15.865,15.865,0,0,1-4.841,1.046v6.319h5.675a38.686,38.686,0,0,0-.834-7.365Z" transform="translate(-777.374 -1214.284)" fill="#787878"/>
                      </g>
                    </g>
                    <g id="グループ_5281" data-name="グループ 5281" transform="translate(16.997 25.205)">
                      <g id="グループ_5280" data-name="グループ 5280">
                        <path id="パス_2155" data-name="パス 2155" d="M777.374,1234.39v6.9q.81-.046,1.612-.173a15.908,15.908,0,0,0,2.766-5.733,14.177,14.177,0,0,0-4.378-.994Z" transform="translate(-777.374 -1234.388)" fill="#787878"/>
                      </g>
                    </g>
                    <g id="グループ_5283" data-name="グループ 5283" transform="translate(21.36 27.034)">
                      <g id="グループ_5282" data-name="グループ 5282">
                        <path id="パス_2156" data-name="パス 2156" d="M784.131,1236.49a20.911,20.911,0,0,1-1.733,4.21,15.912,15.912,0,0,0,4.327-2.308A14.139,14.139,0,0,0,784.131,1236.49Z" transform="translate(-782.398 -1236.494)" fill="#787878"/>
                      </g>
                    </g>
                    <g id="グループ_5285" data-name="グループ 5285" transform="translate(10.734 25.205)">
                      <g id="グループ_5284" data-name="グループ 5284">
                        <path id="パス_2157" data-name="パス 2157" d="M770.162,1235.39a15.9,15.9,0,0,0,2.766,5.733,15.943,15.943,0,0,0,1.612.173v-6.9A14.176,14.176,0,0,0,770.162,1235.39Z" transform="translate(-770.162 -1234.388)" fill="#787878"/>
                      </g>
                    </g>
                    <g id="グループ_5287" data-name="グループ 5287" transform="translate(6.427 0.864)">
                      <g id="グループ_5286" data-name="グループ 5286">
                        <path id="パス_2158" data-name="パス 2158" d="M765.2,1208.66a14.351,14.351,0,0,0,2.59,1.9,20.9,20.9,0,0,1,1.732-4.206,15.917,15.917,0,0,0-4.322,2.306Z" transform="translate(-765.202 -1206.358)" fill="#787878"/>
                      </g>
                    </g>
                    <g id="グループ_5289" data-name="グループ 5289" transform="translate(10.736)">
                      <g id="グループ_5288" data-name="グループ 5288">
                        <path id="パス_2159" data-name="パス 2159" d="M772.928,1205.54a15.89,15.89,0,0,0-2.764,5.728,14.275,14.275,0,0,0,4.376,1v-6.9A14.732,14.732,0,0,0,772.928,1205.54Z" transform="translate(-770.164 -1205.363)" fill="#787878"/>
                      </g>
                    </g>
                    <g id="グループ_5291" data-name="グループ 5291" transform="translate(16.997)">
                      <g id="グループ_5290" data-name="グループ 5290">
                        <path id="パス_2160" data-name="パス 2160" d="M778.986,1205.54c-.53-.084-1.069-.142-1.612-.174v6.9a14.118,14.118,0,0,0,4.378-1,15.9,15.9,0,0,0-2.766-5.726Z" transform="translate(-777.374 -1205.363)" fill="#787878"/>
                      </g>
                    </g>
                    <g id="グループ_5293" data-name="グループ 5293" transform="translate(6.423 27.034)">
                      <g id="グループ_5292" data-name="グループ 5292">
                        <path id="パス_2161" data-name="パス 2161" d="M767.79,1236.49a14.123,14.123,0,0,0-2.593,1.9,15.9,15.9,0,0,0,4.326,2.308A20.937,20.937,0,0,1,767.79,1236.49Z" transform="translate(-765.197 -1236.494)" fill="#787878"/>
                      </g>
                    </g>
                  </g>
                </g>
              </g>
            </g>
          </g>
          <g id="グループ_17041" data-name="グループ 17041" transform="translate(39)">
            <g id="グループ_16169" data-name="グループ 16169" transform="translate(3216 -4533)">
              <g id="グループ_9590" data-name="グループ 9590" transform="translate(-2842 3463) rotate(180)">
                <rect id="長方形_6082" data-name="長方形 6082" width="4.747" height="9" fill="#56b2e1"/>
                <rect id="長方形_6083" data-name="長方形 6083" width="1.566" height="9" transform="translate(8.434)" fill="#56b2e1"/>
                <rect id="長方形_6084" data-name="長方形 6084" width="4.747" height="6.08" transform="translate(4.571 1.46)" fill="#56b2e1"/>
              </g>
              <g id="グループ_12969" data-name="グループ 12969" transform="translate(-2842 3451) rotate(180)">
                <rect id="長方形_6082-2" data-name="長方形 6082" width="4.747" height="9" fill="#56b2e1"/>
                <rect id="長方形_6083-2" data-name="長方形 6083" width="1.566" height="9" transform="translate(8.434)" fill="#56b2e1"/>
                <rect id="長方形_6084-2" data-name="長方形 6084" width="4.747" height="6.08" transform="translate(4.571 1.46)" fill="#56b2e1"/>
              </g>
            </g>
            <g id="グループ_16164" data-name="グループ 16164" transform="translate(10527 20051)">
              <g id="グループ_9590-2" data-name="グループ 9590" transform="translate(-10274 -21136)">
                <rect id="長方形_6082-3" data-name="長方形 6082" width="4.747" height="9" fill="#56b2e1"/>
                <rect id="長方形_6083-3" data-name="長方形 6083" width="1.566" height="9" transform="translate(8.434)" fill="#56b2e1"/>
                <rect id="長方形_6084-3" data-name="長方形 6084" width="4.747" height="6.08" transform="translate(4.571 1.46)" fill="#56b2e1"/>
              </g>
            </g>
            <g id="グループ_16181" data-name="グループ 16181" transform="translate(3201 -3960)">
              <rect id="長方形_9031" data-name="長方形 9031" width="3" height="30" transform="translate(-2908 2878) rotate(90)" fill="#787878"/>
              <rect id="長方形_9032" data-name="長方形 9032" width="3" height="29" transform="translate(-2837 2884) rotate(90)" fill="#787878"/>
              <rect id="長方形_9033" data-name="長方形 9033" width="3" height="29" transform="translate(-2837 2872) rotate(90)" fill="#787878"/>
              <g id="グループ_16172" data-name="グループ 16172" transform="translate(-5 -572)">
                <g id="グループ_16142" data-name="グループ 16142" transform="translate(-2230.332 4103.61) rotate(180)">
                  <path id="パス_3163" data-name="パス 3163" d="M643,638.262h.438v.439a.189.189,0,0,0,.378,0v-.439h.437a.19.19,0,0,0,0-.379h-.437v-.439a.189.189,0,0,0-.378,0v.439H643a.189.189,0,1,0,0,.379Z" transform="translate(-0.87 -0.45)" fill="#56b2e1"/>
                  <path id="パス_3164" data-name="パス 3164" d="M644.254,677.774h-.437v-.439a.189.189,0,1,0-.378,0v.439H643a.19.19,0,0,0,0,.379h.438v.439a.189.189,0,1,0,.378,0v-.439h.437a.19.19,0,0,0,0-.379Z" transform="translate(-0.87 -11.367)" fill="#56b2e1"/>
                  <path id="パス_3165" data-name="パス 3165" d="M667.631,638.262h.438v.439a.188.188,0,0,0,.377,0v-.439h.438a.19.19,0,0,0,0-.379h-.438v-.439a.189.189,0,0,0-.377,0v.439h-.438a.189.189,0,1,0,0,.379Z" transform="translate(-7.679 -0.45)" fill="#56b2e1"/>
                  <path id="パス_3166" data-name="パス 3166" d="M663.668,638.162a.538.538,0,0,0-.537-.539h-.548a1.963,1.963,0,0,0-1.085-1.8,2.021,2.021,0,0,0-2.926,1.8H644.764a1.963,1.963,0,0,0-1.085-1.8,2.021,2.021,0,0,0-2.926,1.8H640.2a.538.538,0,0,0-.537.539v27.9a.538.538,0,0,0,.537.539h.548c0-.042.01-.081.013-.123,0,.041-.013.081-.013.123a2.005,2.005,0,0,0,4.01,0c0-.042-.009-.081-.012-.123,0,.041.012.081.012.123h13.809a1.965,1.965,0,0,0,1.085,1.8,2.021,2.021,0,0,0,2.926-1.8h.548a.538.538,0,0,0,.537-.539Zm-3.091-1.825a1.287,1.287,0,1,1-1.281,1.286,1.287,1.287,0,0,1,1.281-1.286Zm-17.818,0a1.287,1.287,0,1,1-1.282,1.286,1.287,1.287,0,0,1,1.282-1.286Zm-1.847,29.478a2,2,0,0,1,.378-.577,2,2,0,0,0-.378.576Zm1.847,2.069a1.287,1.287,0,1,1,1.281-1.286,1.287,1.287,0,0,1-1.281,1.286Zm-1.417-2.709a2,2,0,0,1,1.014-.549,2,2,0,0,0-1.015.548Zm1.821-.549a2,2,0,0,1,1.014.549,2,2,0,0,0-1.015-.55Zm1.065.612a1.993,1.993,0,0,1,.378.577,1.994,1.994,0,0,0-.379-.578Zm2.6-1.493-4.261-4.892V645.522l4.261-4.892h9.689l4.261,4.892v13.331l-4.261,4.892Zm13.754,4.139a.888.888,0,1,0-.005,0Z" fill="#56b2e1"/>
                  <path id="パス_3167" data-name="パス 3167" d="M668.883,677.774h-.438v-.44a.189.189,0,0,0-.377,0v.44h-.438a.19.19,0,0,0,0,.379h.438v.439a.188.188,0,0,0,.377,0v-.439h.438a.19.19,0,0,0,0-.379Z" transform="translate(-7.679 -11.367)" fill="#56b2e1"/>
                </g>
                <g id="グループ_16151" data-name="グループ 16151">
                  <g id="グループ_9590-3" data-name="グループ 9590" transform="translate(-2871 3441)">
                    <rect id="長方形_6082-4" data-name="長方形 6082" width="4.747" height="9" fill="#56b2e1"/>
                    <rect id="長方形_6083-4" data-name="長方形 6083" width="1.566" height="9" transform="translate(8.434)" fill="#56b2e1"/>
                    <rect id="長方形_6084-4" data-name="長方形 6084" width="4.747" height="6.08" transform="translate(4.571 1.46)" fill="#56b2e1"/>
                  </g>
                  <g id="グループ_12969-2" data-name="グループ 12969" transform="translate(-2871 3453)">
                    <rect id="長方形_6082-5" data-name="長方形 6082" width="4.747" height="9" fill="#56b2e1"/>
                    <rect id="長方形_6083-5" data-name="長方形 6083" width="1.566" height="9" transform="translate(8.434)" fill="#56b2e1"/>
                    <rect id="長方形_6084-5" data-name="長方形 6084" width="4.747" height="6.08" transform="translate(4.571 1.46)" fill="#56b2e1"/>
                  </g>
                </g>
                <g id="グループ_12974" data-name="グループ 12974" transform="translate(7371 24583)">
                  <g id="グループ_9590-4" data-name="グループ 9590" transform="translate(-10264 -21127) rotate(180)">
                    <rect id="長方形_6082-6" data-name="長方形 6082" width="4.747" height="9" fill="#56b2e1"/>
                    <rect id="長方形_6083-6" data-name="長方形 6083" width="1.566" height="9" transform="translate(8.434)" fill="#56b2e1"/>
                    <rect id="長方形_6084-6" data-name="長方形 6084" width="4.747" height="6.08" transform="translate(4.571 1.46)" fill="#56b2e1"/>
                  </g>
                </g>
              </g>
            </g>
          </g>
          <g id="グループ_17042" data-name="グループ 17042" transform="translate(39)">
            <rect id="長方形_9035" data-name="長方形 9035" width="3" height="102" transform="translate(13 -1079) rotate(180)" fill="#f4ad16"/>
            <g id="グループ_17039" data-name="グループ 17039">
              <rect id="長方形_9034" data-name="長方形 9034" width="3" height="38" transform="translate(48 -1082) rotate(90)" fill="#f4ad16"/>
              <rect id="長方形_9039" data-name="長方形 9039" width="3" height="160" transform="translate(-95 -1021) rotate(180)" fill="#f4ad16"/>
              <rect id="長方形_9036" data-name="長方形 9036" width="3" height="124" transform="translate(12 -1181) rotate(90)" fill="#f4ad16"/>
              <rect id="長方形_9420" data-name="長方形 9420" width="3" height="17" transform="translate(-95 -1023.5) rotate(90)" fill="#f4ad16"/>
              <g id="グループ_16173" data-name="グループ 16173" transform="translate(48 -1075) rotate(-90)">
                <g id="グループ_8213" data-name="グループ 8213" transform="translate(0.346 8.646)">
                  <rect id="長方形_5229" data-name="長方形 5229" width="3.894" height="5.003" fill="#f4ad16"/>
                  <rect id="長方形_5230" data-name="長方形 5230" width="3.894" height="5.003" transform="translate(10.248 5.003) rotate(180)" fill="#f4ad16"/>
                </g>
                <g id="グループ_8214" data-name="グループ 8214" transform="translate(0.698 13.997)">
                  <rect id="長方形_5231" data-name="長方形 5231" width="0.946" height="5.003" transform="translate(2.596)" fill="#f4ad16"/>
                  <rect id="長方形_5232" data-name="長方形 5232" width="0.946" height="5.003" transform="translate(1.298)" fill="#f4ad16"/>
                  <rect id="長方形_5233" data-name="長方形 5233" width="0.946" height="5.003" fill="#f4ad16"/>
                  <rect id="長方形_5234" data-name="長方形 5234" width="0.946" height="5.003" transform="translate(6.948 5.003) rotate(180)" fill="#f4ad16"/>
                  <rect id="長方形_5235" data-name="長方形 5235" width="0.946" height="5.003" transform="translate(8.246 5.003) rotate(180)" fill="#f4ad16"/>
                  <rect id="長方形_5236" data-name="長方形 5236" width="0.946" height="5.003" transform="translate(9.544 5.003) rotate(180)" fill="#f4ad16"/>
                </g>
                <rect id="長方形_5237" data-name="長方形 5237" width="0.946" height="7.819" transform="translate(4.997 8.071)" fill="#f4ad16"/>
                <rect id="長方形_5238" data-name="長方形 5238" width="11" height="6.135" transform="translate(0 2.164)" fill="#f4ad16"/>
                <path id="パス_2717" data-name="パス 2717" d="M5.185,0H.757L0,1.817H5.942Z" transform="translate(2.529)" fill="#f4ad16"/>
              </g>
            </g>
          </g>
        </g>
      </g>
      <g id="グループ_17085" data-name="グループ 17085" transform="translate(-113.179 -926)">
        <g id="グループ_13001" data-name="グループ 13001" transform="translate(370.823 24) rotate(180)">
          <g id="グループ_12970" data-name="グループ 12970" transform="translate(7.554 19.5) rotate(180)">
            <g id="グループ_9590-5" data-name="グループ 9590">
              <rect id="長方形_6082-7" data-name="長方形 6082" width="3.586" height="6" fill="#56b2e1"/>
              <rect id="長方形_6083-7" data-name="長方形 6083" width="1.183" height="6" transform="translate(6.371)" fill="#56b2e1"/>
              <rect id="長方形_6084-7" data-name="長方形 6084" width="3.586" height="4.053" transform="translate(3.453 0.973)" fill="#56b2e1"/>
            </g>
            <g id="グループ_12969-3" data-name="グループ 12969" transform="translate(0 9)">
              <rect id="長方形_6082-8" data-name="長方形 6082" width="3.586" height="6" fill="#56b2e1"/>
              <rect id="長方形_6083-8" data-name="長方形 6083" width="1.183" height="6" transform="translate(6.371)" fill="#56b2e1"/>
              <rect id="長方形_6084-8" data-name="長方形 6084" width="3.586" height="4.053" transform="translate(3.453 0.973)" fill="#56b2e1"/>
            </g>
          </g>
          <g id="グループ_12968" data-name="グループ 12968" transform="translate(24.928 24) rotate(180)">
            <path id="パス_3163-2" data-name="パス 3163" d="M.138.733H.46v.32a.139.139,0,1,0,.278,0V.733h.321a.138.138,0,1,0,0-.275H.738V.138a.139.139,0,0,0-.278,0v.32H.138a.138.138,0,1,0,0,.275Z" transform="translate(1.674 0.869)" fill="#56b2e1"/>
            <path id="パス_3164-2" data-name="パス 3164" d="M1.059.457H.738V.138a.139.139,0,0,0-.278,0V.457H.138a.138.138,0,1,0,0,.276H.46v.32a.139.139,0,1,0,.278,0V.733h.321a.138.138,0,1,0,0-.276Z" transform="translate(1.674 21.941)" fill="#56b2e1"/>
            <path id="パス_3165-2" data-name="パス 3165" d="M.139.733H.461v.32a.139.139,0,0,0,.277,0V.733H1.06a.138.138,0,1,0,0-.275H.738V.138a.139.139,0,0,0-.277,0v.32H.139a.138.138,0,1,0,0,.275Z" transform="translate(14.777 0.869)" fill="#56b2e1"/>
            <path id="パス_3166-2" data-name="パス 3166" d="M17.649,1.856a.393.393,0,0,0-.4-.392h-.4a1.426,1.426,0,0,0-.8-1.312A1.485,1.485,0,0,0,13.9,1.464H3.747A1.426,1.426,0,0,0,2.95.151,1.485,1.485,0,0,0,.8,1.464H.4a.393.393,0,0,0-.4.392V22.144a.393.393,0,0,0,.4.392H.8c0-.031.007-.059.009-.089,0,.03-.009.059-.009.089a1.475,1.475,0,0,0,2.949,0c0-.031-.007-.059-.009-.089,0,.03.009.059.009.089H13.9a1.427,1.427,0,0,0,.8,1.313,1.486,1.486,0,0,0,2.152-1.313h.4a.393.393,0,0,0,.4-.392ZM15.376.528a.936.936,0,1,1-.942.936.936.936,0,0,1,.942-.936Zm-13.1,0a.936.936,0,1,1-.943.936A.936.936,0,0,1,2.276.528ZM.915,21.967a1.456,1.456,0,0,1,.278-.419,1.456,1.456,0,0,0-.278.419Zm1.358,1.5a.933.933,0,1,1,.666-.271.936.936,0,0,1-.666.271ZM1.231,21.5a1.479,1.479,0,0,1,.745-.4,1.479,1.479,0,0,0-.745.4Zm1.339-.4a1.48,1.48,0,0,1,.745.4,1.48,1.48,0,0,0-.745-.4Zm.783.445a1.448,1.448,0,0,1,.278.419,1.448,1.448,0,0,0-.278-.417Zm1.909-1.086L2.128,16.9V7.2L5.262,3.651h7.125l3.134,3.558v9.7l-3.134,3.558Zm10.114,3.01a.937.937,0,1,1,.666-.272.936.936,0,0,1-.666.272Z" fill="#56b2e1"/>
            <path id="パス_3167-2" data-name="パス 3167" d="M1.06.457H.738V.137a.139.139,0,0,0-.277,0v.32H.139a.138.138,0,1,0,0,.276H.461v.319a.139.139,0,0,0,.277,0V.733H1.06a.138.138,0,1,0,0-.276Z" transform="translate(14.777 21.941)" fill="#56b2e1"/>
          </g>
          <g id="グループ_12974-2" data-name="グループ 12974" transform="translate(31.726 15) rotate(180)">
            <g id="グループ_9590-6" data-name="グループ 9590" transform="translate(7.554 6) rotate(180)">
              <rect id="長方形_6082-9" data-name="長方形 6082" width="3.586" height="6" fill="#56b2e1"/>
              <rect id="長方形_6083-9" data-name="長方形 6083" width="1.183" height="6" transform="translate(6.371)" fill="#56b2e1"/>
              <rect id="長方形_6084-9" data-name="長方形 6084" width="3.586" height="4.053" transform="translate(3.453 0.973)" fill="#56b2e1"/>
            </g>
          </g>
        </g>
        <text id="_分配器もしくは光対応_新4K8K衛星放送アダプター" data-name=" 分配器もしくは光対応 新4K8K衛星放送アダプター" transform="translate(381.23 18)" font-size="14" font-family="SegoeUI, Segoe UI"><tspan x="0" y="0"> </tspan><tspan y="0" font-family="YuGothicUI-Regular, Yu Gothic UI">分配器もしくは光対応</tspan><tspan y="0" xml:space="preserve"> 4K8K</tspan><tspan y="0" font-family="YuGothicUI-Regular, Yu Gothic UI">衛星放送アダプター</tspan></text>
        <text id="_同軸ケーブル" data-name=" 同軸ケーブル" transform="translate(220.032 18)" font-size="14" font-family="SegoeUI, Segoe UI"><tspan x="0" y="0"> </tspan><tspan y="0" font-family="YuGothicUI-Regular, Yu Gothic UI">同軸ケーブル</tspan></text>
        <rect id="長方形_7946" data-name="長方形 7946" width="3" height="50" transform="translate(211.179 11) rotate(90)" fill="#787878"/>
        <text id="光ケーブル" transform="translate(58.6 18)" font-size="14" font-family="YuGothicUI-Regular, Yu Gothic UI"><tspan x="0" y="0">光ケーブル</tspan></text>
        <rect id="長方形_9045" data-name="長方形 9045" width="3" height="32" transform="translate(32.179 10.5) rotate(90)" fill="#f4ad16"/>
        <g id="グループ_16188" data-name="グループ 16188" transform="translate(50.359 7) rotate(90)">
          <g id="グループ_8213-2" data-name="グループ 8213" transform="translate(0.318 5.389)">
            <rect id="長方形_5229-2" data-name="長方形 5229" width="3.573" height="5.039" fill="#f4ad16"/>
            <rect id="長方形_5230-2" data-name="長方形 5230" width="3.573" height="5.039" transform="translate(9.405 5.039) rotate(180)" fill="#f4ad16"/>
          </g>
          <g id="グループ_8214-2" data-name="グループ 8214" transform="translate(0.641)">
            <rect id="長方形_5231-2" data-name="長方形 5231" width="0.868" height="5.039" transform="translate(2.382)" fill="#f4ad16"/>
            <rect id="長方形_5232-2" data-name="長方形 5232" width="0.868" height="5.039" transform="translate(1.191)" fill="#f4ad16"/>
            <rect id="長方形_5233-2" data-name="長方形 5233" width="0.868" height="5.039" fill="#f4ad16"/>
            <rect id="長方形_5234-2" data-name="長方形 5234" width="0.868" height="5.039" transform="translate(6.376 5.039) rotate(180)" fill="#f4ad16"/>
            <rect id="長方形_5235-2" data-name="長方形 5235" width="0.868" height="5.039" transform="translate(7.568 5.039) rotate(180)" fill="#f4ad16"/>
            <rect id="長方形_5236-2" data-name="長方形 5236" width="0.868" height="5.039" transform="translate(8.759 5.039) rotate(180)" fill="#f4ad16"/>
          </g>
          <rect id="長方形_5237-2" data-name="長方形 5237" width="0.868" height="7.875" transform="translate(4.586 3.133)" fill="#f4ad16"/>
          <rect id="長方形_5238-2" data-name="長方形 5238" width="10.095" height="6.179" transform="translate(0 10.778)" fill="#f4ad16"/>
          <path id="パス_2717-2" data-name="パス 2717" d="M4.758,1.83H.695L0,0H5.453Z" transform="translate(2.321 17.307)" fill="#f4ad16"/>
        </g>
      </g>
    </g>
  </g>
</svg>
