<svg xmlns="http://www.w3.org/2000/svg" width="1000" height="624" viewBox="0 0 1000 624">
  <g id="sprint7_131_image_2" transform="translate(262 762)">
    <g id="長方形_4429" data-name="長方形 4429" transform="translate(-262 -762)" fill="#fff" stroke="#d0d0d0" stroke-width="1">
      <rect width="1000" height="624" stroke="none"/>
      <rect x="0.5" y="0.5" width="999" height="623" fill="none"/>
    </g>
    <rect id="長方形_7929" data-name="長方形 7929" width="3" height="31" transform="translate(290 -605) rotate(90)" fill="#787878"/>
    <g id="グループ_17058" data-name="グループ 17058" transform="translate(40)">
      <g id="グループ_17049" data-name="グループ 17049">
        <rect id="長方形_7886" data-name="長方形 7886" width="15" height="496" transform="translate(-50.152 -722)" fill="#e6e8ed"/>
        <g id="グループ_12948" data-name="グループ 12948" transform="translate(-85 -691)">
          <rect id="長方形_7887" data-name="長方形 7887" width="84" height="15" transform="translate(0 7)" fill="#e6e8ed"/>
          <rect id="長方形_7893" data-name="長方形 7893" width="84" height="15" transform="translate(0 36)" fill="#e6e8ed"/>
          <g id="グループ_12947" data-name="グループ 12947" transform="translate(7.746 43.554)">
            <rect id="長方形_7891" data-name="長方形 7891" width="10" height="46" transform="translate(36.071 39.598) rotate(-135)" fill="#e6e8ed"/>
            <rect id="長方形_7892" data-name="長方形 7892" width="10" height="46" transform="translate(0 7.071) rotate(-45)" fill="#e6e8ed"/>
          </g>
          <g id="グループ_12995" data-name="グループ 12995" transform="translate(8)">
            <rect id="長方形_7888" data-name="長方形 7888" width="15" height="15" fill="#e6e8ed"/>
            <rect id="長方形_7895" data-name="長方形 7895" width="15" height="15" transform="translate(0 29)" fill="#e6e8ed"/>
            <rect id="長方形_7889" data-name="長方形 7889" width="15" height="15" transform="translate(53)" fill="#e6e8ed"/>
            <rect id="長方形_7894" data-name="長方形 7894" width="15" height="15" transform="translate(53 29)" fill="#e6e8ed"/>
          </g>
        </g>
      </g>
      <g id="グループ_17050" data-name="グループ 17050">
        <path id="パス_3524" data-name="パス 3524" d="M527,246.5H-82l20.5-58H498.6Z" transform="translate(91 -910.5)" fill="#e6e8ed"/>
        <rect id="長方形_7875" data-name="長方形 7875" width="15" height="438" transform="translate(24 -664)" fill="#e6e8ed"/>
        <rect id="長方形_7878" data-name="長方形 7878" width="15" height="438" transform="translate(588 -664)" fill="#e6e8ed"/>
        <rect id="長方形_7877" data-name="長方形 7877" width="579" height="15" transform="translate(24 -241)" fill="#e6e8ed"/>
      </g>
      <g id="グループ_17052" data-name="グループ 17052">
        <rect id="長方形_7919" data-name="長方形 7919" width="198" height="141" transform="translate(55 -483)" fill="#efefef"/>
        <text id="_フレッツ光回線終端装置" data-name=" フレッツ光回線終端装置" transform="translate(75.411 -398)" font-size="14" font-family="NotoSansCJKjp-Bold, Noto Sans CJK JP" font-weight="700"><tspan x="0" y="0" xml:space="preserve"> フレッツ光回線終端装置</tspan></text>
        <g id="グループ">
          <text id="_テレビ" data-name="（テレビ" transform="translate(63 -374)" font-size="14" font-family="YuGothicUI-Regular, Yu Gothic UI"><tspan x="0" y="0">（テレビ</tspan></text>
          <text id="用回線終端装置内蔵" transform="translate(107 -374)" font-size="14" font-family="YuGothicUI-Regular, Yu Gothic UI"><tspan x="0" y="0">用回線終端装置内蔵</tspan></text>
          <text id="ONU" transform="translate(76.356 -356)" font-size="14" font-family="SegoeUI, Segoe UI"><tspan x="0" y="0">ONU</tspan></text>
          <text id="一体型" transform="translate(107.356 -356)" font-size="14" font-family="YuGothicUI-Regular, Yu Gothic UI"><tspan x="0" y="0">一体型</tspan></text>
          <text id="ルーター_" data-name="ルーター）" transform="translate(149.356 -356)" font-size="14" font-family="YuGothicUI-Regular, Yu Gothic UI"><tspan x="0" y="0">ルーター）</tspan></text>
          <text id="_2" data-name="※2" transform="translate(203.356 -356)" font-size="8.16" font-family="SegoeUISymbol, Segoe UI Symbol" baseline-shift="4.6626572075132104"><tspan x="0" y="0">※</tspan><tspan y="0" font-family="SegoeUI, Segoe UI">2</tspan></text>
        </g>
        <g id="グループ_12965" data-name="グループ 12965" transform="translate(-505.783 -1867.58)">
          <g id="グループ_6534" data-name="グループ 6534" transform="translate(646.783 1394.58)">
            <rect id="長方形_4933" data-name="長方形 4933" width="21.539" height="37" transform="translate(3 8.119)" fill="#fff"/>
            <path id="パス_2170" data-name="パス 2170" d="M673.148,1465.77h-1.536v-4.106H649.288v4.106h-1.916a.588.588,0,0,0-.589.589v3.509a.589.589,0,0,0,.589.589h25.776a.588.588,0,0,0,.589-.589v-3.509a.588.588,0,0,0-.589-.589Z" transform="translate(-646.783 -1419.016)" fill="#787878"/>
            <path id="パス_2171" data-name="パス 2171" d="M673.047,1397.53a2.949,2.949,0,0,0-2.949-2.949H653.672a2.948,2.948,0,0,0-2.949,2.949v5.844h22.323Z" transform="translate(-648.219 -1394.58)" fill="#787878"/>
          </g>
          <path id="パス_2172" data-name="パス 2172" d="M673.047,1432.29h-3.21a.841.841,0,0,1,0-1.681h3.21v-1.748h-3.21a.841.841,0,0,1,0-1.681h3.21v-1.748h-3.21a.84.84,0,1,1,0-1.68h3.21V1422h-3.21a.84.84,0,1,1,0-1.68h3.21v-9.264H650.723v30.494h22.323Z" transform="translate(-1.435 -6.001)" fill="#787878"/>
        </g>
      </g>
      <g id="グループ_17051" data-name="グループ 17051">
        <rect id="長方形_7921" data-name="長方形 7921" width="198" height="141" transform="translate(55 -648)" fill="#efefef"/>
        <g id="グループ_12964" data-name="グループ 12964" transform="translate(-988.536 -2182.625)">
          <g id="グループ_6505" data-name="グループ 6505" transform="translate(1112.536 1561.625)">
            <path id="パス_2392" data-name="パス 2392" d="M1153.08,1595.96h17.16a2.587,2.587,0,0,0,2.583-2.6v-29.143a2.592,2.592,0,0,0-2.583-2.6h-55.12a2.6,2.6,0,0,0-2.589,2.6v29.143a2.591,2.591,0,0,0,2.589,2.6Zm-10.4-1.445a.408.408,0,1,1,.3-.118.414.414,0,0,1-.3.118Zm26.671-3a.557.557,0,0,1-.556.556h-52.23a.557.557,0,0,1-.556-.556V1566.06a.557.557,0,0,1,.556-.556h52.23a.557.557,0,0,1,.556.556Z" transform="translate(-1112.536 -1561.625)" fill="#787878"/>
          </g>
          <g id="グループ_6506" data-name="グループ 6506" transform="translate(1124.69 1597.66)">
            <path id="パス_2393" data-name="パス 2393" d="M1129.96,1601.08h-.1l-.092.042-3.184,1.486a1.28,1.28,0,0,0,1.082,2.32l6.38-2.977,1.865-.871h-5.947Z" transform="translate(-1125.843 -1601.076)" fill="#787878"/>
            <path id="パス_2394" data-name="パス 2394" d="M1164.8,1603.31a1.268,1.268,0,0,0-.671-.713l-3.274-1.482-.09-.04h-6.2l1.929.872,6.586,2.979a1.265,1.265,0,0,0,.526.113,1.279,1.279,0,0,0,1.2-1.73Z" transform="translate(-1128.329 -1601.076)" fill="#787878"/>
          </g>
          <rect id="長方形_4834" data-name="長方形 4834" width="46.949" height="20.173" rx="1.455" transform="translate(1119.207 1568.707)" fill="#787878"/>
        </g>
        <g id="グループ-2" data-name="グループ">
          <text id="_デジタル" data-name=" デジタル" transform="translate(75.551 -557)" font-size="14" font-family="NotoSansCJKjp-Bold, Noto Sans CJK JP" font-weight="700"><tspan x="0" y="0" xml:space="preserve"> デジタル</tspan></text>
          <text id="放送対応" transform="translate(134.551 -557)" font-size="14" font-family="NotoSansCJKjp-Bold, Noto Sans CJK JP" font-weight="700"><tspan x="0" y="0">放送対応</tspan></text>
          <text id="テレビ" transform="translate(190.551 -557)" font-size="14" font-family="NotoSansCJKjp-Bold, Noto Sans CJK JP" font-weight="700"><tspan x="0" y="0">テレビ</tspan></text>
          <text id="_2-2" data-name=" 2" transform="translate(120.288 -539)" font-size="14" font-family="NotoSansCJKjp-Bold, Noto Sans CJK JP" font-weight="700"><tspan x="0" y="0" xml:space="preserve"> 2</tspan></text>
          <text id="台目以降" transform="translate(131.288 -539)" font-size="14" font-family="NotoSansCJKjp-Bold, Noto Sans CJK JP" font-weight="700"><tspan x="0" y="0">台目以降</tspan></text>
        </g>
      </g>
      <g id="グループ_16157" data-name="グループ 16157" transform="translate(3221 -3857)">
        <rect id="長方形_7922" data-name="長方形 7922" width="198" height="76" transform="translate(-2847 3209)" fill="#efefef"/>
        <path id="パス_3528" data-name="パス 3528" d="M90.144,204.818H71.755a2,2,0,0,0-2,2v28a2,2,0,0,0,2,2H90.144a2,2,0,0,0,2-2v-28A2,2,0,0,0,90.144,204.818Zm-9.195,21.028a5.028,5.028,0,1,1,5.028-5.028,5.028,5.028,0,0,1-5.028,5.028Z" transform="translate(-2828.755 3012.182)" fill="#787878"/>
        <text id="_テレビ端子" data-name=" テレビ端子" transform="translate(-2784.589 3273)" font-size="14" font-family="NotoSansCJKjp-Bold, Noto Sans CJK JP" font-weight="700"><tspan x="0" y="0" xml:space="preserve"> テレビ端子</tspan></text>
      </g>
      <g id="グループ_16158" data-name="グループ 16158" transform="translate(3221 -3718)">
        <rect id="長方形_7922-2" data-name="長方形 7922" width="198" height="76" transform="translate(-2847 3209)" fill="#efefef"/>
        <path id="パス_3528-2" data-name="パス 3528" d="M90.144,204.818H71.755a2,2,0,0,0-2,2v28a2,2,0,0,0,2,2H90.144a2,2,0,0,0,2-2v-28A2,2,0,0,0,90.144,204.818Zm-9.195,21.028a5.028,5.028,0,1,1,5.028-5.028,5.028,5.028,0,0,1-5.028,5.028Z" transform="translate(-2828.755 3012.182)" fill="#787878"/>
        <text id="_テレビ端子-2" data-name=" テレビ端子" transform="translate(-2784.589 3273)" font-size="14" font-family="NotoSansCJKjp-Bold, Noto Sans CJK JP" font-weight="700"><tspan x="0" y="0" xml:space="preserve"> テレビ端子</tspan></text>
      </g>
      <g id="グループ_17053" data-name="グループ 17053">
        <rect id="長方形_7918" data-name="長方形 7918" width="198" height="141" transform="translate(374 -398)" fill="#efefef"/>
        <g id="グループ_12983" data-name="グループ 12983" transform="translate(-669.536 -1932.625)">
          <g id="グループ_6505-2" data-name="グループ 6505" transform="translate(1112.536 1561.625)">
            <path id="パス_2392-2" data-name="パス 2392" d="M1153.08,1595.96h17.16a2.587,2.587,0,0,0,2.583-2.6v-29.143a2.592,2.592,0,0,0-2.583-2.6h-55.12a2.6,2.6,0,0,0-2.589,2.6v29.143a2.591,2.591,0,0,0,2.589,2.6Zm-10.4-1.445a.408.408,0,1,1,.3-.118.414.414,0,0,1-.3.118Zm26.671-3a.557.557,0,0,1-.556.556h-52.23a.557.557,0,0,1-.556-.556V1566.06a.557.557,0,0,1,.556-.556h52.23a.557.557,0,0,1,.556.556Z" transform="translate(-1112.536 -1561.625)" fill="#787878"/>
          </g>
          <g id="グループ_6506-2" data-name="グループ 6506" transform="translate(1124.69 1597.66)">
            <path id="パス_2393-2" data-name="パス 2393" d="M1129.96,1601.08h-.1l-.092.042-3.184,1.486a1.28,1.28,0,0,0,1.082,2.32l6.38-2.977,1.865-.871h-5.947Z" transform="translate(-1125.843 -1601.076)" fill="#787878"/>
            <path id="パス_2394-2" data-name="パス 2394" d="M1164.8,1603.31a1.268,1.268,0,0,0-.671-.713l-3.274-1.482-.09-.04h-6.2l1.929.872,6.586,2.979a1.265,1.265,0,0,0,.526.113,1.279,1.279,0,0,0,1.2-1.73Z" transform="translate(-1128.329 -1601.076)" fill="#787878"/>
          </g>
          <rect id="長方形_4834-2" data-name="長方形 4834" width="46.949" height="20.173" rx="1.455" transform="translate(1119.207 1568.707)" fill="#787878"/>
        </g>
        <g id="グループ-3" data-name="グループ">
          <text id="_デジタル-2" data-name=" デジタル" transform="translate(394.551 -307)" font-size="14" font-family="NotoSansCJKjp-Bold, Noto Sans CJK JP" font-weight="700"><tspan x="0" y="0" xml:space="preserve"> デジタル</tspan></text>
          <text id="放送対応-2" data-name="放送対応" transform="translate(453.551 -307)" font-size="14" font-family="NotoSansCJKjp-Bold, Noto Sans CJK JP" font-weight="700"><tspan x="0" y="0">放送対応</tspan></text>
          <text id="テレビ-2" data-name="テレビ" transform="translate(509.551 -307)" font-size="14" font-family="NotoSansCJKjp-Bold, Noto Sans CJK JP" font-weight="700"><tspan x="0" y="0">テレビ</tspan></text>
          <text id="_1" data-name=" 1" transform="translate(453.288 -289)" font-size="14" font-family="NotoSansCJKjp-Bold, Noto Sans CJK JP" font-weight="700"><tspan x="0" y="0" xml:space="preserve"> 1</tspan></text>
          <text id="台目" transform="translate(464.288 -289)" font-size="14" font-family="NotoSansCJKjp-Bold, Noto Sans CJK JP" font-weight="700"><tspan x="0" y="0">台目</tspan></text>
        </g>
      </g>
      <g id="グループ_17046" data-name="グループ 17046">
        <rect id="長方形_7938" data-name="長方形 7938" width="110" height="240" transform="translate(-222 -722)" fill="#efefef"/>
        <path id="pictogram_broadcaster" d="M-11579-2778.72v-18.72a1.786,1.786,0,0,0-1.781-1.792h-12.166a1.79,1.79,0,0,0-1.782,1.792v18.72h-10.049a1.3,1.3,0,0,1-1.289-1.3l0-40.22a1.294,1.294,0,0,1,.376-.918,1.293,1.293,0,0,1,.916-.382h35.491a1.293,1.293,0,0,1,.915.382,1.293,1.293,0,0,1,.376.918v7.157h5.826l1.588-6.707a1.814,1.814,0,0,1,1.666-1.312h.143c-4.529-5.228-5.088-12.346-1.115-16.347l8.3,8.364,2.686-2.1a2.025,2.025,0,0,1,.514-1.959,2,2,0,0,1,1.423-.594,2,2,0,0,1,1.423.594,2.041,2.041,0,0,1,0,2.868,2,2,0,0,1-1.762.561l-1.91,3.021,8.3,8.364c-2.949,2.97-7.607,3.418-11.936,1.592l.561,3.658h10.086a1.294,1.294,0,0,1,1.288,1.3v31.762a1.3,1.3,0,0,1-1.289,1.3Zm24.549-22.365v6.047a1.061,1.061,0,0,0,1.059,1.063h6.008a1.06,1.06,0,0,0,1.056-1.063v-6.047a1.057,1.057,0,0,0-.307-.752,1.064,1.064,0,0,0-.75-.313h-6a1.066,1.066,0,0,0-.782.293,1.068,1.068,0,0,0-.331.767Zm-10.707,0v6.047a1.06,1.06,0,0,0,1.057,1.063h6.006a1.062,1.062,0,0,0,1.06-1.063v-6.049a1.052,1.052,0,0,0-.309-.751,1.064,1.064,0,0,0-.752-.311h-6a1.06,1.06,0,0,0-.776.295,1.06,1.06,0,0,0-.326.764Zm-42.455-22.342a1.3,1.3,0,0,1-1.29-1.3v-4.489a1.289,1.289,0,0,1,.375-.918,1.293,1.293,0,0,1,.915-.382h41.167a1.289,1.289,0,0,1,.914.382,1.292,1.292,0,0,1,.375.918v4.489a1.3,1.3,0,0,1-1.29,1.3Z" transform="translate(11407.922 2171.449)" fill="#787878" stroke="rgba(0,0,0,0)" stroke-miterlimit="10" stroke-width="1"/>
        <text id="_放送信号" data-name=" 放送信号" transform="translate(-196.589 -583)" font-size="14" font-family="NotoSansCJKjp-Bold, Noto Sans CJK JP" font-weight="700"><tspan x="0" y="0" xml:space="preserve"> 放送信号</tspan></text>
        <g id="グループ-4" data-name="グループ">
          <text id="_放送事業者_" data-name="（放送事業者   " transform="translate(-213.704 -559)" font-size="14" font-family="YuGothicUI-Regular, Yu Gothic UI"><tspan x="0" y="0">（放送事業者</tspan><tspan y="0" xml:space="preserve" font-family="SegoeUI, Segoe UI">   </tspan></text>
          <text id="受信拠点_" data-name="受信拠点）" transform="translate(-209 -541)" font-size="14" font-family="YuGothicUI-Regular, Yu Gothic UI"><tspan x="0" y="0">受信拠点）</tspan></text>
        </g>
      </g>
      <g id="グループ_17047" data-name="グループ 17047">
        <rect id="長方形_7942" data-name="長方形 7942" width="110" height="240" transform="translate(-222 -466)" fill="#efefef"/>
        <g id="グループ_12997" data-name="グループ 12997" transform="translate(10721 20585.67)">
          <text id="_インターネット" data-name=" インターネット" transform="translate(-10938.589 -20885)" font-size="14" font-family="NotoSansCJKjp-Bold, Noto Sans CJK JP" font-weight="700"><tspan x="0" y="0" xml:space="preserve"> インターネット</tspan></text>
          <g id="グループ_12936" data-name="グループ 12936" transform="translate(-10923 -20981.67)">
            <g id="グループ_6674" data-name="グループ 6674">
              <g id="グループ_6510" data-name="グループ 6510">
                <path id="パス_2143" data-name="パス 2143" d="M751.1,1233.07h.039a1.7,1.7,0,0,0,1.7-1.631,30.954,30.954,0,0,1,12.787-23.67,30.607,30.607,0,0,1,18.218-5.969,31.576,31.576,0,0,1,3.7.219l-1.416.8a1.7,1.7,0,0,0,.838,3.191,1.678,1.678,0,0,0,.835-.219l5.493-3.089a1.681,1.681,0,0,0,.2-.136,1.591,1.591,0,0,0,.182-.164,1.3,1.3,0,0,0,.177-.215l.1-.166.04-.079.072-.191.03-.1.014-.032.028-.215.009-.121v-.144a1.108,1.108,0,0,0-.03-.252l-.059-.234-.069-.149a1.909,1.909,0,0,0-.1-.2l-3.189-5.017a1.7,1.7,0,0,0-2.878,1.827l1.042,1.64a34.69,34.69,0,0,0-5.018-.366,34,34,0,0,0-20.23,6.629,34.353,34.353,0,0,0-14.179,26.272,1.7,1.7,0,0,0,.445,1.226,1.722,1.722,0,0,0,1.219.555Z" transform="translate(-747.723 -1194.495)" fill="#787878"/>
                <path id="パス_2144" data-name="パス 2144" d="M801.739,1247.85a1.7,1.7,0,0,0-.908.263,30.662,30.662,0,0,1-16.4,4.691,31.375,31.375,0,0,1-11.488-2.169,30.462,30.462,0,0,1-17.1-16.5l1.278.786a1.705,1.705,0,1,0,1.786-2.906l-5.376-3.3a1.9,1.9,0,0,0-.232-.114l-.081-.033a2.219,2.219,0,0,0-.219-.059l-.055-.012-.139-.016q-.084-.008-.168-.008a1.669,1.669,0,0,0-.427.056,1.61,1.61,0,0,0-.346.137,1.664,1.664,0,0,0-.26.167l-.089.078a1.71,1.71,0,0,0-.2.215l-.133.189-2.859,5.277a1.7,1.7,0,0,0,.685,2.311,1.669,1.669,0,0,0,.813.207,1.706,1.706,0,0,0,1.5-.892l.96-1.772a33.8,33.8,0,0,0,19.419,19.357,34.748,34.748,0,0,0,12.728,2.4A34.076,34.076,0,0,0,802.649,1251a1.706,1.706,0,0,0-.91-3.149Z" transform="translate(-748.12 -1184.212)" fill="#787878"/>
                <path id="パス_2145" data-name="パス 2145" d="M801.424,1251.48l-2.042.055a33.926,33.926,0,0,0,7.219-25.3,34.308,34.308,0,0,0-16.029-25.425,1.705,1.705,0,1,0-1.792,2.9,30.915,30.915,0,0,1,14.434,22.918,30.581,30.581,0,0,1-5.88,21.969l.041-1.5a1.7,1.7,0,0,0-1.653-1.749h-.09a1.7,1.7,0,0,0-1.667,1.661l-.168,6.3a2.024,2.024,0,0,0,.017.263l.012.084a2.217,2.217,0,0,0,.091.317,1.7,1.7,0,0,0,.378.573,1.825,1.825,0,0,0,.262.215l.036.024.249.129a1.693,1.693,0,0,0,.2.066l.132.036a1.824,1.824,0,0,0,.326.03h.01l5.982-.16a1.705,1.705,0,1,0-.069-3.41Z" transform="translate(-736.062 -1192.662)" fill="#787878"/>
                <g id="グループ_5294" data-name="グループ 5294" transform="translate(12.61 14.157)">
                  <g id="グループ_5263" data-name="グループ 5263" transform="translate(32.04 1.296)">
                    <g id="グループ_5262" data-name="グループ 5262">
                      <path id="パス_2146" data-name="パス 2146" d="M782.4,1206.36a31.319,31.319,0,0,1,2.6,6.316,21.16,21.16,0,0,0,3.887-2.857,23.9,23.9,0,0,0-6.487-3.459Z" transform="translate(-782.398 -1206.358)" fill="#787878"/>
                    </g>
                  </g>
                  <g id="グループ_5265" data-name="グループ 5265" transform="translate(14.155 11.618)">
                    <g id="グループ_5264" data-name="グループ 5264">
                      <path id="パス_2147" data-name="パス 2147" d="M769.918,1214.28a58.052,58.052,0,0,0-1.25,11.05h8.512v-9.482h0A24.244,24.244,0,0,1,769.918,1214.28Z" transform="translate(-768.668 -1214.282)" fill="#787878"/>
                    </g>
                  </g>
                  <g id="グループ_5267" data-name="グループ 5267" transform="translate(14.155 25.494)">
                    <g id="グループ_5266" data-name="グループ 5266">
                      <path id="パス_2148" data-name="パス 2148" d="M768.668,1224.94a58.079,58.079,0,0,0,1.249,11.043,24.059,24.059,0,0,1,7.263-1.562v-9.482Z" transform="translate(-768.668 -1224.935)" fill="#787878"/>
                    </g>
                  </g>
                  <g id="グループ_5269" data-name="グループ 5269" transform="translate(35.384 6.59)">
                    <g id="グループ_5268" data-name="グループ 5268">
                      <path id="パス_2149" data-name="パス 2149" d="M790.277,1210.42a24.325,24.325,0,0,1-5.312,3.832,60.454,60.454,0,0,1,1.453,12.246h11.327a23.964,23.964,0,0,0-7.468-16.078Z" transform="translate(-784.965 -1210.422)" fill="#787878"/>
                    </g>
                  </g>
                  <g id="グループ_5271" data-name="グループ 5271" transform="translate(25.496 25.494)">
                    <g id="グループ_5270" data-name="グループ 5270">
                      <path id="パス_2150" data-name="パス 2150" d="M777.374,1224.94v9.482a24.052,24.052,0,0,1,7.263,1.562,58.118,58.118,0,0,0,1.249-11.043Z" transform="translate(-777.374 -1224.935)" fill="#787878"/>
                    </g>
                  </g>
                  <g id="グループ_5273" data-name="グループ 5273" transform="translate(35.385 25.494)">
                    <g id="グループ_5272" data-name="グループ 5272">
                      <path id="パス_2151" data-name="パス 2151" d="M786.417,1224.94a60.3,60.3,0,0,1-1.451,12.238,24.031,24.031,0,0,1,5.318,3.833,23.97,23.97,0,0,0,7.46-16.07Z" transform="translate(-784.966 -1224.935)" fill="#787878"/>
                    </g>
                  </g>
                  <g id="グループ_5275" data-name="グループ 5275" transform="translate(0 6.59)">
                    <g id="グループ_5274" data-name="グループ 5274">
                      <path id="パス_2152" data-name="パス 2152" d="M765.27,1210.42c-.15.143-.3.287-.445.434A23.945,23.945,0,0,0,757.8,1226.5h11.327a60.488,60.488,0,0,1,1.453-12.247,24.208,24.208,0,0,1-5.31-3.833Z" transform="translate(-757.801 -1210.422)" fill="#787878"/>
                    </g>
                  </g>
                  <g id="グループ_5277" data-name="グループ 5277" transform="translate(0 25.494)">
                    <g id="グループ_5276" data-name="グループ 5276">
                      <path id="パス_2153" data-name="パス 2153" d="M769.128,1224.94H757.8a23.967,23.967,0,0,0,7.46,16.07,24.019,24.019,0,0,1,5.318-3.833,60.48,60.48,0,0,1-1.45-12.237Z" transform="translate(-757.801 -1224.935)" fill="#787878"/>
                    </g>
                  </g>
                  <g id="グループ_5279" data-name="グループ 5279" transform="translate(25.496 11.62)">
                    <g id="グループ_5278" data-name="グループ 5278">
                      <path id="パス_2154" data-name="パス 2154" d="M784.636,1214.28a23.79,23.79,0,0,1-7.262,1.568v9.479h8.512A58.034,58.034,0,0,0,784.636,1214.28Z" transform="translate(-777.374 -1214.284)" fill="#787878"/>
                    </g>
                  </g>
                  <g id="グループ_5281" data-name="グループ 5281" transform="translate(25.496 37.808)">
                    <g id="グループ_5280" data-name="グループ 5280">
                      <path id="パス_2155" data-name="パス 2155" d="M777.374,1234.39v10.354a24.272,24.272,0,0,0,2.418-.26,23.87,23.87,0,0,0,4.149-8.6A21.266,21.266,0,0,0,777.374,1234.39Z" transform="translate(-777.374 -1234.388)" fill="#787878"/>
                    </g>
                  </g>
                  <g id="グループ_5283" data-name="グループ 5283" transform="translate(32.04 40.551)">
                    <g id="グループ_5282" data-name="グループ 5282">
                      <path id="パス_2156" data-name="パス 2156" d="M785,1236.49a31.358,31.358,0,0,1-2.6,6.315,23.886,23.886,0,0,0,6.491-3.463A21.2,21.2,0,0,0,785,1236.49Z" transform="translate(-782.398 -1236.494)" fill="#787878"/>
                    </g>
                  </g>
                  <g id="グループ_5285" data-name="グループ 5285" transform="translate(16.101 37.808)">
                    <g id="グループ_5284" data-name="グループ 5284">
                      <path id="パス_2157" data-name="パス 2157" d="M770.162,1235.88a23.856,23.856,0,0,0,4.149,8.6,23.877,23.877,0,0,0,2.418.26v-10.354A21.267,21.267,0,0,0,770.162,1235.88Z" transform="translate(-770.162 -1234.388)" fill="#787878"/>
                    </g>
                  </g>
                  <g id="グループ_5287" data-name="グループ 5287" transform="translate(9.641 1.296)">
                    <g id="グループ_5286" data-name="グループ 5286">
                      <path id="パス_2158" data-name="パス 2158" d="M765.2,1209.82a21.519,21.519,0,0,0,3.885,2.851,31.349,31.349,0,0,1,2.6-6.309,23.874,23.874,0,0,0-6.485,3.458Z" transform="translate(-765.202 -1206.358)" fill="#787878"/>
                    </g>
                  </g>
                  <g id="グループ_5289" data-name="グループ 5289" transform="translate(16.104)">
                    <g id="グループ_5288" data-name="グループ 5288">
                      <path id="パス_2159" data-name="パス 2159" d="M774.31,1205.62a23.833,23.833,0,0,0-4.146,8.592,21.422,21.422,0,0,0,6.564,1.5v-10.353Q775.507,1205.43,774.31,1205.62Z" transform="translate(-770.164 -1205.363)" fill="#787878"/>
                    </g>
                  </g>
                  <g id="グループ_5291" data-name="グループ 5291" transform="translate(25.496)">
                    <g id="グループ_5290" data-name="グループ 5290">
                      <path id="パス_2160" data-name="パス 2160" d="M779.792,1205.62a24.307,24.307,0,0,0-2.418-.26v10.353a21.19,21.19,0,0,0,6.566-1.493,23.85,23.85,0,0,0-4.148-8.6Z" transform="translate(-777.374 -1205.363)" fill="#787878"/>
                    </g>
                  </g>
                  <g id="グループ_5293" data-name="グループ 5293" transform="translate(9.634 40.551)">
                    <g id="グループ_5292" data-name="グループ 5292">
                      <path id="パス_2161" data-name="パス 2161" d="M769.087,1236.49a21.156,21.156,0,0,0-3.889,2.853,23.858,23.858,0,0,0,6.489,3.463,31.4,31.4,0,0,1-2.6-6.316Z" transform="translate(-765.197 -1236.494)" fill="#787878"/>
                    </g>
                  </g>
                </g>
              </g>
            </g>
          </g>
        </g>
      </g>
      <g id="グループ_17048" data-name="グループ 17048">
        <rect id="長方形_7939" data-name="長方形 7939" width="3" height="38" transform="translate(48 -415) rotate(90)" fill="#f4ad16"/>
        <rect id="長方形_7940" data-name="長方形 7940" width="3" height="305" transform="translate(-95 -344) rotate(180)" fill="#f4ad16"/>
        <rect id="長方形_7944" data-name="長方形 7944" width="3" height="237" transform="translate(13 -412) rotate(180)" fill="#f4ad16"/>
        <rect id="長方形_7941" data-name="長方形 7941" width="3" height="124" transform="translate(12 -649) rotate(90)" fill="#f4ad16"/>
        <rect id="長方形_7943" data-name="長方形 7943" width="3" height="17" transform="translate(-95 -347) rotate(90)" fill="#f4ad16"/>
        <g id="グループ_16138" data-name="グループ 16138" transform="translate(48 -408) rotate(-90)">
          <g id="グループ_8213" data-name="グループ 8213" transform="translate(0.346 8.646)">
            <rect id="長方形_5229" data-name="長方形 5229" width="3.894" height="5.003" fill="#f4ad16"/>
            <rect id="長方形_5230" data-name="長方形 5230" width="3.894" height="5.003" transform="translate(10.248 5.003) rotate(180)" fill="#f4ad16"/>
          </g>
          <g id="グループ_8214" data-name="グループ 8214" transform="translate(0.698 13.997)">
            <rect id="長方形_5231" data-name="長方形 5231" width="0.946" height="5.003" transform="translate(2.596)" fill="#f4ad16"/>
            <rect id="長方形_5232" data-name="長方形 5232" width="0.946" height="5.003" transform="translate(1.298)" fill="#f4ad16"/>
            <rect id="長方形_5233" data-name="長方形 5233" width="0.946" height="5.003" fill="#f4ad16"/>
            <rect id="長方形_5234" data-name="長方形 5234" width="0.946" height="5.003" transform="translate(6.948 5.003) rotate(180)" fill="#f4ad16"/>
            <rect id="長方形_5235" data-name="長方形 5235" width="0.946" height="5.003" transform="translate(8.246 5.003) rotate(180)" fill="#f4ad16"/>
            <rect id="長方形_5236" data-name="長方形 5236" width="0.946" height="5.003" transform="translate(9.544 5.003) rotate(180)" fill="#f4ad16"/>
          </g>
          <rect id="長方形_5237" data-name="長方形 5237" width="0.946" height="7.819" transform="translate(4.997 8.071)" fill="#f4ad16"/>
          <rect id="長方形_5238" data-name="長方形 5238" width="11" height="6.135" transform="translate(0 2.164)" fill="#f4ad16"/>
          <path id="パス_2717" data-name="パス 2717" d="M5.185,0H.757L0,1.817H5.942Z" transform="translate(2.529)" fill="#f4ad16"/>
        </g>
      </g>
      <g id="グループ_17054" data-name="グループ 17054">
        <g id="グループ_16147" data-name="グループ 16147" transform="translate(3217 -3857)">
          <g id="グループ_9590" data-name="グループ 9590" transform="translate(-2968 3237)">
            <rect id="長方形_6082" data-name="長方形 6082" width="4.747" height="9" fill="#56b2e1"/>
            <rect id="長方形_6083" data-name="長方形 6083" width="1.566" height="9" transform="translate(8.434)" fill="#56b2e1"/>
            <rect id="長方形_6084" data-name="長方形 6084" width="4.747" height="6.08" transform="translate(4.571 1.46)" fill="#56b2e1"/>
          </g>
          <g id="グループ_12969" data-name="グループ 12969" transform="translate(-2968 3249)">
            <rect id="長方形_6082-2" data-name="長方形 6082" width="4.747" height="9" fill="#56b2e1"/>
            <rect id="長方形_6083-2" data-name="長方形 6083" width="1.566" height="9" transform="translate(8.434)" fill="#56b2e1"/>
            <rect id="長方形_6084-2" data-name="長方形 6084" width="4.747" height="6.08" transform="translate(4.571 1.46)" fill="#56b2e1"/>
          </g>
        </g>
        <g id="グループ_12976" data-name="グループ 12976" transform="translate(10642 20522)">
          <g id="グループ_9590-2" data-name="グループ 9590" transform="translate(-10264 -21127) rotate(180)">
            <rect id="長方形_6082-3" data-name="長方形 6082" width="4.747" height="9" fill="#56b2e1"/>
            <rect id="長方形_6083-3" data-name="長方形 6083" width="1.566" height="9" transform="translate(8.434)" fill="#56b2e1"/>
            <rect id="長方形_6084-3" data-name="長方形 6084" width="4.747" height="6.08" transform="translate(4.571 1.46)" fill="#56b2e1"/>
          </g>
        </g>
        <rect id="長方形_7930" data-name="長方形 7930" width="3" height="41" transform="translate(368 -611) rotate(90)" fill="#787878"/>
        <rect id="長方形_7928" data-name="長方形 7928" width="3" height="31" transform="translate(290 -617) rotate(90)" fill="#787878"/>
        <g id="グループ_16156" data-name="グループ 16156" transform="translate(3205 -3857)">
          <g id="グループ_16148" data-name="グループ 16148">
            <g id="グループ_9590-3" data-name="グループ 9590" transform="translate(-2910 3258) rotate(180)">
              <rect id="長方形_6082-4" data-name="長方形 6082" width="4.747" height="9" fill="#56b2e1"/>
              <rect id="長方形_6083-4" data-name="長方形 6083" width="1.566" height="9" transform="translate(8.434)" fill="#56b2e1"/>
              <rect id="長方形_6084-4" data-name="長方形 6084" width="4.747" height="6.08" transform="translate(4.571 1.46)" fill="#56b2e1"/>
            </g>
            <g id="グループ_12969-2" data-name="グループ 12969" transform="translate(-2910 3246) rotate(180)">
              <rect id="長方形_6082-5" data-name="長方形 6082" width="4.747" height="9" fill="#56b2e1"/>
              <rect id="長方形_6083-5" data-name="長方形 6083" width="1.566" height="9" transform="translate(8.434)" fill="#56b2e1"/>
              <rect id="長方形_6084-5" data-name="長方形 6084" width="4.747" height="6.08" transform="translate(4.571 1.46)" fill="#56b2e1"/>
            </g>
          </g>
          <g id="グループ_12968" data-name="グループ 12968" transform="translate(-2247.332 3899.61) rotate(180)">
            <path id="パス_3163" data-name="パス 3163" d="M643,638.262h.438v.439a.189.189,0,0,0,.378,0v-.439h.437a.19.19,0,0,0,0-.379h-.437v-.439a.189.189,0,0,0-.378,0v.439H643a.189.189,0,1,0,0,.379Z" transform="translate(-0.87 -0.45)" fill="#56b2e1"/>
            <path id="パス_3164" data-name="パス 3164" d="M644.254,677.774h-.437v-.439a.189.189,0,1,0-.378,0v.439H643a.19.19,0,0,0,0,.379h.438v.439a.189.189,0,1,0,.378,0v-.439h.437a.19.19,0,0,0,0-.379Z" transform="translate(-0.87 -11.367)" fill="#56b2e1"/>
            <path id="パス_3165" data-name="パス 3165" d="M667.631,638.262h.438v.439a.188.188,0,0,0,.377,0v-.439h.438a.19.19,0,0,0,0-.379h-.438v-.439a.189.189,0,0,0-.377,0v.439h-.438a.189.189,0,1,0,0,.379Z" transform="translate(-7.679 -0.45)" fill="#56b2e1"/>
            <path id="パス_3166" data-name="パス 3166" d="M663.668,638.162a.538.538,0,0,0-.537-.539h-.548a1.963,1.963,0,0,0-1.085-1.8,2.021,2.021,0,0,0-2.926,1.8H644.764a1.963,1.963,0,0,0-1.085-1.8,2.021,2.021,0,0,0-2.926,1.8H640.2a.538.538,0,0,0-.537.539v27.9a.538.538,0,0,0,.537.539h.548c0-.042.01-.081.013-.123,0,.041-.013.081-.013.123a2.005,2.005,0,0,0,4.01,0c0-.042-.009-.081-.012-.123,0,.041.012.081.012.123h13.809a1.965,1.965,0,0,0,1.085,1.8,2.021,2.021,0,0,0,2.926-1.8h.548a.538.538,0,0,0,.537-.539Zm-3.091-1.825a1.287,1.287,0,1,1-1.281,1.286,1.287,1.287,0,0,1,1.281-1.286Zm-17.818,0a1.287,1.287,0,1,1-1.282,1.286,1.287,1.287,0,0,1,1.282-1.286Zm-1.847,29.478a2,2,0,0,1,.378-.577,2,2,0,0,0-.378.576Zm1.847,2.069a1.287,1.287,0,1,1,1.281-1.286,1.287,1.287,0,0,1-1.281,1.286Zm-1.417-2.709a2,2,0,0,1,1.014-.549,2,2,0,0,0-1.015.548Zm1.821-.549a2,2,0,0,1,1.014.549,2,2,0,0,0-1.015-.55Zm1.065.612a1.993,1.993,0,0,1,.378.577,1.994,1.994,0,0,0-.379-.578Zm2.6-1.493-4.261-4.892V645.522l4.261-4.892h9.689l4.261,4.892v13.331l-4.261,4.892Zm13.754,4.139a.888.888,0,1,0-.005,0Z" fill="#56b2e1"/>
            <path id="パス_3167" data-name="パス 3167" d="M668.883,677.774h-.438v-.44a.189.189,0,0,0-.377,0v.44h-.438a.19.19,0,0,0,0,.379h.438v.439a.188.188,0,0,0,.377,0v-.439h.438a.19.19,0,0,0,0-.379Z" transform="translate(-7.679 -11.367)" fill="#56b2e1"/>
          </g>
          <g id="グループ_12974" data-name="グループ 12974" transform="translate(-13152 -17884) rotate(180)">
            <g id="グループ_9590-4" data-name="グループ 9590" transform="translate(-10264 -21127) rotate(180)">
              <rect id="長方形_6082-6" data-name="長方形 6082" width="4.747" height="9" fill="#56b2e1"/>
              <rect id="長方形_6083-6" data-name="長方形 6083" width="1.566" height="9" transform="translate(8.434)" fill="#56b2e1"/>
              <rect id="長方形_6084-6" data-name="長方形 6084" width="4.747" height="6.08" transform="translate(4.571 1.46)" fill="#56b2e1"/>
            </g>
          </g>
        </g>
      </g>
      <g id="グループ_17057" data-name="グループ 17057">
        <rect id="長方形_9014" data-name="長方形 9014" width="3" height="7" transform="translate(319 -329) rotate(90)" fill="#787878"/>
        <g id="グループ_17056" data-name="グループ 17056">
          <g id="グループ_16150" data-name="グループ 16150" transform="translate(3220 -3780)">
            <g id="グループ_9590-5" data-name="グループ 9590" transform="translate(-2842 3463) rotate(180)">
              <rect id="長方形_6082-7" data-name="長方形 6082" width="4.747" height="9" fill="#56b2e1"/>
              <rect id="長方形_6083-7" data-name="長方形 6083" width="1.566" height="9" transform="translate(8.434)" fill="#56b2e1"/>
              <rect id="長方形_6084-7" data-name="長方形 6084" width="4.747" height="6.08" transform="translate(4.571 1.46)" fill="#56b2e1"/>
            </g>
            <g id="グループ_12969-3" data-name="グループ 12969" transform="translate(-2842 3451) rotate(180)">
              <rect id="長方形_6082-8" data-name="長方形 6082" width="4.747" height="9" fill="#56b2e1"/>
              <rect id="長方形_6083-8" data-name="長方形 6083" width="1.566" height="9" transform="translate(8.434)" fill="#56b2e1"/>
              <rect id="長方形_6084-8" data-name="長方形 6084" width="4.747" height="6.08" transform="translate(4.571 1.46)" fill="#56b2e1"/>
            </g>
          </g>
          <g id="グループ_12994" data-name="グループ 12994" transform="translate(10523 20719)">
            <g id="グループ_9590-6" data-name="グループ 9590" transform="translate(-10274 -21136)">
              <rect id="長方形_6082-9" data-name="長方形 6082" width="4.747" height="9" fill="#56b2e1"/>
              <rect id="長方形_6083-9" data-name="長方形 6083" width="1.566" height="9" transform="translate(8.434)" fill="#56b2e1"/>
              <rect id="長方形_6084-9" data-name="長方形 6084" width="4.747" height="6.08" transform="translate(4.571 1.46)" fill="#56b2e1"/>
            </g>
          </g>
          <rect id="長方形_7937" data-name="長方形 7937" width="3" height="7" transform="translate(266 -414) rotate(90)" fill="#787878"/>
          <rect id="長方形_7926" data-name="長方形 7926" width="3" height="7" transform="translate(315 -407) rotate(90)" fill="#787878"/>
          <rect id="長方形_7971" data-name="長方形 7971" width="3" height="7" transform="translate(368 -323) rotate(90)" fill="#787878"/>
          <rect id="長方形_7972" data-name="長方形 7972" width="3" height="7" transform="translate(368 -335) rotate(90)" fill="#787878"/>
          <rect id="長方形_9010" data-name="長方形 9010" width="3" height="22" transform="translate(475 -416) rotate(180)" fill="#787878"/>
          <rect id="長方形_9013" data-name="長方形 9013" width="3" height="75" transform="translate(315 -329) rotate(180)" fill="#787878"/>
          <rect id="長方形_9011" data-name="長方形 9011" width="3" height="167" transform="translate(475 -419) rotate(90)" fill="#787878"/>
          <g id="グループ_16154" data-name="グループ 16154" transform="translate(3219 -3858)">
            <g id="グループ_16143" data-name="グループ 16143" transform="translate(-2280.332 4097.61) rotate(180)">
              <path id="パス_3163-2" data-name="パス 3163" d="M643,638.262h.438v.439a.189.189,0,0,0,.378,0v-.439h.437a.19.19,0,0,0,0-.379h-.437v-.439a.189.189,0,0,0-.378,0v.439H643a.189.189,0,1,0,0,.379Z" transform="translate(-0.87 -0.45)" fill="#56b2e1"/>
              <path id="パス_3164-2" data-name="パス 3164" d="M644.254,677.774h-.437v-.439a.189.189,0,1,0-.378,0v.439H643a.19.19,0,0,0,0,.379h.438v.439a.189.189,0,1,0,.378,0v-.439h.437a.19.19,0,0,0,0-.379Z" transform="translate(-0.87 -11.367)" fill="#56b2e1"/>
              <path id="パス_3165-2" data-name="パス 3165" d="M667.631,638.262h.438v.439a.188.188,0,0,0,.377,0v-.439h.438a.19.19,0,0,0,0-.379h-.438v-.439a.189.189,0,0,0-.377,0v.439h-.438a.189.189,0,1,0,0,.379Z" transform="translate(-7.679 -0.45)" fill="#56b2e1"/>
              <path id="パス_3166-2" data-name="パス 3166" d="M663.668,638.162a.538.538,0,0,0-.537-.539h-.548a1.963,1.963,0,0,0-1.085-1.8,2.021,2.021,0,0,0-2.926,1.8H644.764a1.963,1.963,0,0,0-1.085-1.8,2.021,2.021,0,0,0-2.926,1.8H640.2a.538.538,0,0,0-.537.539v27.9a.538.538,0,0,0,.537.539h.548c0-.042.01-.081.013-.123,0,.041-.013.081-.013.123a2.005,2.005,0,0,0,4.01,0c0-.042-.009-.081-.012-.123,0,.041.012.081.012.123h13.809a1.965,1.965,0,0,0,1.085,1.8,2.021,2.021,0,0,0,2.926-1.8h.548a.538.538,0,0,0,.537-.539Zm-3.091-1.825a1.287,1.287,0,1,1-1.281,1.286,1.287,1.287,0,0,1,1.281-1.286Zm-17.818,0a1.287,1.287,0,1,1-1.282,1.286,1.287,1.287,0,0,1,1.282-1.286Zm-1.847,29.478a2,2,0,0,1,.378-.577,2,2,0,0,0-.378.576Zm1.847,2.069a1.287,1.287,0,1,1,1.281-1.286,1.287,1.287,0,0,1-1.281,1.286Zm-1.417-2.709a2,2,0,0,1,1.014-.549,2,2,0,0,0-1.015.548Zm1.821-.549a2,2,0,0,1,1.014.549,2,2,0,0,0-1.015-.55Zm1.065.612a1.993,1.993,0,0,1,.378.577,1.994,1.994,0,0,0-.379-.578Zm2.6-1.493-4.261-4.892V645.522l4.261-4.892h9.689l4.261,4.892v13.331l-4.261,4.892Zm13.754,4.139a.888.888,0,1,0-.005,0Z" fill="#56b2e1"/>
              <path id="パス_3167-2" data-name="パス 3167" d="M668.883,677.774h-.438v-.44a.189.189,0,0,0-.377,0v.44h-.438a.19.19,0,0,0,0,.379h.438v.439a.188.188,0,0,0,.377,0v-.439h.438a.19.19,0,0,0,0-.379Z" transform="translate(-7.679 -11.367)" fill="#56b2e1"/>
            </g>
            <g id="グループ_12974-2" data-name="グループ 12974" transform="translate(7321 24577)">
              <g id="グループ_9590-7" data-name="グループ 9590" transform="translate(-10264 -21127) rotate(180)">
                <rect id="長方形_6082-10" data-name="長方形 6082" width="4.747" height="9" fill="#56b2e1"/>
                <rect id="長方形_6083-10" data-name="長方形 6083" width="1.566" height="9" transform="translate(8.434)" fill="#56b2e1"/>
                <rect id="長方形_6084-10" data-name="長方形 6084" width="4.747" height="6.08" transform="translate(4.571 1.46)" fill="#56b2e1"/>
              </g>
            </g>
            <g id="グループ_16155" data-name="グループ 16155" transform="translate(0 1)">
              <g id="グループ_9590-8" data-name="グループ 9590" transform="translate(-2921 3435)">
                <rect id="長方形_6082-11" data-name="長方形 6082" width="4.747" height="9" fill="#56b2e1"/>
                <rect id="長方形_6083-11" data-name="長方形 6083" width="1.566" height="9" transform="translate(8.434)" fill="#56b2e1"/>
                <rect id="長方形_6084-11" data-name="長方形 6084" width="4.747" height="6.08" transform="translate(4.571 1.46)" fill="#56b2e1"/>
              </g>
              <g id="グループ_12969-4" data-name="グループ 12969" transform="translate(-2921 3447)">
                <rect id="長方形_6082-12" data-name="長方形 6082" width="4.747" height="9" fill="#56b2e1"/>
                <rect id="長方形_6083-12" data-name="長方形 6083" width="1.566" height="9" transform="translate(8.434)" fill="#56b2e1"/>
                <rect id="長方形_6084-12" data-name="長方形 6084" width="4.747" height="6.08" transform="translate(4.571 1.46)" fill="#56b2e1"/>
              </g>
            </g>
          </g>
          <g id="グループ_16152" data-name="グループ 16152" transform="translate(3222 -3779)">
            <g id="グループ_16142" data-name="グループ 16142" transform="translate(-2230.332 4103.61) rotate(180)">
              <path id="パス_3163-3" data-name="パス 3163" d="M643,638.262h.438v.439a.189.189,0,0,0,.378,0v-.439h.437a.19.19,0,0,0,0-.379h-.437v-.439a.189.189,0,0,0-.378,0v.439H643a.189.189,0,1,0,0,.379Z" transform="translate(-0.87 -0.45)" fill="#56b2e1"/>
              <path id="パス_3164-3" data-name="パス 3164" d="M644.254,677.774h-.437v-.439a.189.189,0,1,0-.378,0v.439H643a.19.19,0,0,0,0,.379h.438v.439a.189.189,0,1,0,.378,0v-.439h.437a.19.19,0,0,0,0-.379Z" transform="translate(-0.87 -11.367)" fill="#56b2e1"/>
              <path id="パス_3165-3" data-name="パス 3165" d="M667.631,638.262h.438v.439a.188.188,0,0,0,.377,0v-.439h.438a.19.19,0,0,0,0-.379h-.438v-.439a.189.189,0,0,0-.377,0v.439h-.438a.189.189,0,1,0,0,.379Z" transform="translate(-7.679 -0.45)" fill="#56b2e1"/>
              <path id="パス_3166-3" data-name="パス 3166" d="M663.668,638.162a.538.538,0,0,0-.537-.539h-.548a1.963,1.963,0,0,0-1.085-1.8,2.021,2.021,0,0,0-2.926,1.8H644.764a1.963,1.963,0,0,0-1.085-1.8,2.021,2.021,0,0,0-2.926,1.8H640.2a.538.538,0,0,0-.537.539v27.9a.538.538,0,0,0,.537.539h.548c0-.042.01-.081.013-.123,0,.041-.013.081-.013.123a2.005,2.005,0,0,0,4.01,0c0-.042-.009-.081-.012-.123,0,.041.012.081.012.123h13.809a1.965,1.965,0,0,0,1.085,1.8,2.021,2.021,0,0,0,2.926-1.8h.548a.538.538,0,0,0,.537-.539Zm-3.091-1.825a1.287,1.287,0,1,1-1.281,1.286,1.287,1.287,0,0,1,1.281-1.286Zm-17.818,0a1.287,1.287,0,1,1-1.282,1.286,1.287,1.287,0,0,1,1.282-1.286Zm-1.847,29.478a2,2,0,0,1,.378-.577,2,2,0,0,0-.378.576Zm1.847,2.069a1.287,1.287,0,1,1,1.281-1.286,1.287,1.287,0,0,1-1.281,1.286Zm-1.417-2.709a2,2,0,0,1,1.014-.549,2,2,0,0,0-1.015.548Zm1.821-.549a2,2,0,0,1,1.014.549,2,2,0,0,0-1.015-.55Zm1.065.612a1.993,1.993,0,0,1,.378.577,1.994,1.994,0,0,0-.379-.578Zm2.6-1.493-4.261-4.892V645.522l4.261-4.892h9.689l4.261,4.892v13.331l-4.261,4.892Zm13.754,4.139a.888.888,0,1,0-.005,0Z" fill="#56b2e1"/>
              <path id="パス_3167-3" data-name="パス 3167" d="M668.883,677.774h-.438v-.44a.189.189,0,0,0-.377,0v.44h-.438a.19.19,0,0,0,0,.379h.438v.439a.188.188,0,0,0,.377,0v-.439h.438a.19.19,0,0,0,0-.379Z" transform="translate(-7.679 -11.367)" fill="#56b2e1"/>
            </g>
            <g id="グループ_16151" data-name="グループ 16151">
              <g id="グループ_9590-9" data-name="グループ 9590" transform="translate(-2871 3441)">
                <rect id="長方形_6082-13" data-name="長方形 6082" width="4.747" height="9" fill="#56b2e1"/>
                <rect id="長方形_6083-13" data-name="長方形 6083" width="1.566" height="9" transform="translate(8.434)" fill="#56b2e1"/>
                <rect id="長方形_6084-13" data-name="長方形 6084" width="4.747" height="6.08" transform="translate(4.571 1.46)" fill="#56b2e1"/>
              </g>
              <g id="グループ_12969-5" data-name="グループ 12969" transform="translate(-2871 3453)">
                <rect id="長方形_6082-14" data-name="長方形 6082" width="4.747" height="9" fill="#56b2e1"/>
                <rect id="長方形_6083-14" data-name="長方形 6083" width="1.566" height="9" transform="translate(8.434)" fill="#56b2e1"/>
                <rect id="長方形_6084-14" data-name="長方形 6084" width="4.747" height="6.08" transform="translate(4.571 1.46)" fill="#56b2e1"/>
              </g>
            </g>
            <g id="グループ_12974-3" data-name="グループ 12974" transform="translate(7371 24583)">
              <g id="グループ_9590-10" data-name="グループ 9590" transform="translate(-10264 -21127) rotate(180)">
                <rect id="長方形_6082-15" data-name="長方形 6082" width="4.747" height="9" fill="#56b2e1"/>
                <rect id="長方形_6083-15" data-name="長方形 6083" width="1.566" height="9" transform="translate(8.434)" fill="#56b2e1"/>
                <rect id="長方形_6084-15" data-name="長方形 6084" width="4.747" height="6.08" transform="translate(4.571 1.46)" fill="#56b2e1"/>
              </g>
            </g>
          </g>
          <g id="グループ_16339" data-name="グループ 16339" transform="translate(478 -438) rotate(90)">
            <g id="グループ_9590-11" data-name="グループ 9590">
              <rect id="長方形_6082-16" data-name="長方形 6082" width="4.747" height="9" fill="#56b2e1"/>
              <rect id="長方形_6083-16" data-name="長方形 6083" width="1.566" height="9" transform="translate(8.434)" fill="#56b2e1"/>
              <rect id="長方形_6084-16" data-name="長方形 6084" width="4.747" height="6.08" transform="translate(4.571 1.46)" fill="#56b2e1"/>
            </g>
          </g>
        </g>
      </g>
      <g id="グループ_17055" data-name="グループ 17055">
        <rect id="長方形_7973" data-name="長方形 7973" width="3" height="12" transform="translate(475 -510) rotate(180)" fill="#787878"/>
        <rect id="長方形_9009" data-name="長方形 9009" width="3" height="12" transform="translate(469 -560) rotate(180)" fill="#787878"/>
        <g id="グループ_16146" data-name="グループ 16146" transform="translate(-2856 -3360) rotate(-90)">
          <g id="グループ_16141" data-name="グループ 16141" transform="translate(-2168.332 3981.61) rotate(180)">
            <path id="パス_3163-4" data-name="パス 3163" d="M643,638.262h.438v.439a.189.189,0,0,0,.378,0v-.439h.437a.19.19,0,0,0,0-.379h-.437v-.439a.189.189,0,0,0-.378,0v.439H643a.189.189,0,1,0,0,.379Z" transform="translate(-0.87 -0.45)" fill="#56b2e1"/>
            <path id="パス_3164-4" data-name="パス 3164" d="M644.254,677.774h-.437v-.439a.189.189,0,1,0-.378,0v.439H643a.19.19,0,0,0,0,.379h.438v.439a.189.189,0,1,0,.378,0v-.439h.437a.19.19,0,0,0,0-.379Z" transform="translate(-0.87 -11.367)" fill="#56b2e1"/>
            <path id="パス_3165-4" data-name="パス 3165" d="M667.631,638.262h.438v.439a.188.188,0,0,0,.377,0v-.439h.438a.19.19,0,0,0,0-.379h-.438v-.439a.189.189,0,0,0-.377,0v.439h-.438a.189.189,0,1,0,0,.379Z" transform="translate(-7.679 -0.45)" fill="#56b2e1"/>
            <path id="パス_3166-4" data-name="パス 3166" d="M663.668,638.162a.538.538,0,0,0-.537-.539h-.548a1.963,1.963,0,0,0-1.085-1.8,2.021,2.021,0,0,0-2.926,1.8H644.764a1.963,1.963,0,0,0-1.085-1.8,2.021,2.021,0,0,0-2.926,1.8H640.2a.538.538,0,0,0-.537.539v27.9a.538.538,0,0,0,.537.539h.548c0-.042.01-.081.013-.123,0,.041-.013.081-.013.123a2.005,2.005,0,0,0,4.01,0c0-.042-.009-.081-.012-.123,0,.041.012.081.012.123h13.809a1.965,1.965,0,0,0,1.085,1.8,2.021,2.021,0,0,0,2.926-1.8h.548a.538.538,0,0,0,.537-.539Zm-3.091-1.825a1.287,1.287,0,1,1-1.281,1.286,1.287,1.287,0,0,1,1.281-1.286Zm-17.818,0a1.287,1.287,0,1,1-1.282,1.286,1.287,1.287,0,0,1,1.282-1.286Zm-1.847,29.478a2,2,0,0,1,.378-.577,2,2,0,0,0-.378.576Zm1.847,2.069a1.287,1.287,0,1,1,1.281-1.286,1.287,1.287,0,0,1-1.281,1.286Zm-1.417-2.709a2,2,0,0,1,1.014-.549,2,2,0,0,0-1.015.548Zm1.821-.549a2,2,0,0,1,1.014.549,2,2,0,0,0-1.015-.55Zm1.065.612a1.993,1.993,0,0,1,.378.577,1.994,1.994,0,0,0-.379-.578Zm2.6-1.493-4.261-4.892V645.522l4.261-4.892h9.689l4.261,4.892v13.331l-4.261,4.892Zm13.754,4.139a.888.888,0,1,0-.005,0Z" fill="#56b2e1"/>
            <path id="パス_3167-4" data-name="パス 3167" d="M668.883,677.774h-.438v-.44a.189.189,0,0,0-.377,0v.44h-.438a.19.19,0,0,0,0,.379h.438v.439a.188.188,0,0,0,.377,0v-.439h.438a.19.19,0,0,0,0-.379Z" transform="translate(-7.679 -11.367)" fill="#56b2e1"/>
          </g>
          <g id="グループ_9590-12" data-name="グループ 9590" transform="translate(-2809 3319)">
            <rect id="長方形_6082-17" data-name="長方形 6082" width="4.747" height="9" fill="#56b2e1"/>
            <rect id="長方形_6083-17" data-name="長方形 6083" width="1.566" height="9" transform="translate(8.434)" fill="#56b2e1"/>
            <rect id="長方形_6084-17" data-name="長方形 6084" width="4.747" height="6.08" transform="translate(4.571 1.46)" fill="#56b2e1"/>
          </g>
          <g id="グループ_12969-6" data-name="グループ 12969" transform="translate(-2809 3331)">
            <rect id="長方形_6082-18" data-name="長方形 6082" width="4.747" height="9" fill="#56b2e1"/>
            <rect id="長方形_6083-18" data-name="長方形 6083" width="1.566" height="9" transform="translate(8.434)" fill="#56b2e1"/>
            <rect id="長方形_6084-18" data-name="長方形 6084" width="4.747" height="6.08" transform="translate(4.571 1.46)" fill="#56b2e1"/>
          </g>
          <g id="グループ_12974-4" data-name="グループ 12974" transform="translate(7433 24461)">
            <g id="グループ_9590-13" data-name="グループ 9590" transform="translate(-10264 -21127) rotate(180)">
              <rect id="長方形_6082-19" data-name="長方形 6082" width="4.747" height="9" fill="#56b2e1"/>
              <rect id="長方形_6083-19" data-name="長方形 6083" width="1.566" height="9" transform="translate(8.434)" fill="#56b2e1"/>
              <rect id="長方形_6084-19" data-name="長方形 6084" width="4.747" height="6.08" transform="translate(4.571 1.46)" fill="#56b2e1"/>
            </g>
          </g>
        </g>
        <g id="グループ_16340" data-name="グループ 16340" transform="translate(469 -505) rotate(-90)">
          <g id="グループ_9590-14" data-name="グループ 9590">
            <rect id="長方形_6082-20" data-name="長方形 6082" width="4.747" height="9" fill="#56b2e1"/>
            <rect id="長方形_6083-20" data-name="長方形 6083" width="1.566" height="9" transform="translate(8.434)" fill="#56b2e1"/>
            <rect id="長方形_6084-20" data-name="長方形 6084" width="4.747" height="6.08" transform="translate(4.571 1.46)" fill="#56b2e1"/>
          </g>
        </g>
        <g id="グループ_16341" data-name="グループ 16341" transform="translate(472 -576) rotate(90)">
          <g id="グループ_9590-15" data-name="グループ 9590">
            <rect id="長方形_6082-21" data-name="長方形 6082" width="4.747" height="9" fill="#56b2e1"/>
            <rect id="長方形_6083-21" data-name="長方形 6083" width="1.566" height="9" transform="translate(8.434)" fill="#56b2e1"/>
            <rect id="長方形_6084-21" data-name="長方形 6084" width="4.747" height="6.08" transform="translate(4.571 1.46)" fill="#56b2e1"/>
          </g>
        </g>
      </g>
      <text id="_分配器" data-name=" 分配器" transform="translate(317.432 -291)" font-size="14" font-family="SegoeUI, Segoe UI"><tspan x="0" y="0"> </tspan><tspan y="0" font-family="YuGothicUI-Regular, Yu Gothic UI">分配器</tspan></text>
      <text id="_分配器-2" data-name=" 分配器" transform="translate(264.432 -376)" font-size="14" font-family="SegoeUI, Segoe UI"><tspan x="0" y="0"> </tspan><tspan y="0" font-family="YuGothicUI-Regular, Yu Gothic UI">分配器</tspan></text>
      <text id="_分配器-3" data-name=" 分配器" transform="translate(283.432 -573)" font-size="14" font-family="SegoeUI, Segoe UI"><tspan x="0" y="0"> </tspan><tspan y="0" font-family="YuGothicUI-Regular, Yu Gothic UI">分配器</tspan></text>
      <text id="_分配器-4" data-name=" 分配器" transform="translate(494.432 -534)" font-size="14" font-family="SegoeUI, Segoe UI"><tspan x="0" y="0"> </tspan><tspan y="0" font-family="YuGothicUI-Regular, Yu Gothic UI">分配器</tspan></text>
    </g>
    <g id="グループ_17084" data-name="グループ 17084" transform="translate(-113.179 -202)">
      <g id="グループ_13001" data-name="グループ 13001" transform="translate(370.823 24) rotate(180)">
        <g id="グループ_12970" data-name="グループ 12970" transform="translate(7.554 19.5) rotate(180)">
          <g id="グループ_9590-16" data-name="グループ 9590">
            <rect id="長方形_6082-22" data-name="長方形 6082" width="3.586" height="6" fill="#56b2e1"/>
            <rect id="長方形_6083-22" data-name="長方形 6083" width="1.183" height="6" transform="translate(6.371)" fill="#56b2e1"/>
            <rect id="長方形_6084-22" data-name="長方形 6084" width="3.586" height="4.053" transform="translate(3.453 0.973)" fill="#56b2e1"/>
          </g>
          <g id="グループ_12969-7" data-name="グループ 12969" transform="translate(0 9)">
            <rect id="長方形_6082-23" data-name="長方形 6082" width="3.586" height="6" fill="#56b2e1"/>
            <rect id="長方形_6083-23" data-name="長方形 6083" width="1.183" height="6" transform="translate(6.371)" fill="#56b2e1"/>
            <rect id="長方形_6084-23" data-name="長方形 6084" width="3.586" height="4.053" transform="translate(3.453 0.973)" fill="#56b2e1"/>
          </g>
        </g>
        <g id="グループ_12968-2" data-name="グループ 12968" transform="translate(24.928 24) rotate(180)">
          <path id="パス_3163-5" data-name="パス 3163" d="M.138.733H.46v.32a.139.139,0,1,0,.278,0V.733h.321a.138.138,0,1,0,0-.275H.738V.138a.139.139,0,0,0-.278,0v.32H.138a.138.138,0,1,0,0,.275Z" transform="translate(1.674 0.869)" fill="#56b2e1"/>
          <path id="パス_3164-5" data-name="パス 3164" d="M1.059.457H.738V.138a.139.139,0,0,0-.278,0V.457H.138a.138.138,0,1,0,0,.276H.46v.32a.139.139,0,1,0,.278,0V.733h.321a.138.138,0,1,0,0-.276Z" transform="translate(1.674 21.941)" fill="#56b2e1"/>
          <path id="パス_3165-5" data-name="パス 3165" d="M.139.733H.461v.32a.139.139,0,0,0,.277,0V.733H1.06a.138.138,0,1,0,0-.275H.738V.138a.139.139,0,0,0-.277,0v.32H.139a.138.138,0,1,0,0,.275Z" transform="translate(14.777 0.869)" fill="#56b2e1"/>
          <path id="パス_3166-5" data-name="パス 3166" d="M17.649,1.856a.393.393,0,0,0-.4-.392h-.4a1.426,1.426,0,0,0-.8-1.312A1.485,1.485,0,0,0,13.9,1.464H3.747A1.426,1.426,0,0,0,2.95.151,1.485,1.485,0,0,0,.8,1.464H.4a.393.393,0,0,0-.4.392V22.144a.393.393,0,0,0,.4.392H.8c0-.031.007-.059.009-.089,0,.03-.009.059-.009.089a1.475,1.475,0,0,0,2.949,0c0-.031-.007-.059-.009-.089,0,.03.009.059.009.089H13.9a1.427,1.427,0,0,0,.8,1.313,1.486,1.486,0,0,0,2.152-1.313h.4a.393.393,0,0,0,.4-.392ZM15.376.528a.936.936,0,1,1-.942.936.936.936,0,0,1,.942-.936Zm-13.1,0a.936.936,0,1,1-.943.936A.936.936,0,0,1,2.276.528ZM.915,21.967a1.456,1.456,0,0,1,.278-.419,1.456,1.456,0,0,0-.278.419Zm1.358,1.5a.933.933,0,1,1,.666-.271.936.936,0,0,1-.666.271ZM1.231,21.5a1.479,1.479,0,0,1,.745-.4,1.479,1.479,0,0,0-.745.4Zm1.339-.4a1.48,1.48,0,0,1,.745.4,1.48,1.48,0,0,0-.745-.4Zm.783.445a1.448,1.448,0,0,1,.278.419,1.448,1.448,0,0,0-.278-.417Zm1.909-1.086L2.128,16.9V7.2L5.262,3.651h7.125l3.134,3.558v9.7l-3.134,3.558Zm10.114,3.01a.937.937,0,1,1,.666-.272.936.936,0,0,1-.666.272Z" fill="#56b2e1"/>
          <path id="パス_3167-5" data-name="パス 3167" d="M1.06.457H.738V.137a.139.139,0,0,0-.277,0v.32H.139a.138.138,0,1,0,0,.276H.461v.319a.139.139,0,0,0,.277,0V.733H1.06a.138.138,0,1,0,0-.276Z" transform="translate(14.777 21.941)" fill="#56b2e1"/>
        </g>
        <g id="グループ_12974-5" data-name="グループ 12974" transform="translate(31.726 15) rotate(180)">
          <g id="グループ_9590-17" data-name="グループ 9590" transform="translate(7.554 6) rotate(180)">
            <rect id="長方形_6082-24" data-name="長方形 6082" width="3.586" height="6" fill="#56b2e1"/>
            <rect id="長方形_6083-24" data-name="長方形 6083" width="1.183" height="6" transform="translate(6.371)" fill="#56b2e1"/>
            <rect id="長方形_6084-24" data-name="長方形 6084" width="3.586" height="4.053" transform="translate(3.453 0.973)" fill="#56b2e1"/>
          </g>
        </g>
      </g>
      <text id="_分配器もしくは光対応_新4K8K衛星放送アダプター" data-name=" 分配器もしくは光対応 新4K8K衛星放送アダプター" transform="translate(381.23 18)" font-size="14" font-family="SegoeUI, Segoe UI"><tspan x="0" y="0"> </tspan><tspan y="0" font-family="YuGothicUI-Regular, Yu Gothic UI">分配器もしくは光対応</tspan><tspan y="0" xml:space="preserve"> 4K8K</tspan><tspan y="0" font-family="YuGothicUI-Regular, Yu Gothic UI">衛星放送アダプター</tspan></text>
      <text id="_同軸ケーブル" data-name=" 同軸ケーブル" transform="translate(220.032 18)" font-size="14" font-family="SegoeUI, Segoe UI"><tspan x="0" y="0"> </tspan><tspan y="0" font-family="YuGothicUI-Regular, Yu Gothic UI">同軸ケーブル</tspan></text>
      <rect id="長方形_7946" data-name="長方形 7946" width="3" height="50" transform="translate(211.179 11) rotate(90)" fill="#787878"/>
      <text id="光ケーブル" transform="translate(58.6 18)" font-size="14" font-family="YuGothicUI-Regular, Yu Gothic UI"><tspan x="0" y="0">光ケーブル</tspan></text>
      <rect id="長方形_9045" data-name="長方形 9045" width="3" height="32" transform="translate(32.179 10.5) rotate(90)" fill="#f4ad16"/>
      <g id="グループ_16188" data-name="グループ 16188" transform="translate(50.359 7) rotate(90)">
        <g id="グループ_8213-2" data-name="グループ 8213" transform="translate(0.318 5.389)">
          <rect id="長方形_5229-2" data-name="長方形 5229" width="3.573" height="5.039" fill="#f4ad16"/>
          <rect id="長方形_5230-2" data-name="長方形 5230" width="3.573" height="5.039" transform="translate(9.405 5.039) rotate(180)" fill="#f4ad16"/>
        </g>
        <g id="グループ_8214-2" data-name="グループ 8214" transform="translate(0.641)">
          <rect id="長方形_5231-2" data-name="長方形 5231" width="0.868" height="5.039" transform="translate(2.382)" fill="#f4ad16"/>
          <rect id="長方形_5232-2" data-name="長方形 5232" width="0.868" height="5.039" transform="translate(1.191)" fill="#f4ad16"/>
          <rect id="長方形_5233-2" data-name="長方形 5233" width="0.868" height="5.039" fill="#f4ad16"/>
          <rect id="長方形_5234-2" data-name="長方形 5234" width="0.868" height="5.039" transform="translate(6.376 5.039) rotate(180)" fill="#f4ad16"/>
          <rect id="長方形_5235-2" data-name="長方形 5235" width="0.868" height="5.039" transform="translate(7.568 5.039) rotate(180)" fill="#f4ad16"/>
          <rect id="長方形_5236-2" data-name="長方形 5236" width="0.868" height="5.039" transform="translate(8.759 5.039) rotate(180)" fill="#f4ad16"/>
        </g>
        <rect id="長方形_5237-2" data-name="長方形 5237" width="0.868" height="7.875" transform="translate(4.586 3.133)" fill="#f4ad16"/>
        <rect id="長方形_5238-2" data-name="長方形 5238" width="10.095" height="6.179" transform="translate(0 10.778)" fill="#f4ad16"/>
        <path id="パス_2717-2" data-name="パス 2717" d="M4.758,1.83H.695L0,0H5.453Z" transform="translate(2.321 17.307)" fill="#f4ad16"/>
      </g>
    </g>
  </g>
</svg>
