<svg xmlns="http://www.w3.org/2000/svg" width="35.02" height="32" viewBox="0 0 35.02 32">
  <path id="area-icon" d="M-5176.414-142.456h-14.61a.748.748,0,0,1-.639-.379.888.888,0,0,1-.054-.789l5.6-13.449a.759.759,0,0,1,.693-.486h4.291a.8.8,0,0,1,.76.827.8.8,0,0,1-.76.827h-3.8l-1.125,2.7,16.383,4.152,5.76-4.093h0l-1.265-2.76h-4.164a.8.8,0,0,1-.761-.827.8.8,0,0,1,.761-.827h4.635a.76.76,0,0,1,.683.459l6.162,13.449a.891.891,0,0,1-.035.8.752.752,0,0,1-.647.391h-17.868Zm2.568-1.654h14.072l-3.458-7.544Zm-16,0h13.219l5.19-3.688-15.188-3.849a.566.566,0,0,1-.068-.032Zm14.035-8.457c-.664-.956-6.485-9.456-6.485-13.336,0-4.164,3.117-7.551,6.951-7.551s6.953,3.387,6.953,7.551h0c0,3.869-5.56,12.366-6.193,13.322l-.605.91Zm-4.964-13.336c0,2.524,3.576,8.435,5.557,11.423,1.9-3,5.3-8.9,5.3-11.423a5.686,5.686,0,0,0-5.43-5.9A5.685,5.685,0,0,0-5180.773-165.9Zm1.491.306a4.125,4.125,0,0,1,3.939-4.279,4.125,4.125,0,0,1,3.94,4.279,4.126,4.126,0,0,1-3.94,4.279A4.125,4.125,0,0,1-5179.282-165.6Zm1.521,0a2.531,2.531,0,0,0,2.418,2.626,2.531,2.531,0,0,0,2.417-2.626,2.531,2.531,0,0,0-2.417-2.626A2.532,2.532,0,0,0-5177.761-165.6Z" transform="translate(5192.293 173.955)" fill="#fff" stroke="rgba(0,0,0,0)" stroke-miterlimit="10" stroke-width="1"/>
</svg>
