<svg xmlns="http://www.w3.org/2000/svg" width="32" height="32" viewBox="0 0 32 32">
  <path id="discount-icon" d="M-4969.914-245l2.633-2.621.79.791a.591.591,0,0,0,.833,0,.586.586,0,0,0,0-.83l-.791-.791,2.314-2.315.792.793a.591.591,0,0,0,.81,0,.586.586,0,0,0,.02-.831l-.791-.791,2.315-2.315.792.792a.591.591,0,0,0,.818,0,.585.585,0,0,0,.011-.83l-.791-.792,2.63-2.629,19.618,19.611-2.63,2.631-.793-.793a.556.556,0,0,0-.414-.168.588.588,0,0,0-.416.172.585.585,0,0,0,0,.83l.79.792-2.313,2.314-.793-.791a.592.592,0,0,0-.819,0,.586.586,0,0,0-.011.83l.793.791-2.315,2.314-.793-.791a.591.591,0,0,0-.818,0,.586.586,0,0,0-.011.83l.791.791-2.631,2.63Zm18.418,13.117-1.6,1.591,2.8,2.8.539-.539a2.074,2.074,0,0,1-.006-2.359,2.093,2.093,0,0,1,2.9-.54l.249-.249a2.072,2.072,0,0,1-.006-2.361,2.093,2.093,0,0,1,2.9-.538l.25-.249a2.073,2.073,0,0,1-.371-1.177,2.084,2.084,0,0,1,2.082-2.085h.006a2.082,2.082,0,0,1,1.18.364l.543-.544-2.737-2.735-1.632,1.626-1.06-1.055,1.636-1.629-13.711-13.705-.539.539a2.072,2.072,0,0,1,.006,2.355,2.094,2.094,0,0,1-2.9.544l-.249.248a2.071,2.071,0,0,1,.006,2.359,2.093,2.093,0,0,1-2.9.54l-.25.249a2.073,2.073,0,0,1,.006,2.352,2.093,2.093,0,0,1-2.9.546l-.54.537,13.647,13.647,1.592-1.587Zm-.268-1.884,2.463-2.454,1.06,1.055-2.464,2.454Zm3.008-2.92,2.464-2.454,1.06,1.055-2.464,2.453Zm-7.307-1.524-1.339-10.242a.747.747,0,0,1,.639-.843.747.747,0,0,1,.84.642v.007l1.339,10.242a.746.746,0,0,1-.642.839.72.72,0,0,1-.091.006A.757.757,0,0,1-4956.062-238.214Zm-5.411-4.463a2.174,2.174,0,0,1,1.845-2.458,2.173,2.173,0,0,1,2.45,1.855,2.174,2.174,0,0,1-1.844,2.458,2.173,2.173,0,0,1-.3.021A2.177,2.177,0,0,1-4961.474-242.677Zm2.053-.975a.679.679,0,0,0-.576.767.679.679,0,0,0,.765.579.678.678,0,0,0,.577-.767.68.68,0,0,0-.67-.586A.692.692,0,0,0-4959.42-243.652Zm4.6.04a2.174,2.174,0,0,1,1.845-2.458,2.174,2.174,0,0,1,2.451,1.855,2.174,2.174,0,0,1-1.845,2.458,2.157,2.157,0,0,1-.3.021A2.177,2.177,0,0,1-4954.825-243.612Zm2.053-.975a.679.679,0,0,0-.576.767.68.68,0,0,0,.766.579.679.679,0,0,0,.576-.768.679.679,0,0,0-.67-.585A.716.716,0,0,0-4952.771-244.587Z" transform="translate(-225.385 4969.914) rotate(90)" fill="#0072bc"/>
</svg>
