<svg id="pct_02" xmlns="http://www.w3.org/2000/svg" width="920" height="547" viewBox="0 0 920 547">
  <g id="長方形_9015" data-name="長方形 9015" fill="#fff" stroke="#d0d0d0" stroke-width="1">
    <rect width="920" height="547" stroke="none"/>
    <rect x="0.5" y="0.5" width="919" height="546" fill="none"/>
  </g>
  <g id="グループ_16338" data-name="グループ 16338" transform="translate(364 143)">
    <rect id="長方形_9020" data-name="長方形 9020" width="180" height="163" fill="#efefef"/>
    <text id="_フレッツ光回線終端装置" data-name=" フレッツ光回線終端装置" transform="translate(11.411 87)" font-size="14" font-family="NotoSansCJKjp-Bold, Noto Sans CJK JP" font-weight="700"><tspan x="0" y="0" xml:space="preserve"> フレッツ光回線終端装置</tspan></text>
    <g id="グループ">
      <text id="_テレビ" data-name="（テレビ" transform="translate(8 111)" font-size="14" font-family="YuGothicUI-Regular, Yu Gothic UI"><tspan x="0" y="0">（テレビ</tspan></text>
      <text id="用回線終端装置" transform="translate(52 111)" font-size="14" font-family="YuGothicUI-Regular, Yu Gothic UI"><tspan x="0" y="0">用回線終端装置</tspan></text>
      <text id="内蔵" transform="translate(34.705 129)" font-size="14" font-family="YuGothicUI-Regular, Yu Gothic UI"><tspan x="0" y="0">内蔵</tspan></text>
      <text id="ONU" transform="translate(62.705 129)" font-size="14" font-family="SegoeUI, Segoe UI"><tspan x="0" y="0">ONU</tspan></text>
      <text id="一体型" transform="translate(93.705 129)" font-size="14" font-family="YuGothicUI-Regular, Yu Gothic UI"><tspan x="0" y="0">一体型</tspan></text>
      <text id="ルーター_" data-name="ルーター）" transform="translate(43.651 147)" font-size="14" font-family="YuGothicUI-Regular, Yu Gothic UI"><tspan x="0" y="0">ルーター）</tspan></text>
      <text id="_1" data-name="※1" transform="translate(97.651 147)" font-size="8.16" font-family="SegoeUISymbol, Segoe UI Symbol" baseline-shift="4.6626572075132104"><tspan x="0" y="0">※</tspan><tspan y="0" font-family="SegoeUI, Segoe UI">1</tspan></text>
    </g>
    <g id="グループ_16170" data-name="グループ 16170" transform="translate(77 12)">
      <g id="グループ_6534" data-name="グループ 6534">
        <rect id="長方形_4933" data-name="長方形 4933" width="21.539" height="37" transform="translate(3 8.119)" fill="#fff"/>
        <path id="パス_2170" data-name="パス 2170" d="M673.148,1465.77h-1.536v-4.106H649.288v4.106h-1.916a.588.588,0,0,0-.589.589v3.509a.589.589,0,0,0,.589.589h25.776a.588.588,0,0,0,.589-.589v-3.509a.588.588,0,0,0-.589-.589Z" transform="translate(-646.783 -1419.016)" fill="#787878"/>
        <path id="パス_2171" data-name="パス 2171" d="M673.047,1397.53a2.949,2.949,0,0,0-2.949-2.949H653.672a2.948,2.948,0,0,0-2.949,2.949v5.844h22.323Z" transform="translate(-648.219 -1394.58)" fill="#787878"/>
      </g>
      <path id="パス_2172" data-name="パス 2172" d="M673.047,1432.29h-3.21a.841.841,0,0,1,0-1.681h3.21v-1.748h-3.21a.841.841,0,0,1,0-1.681h3.21v-1.748h-3.21a.84.84,0,1,1,0-1.68h3.21V1422h-3.21a.84.84,0,1,1,0-1.68h3.21v-9.264H650.723v30.494h22.323Z" transform="translate(-648.219 -1400.581)" fill="#787878"/>
    </g>
  </g>
  <path id="パス_3817" data-name="パス 3817" d="M477.658,246.5H-82l18.842-58H451.559Z" transform="translate(402.342 -148.5)" fill="#e6e8ed"/>
  <rect id="長方形_9027" data-name="長方形 9027" width="15" height="231" transform="translate(333 98)" fill="#e6e8ed"/>
  <rect id="長方形_9038" data-name="長方形 9038" width="15" height="304" transform="translate(253 40)" fill="#e6e8ed"/>
  <g id="グループ_16167" data-name="グループ 16167" transform="translate(218 71)">
    <rect id="長方形_7887" data-name="長方形 7887" width="84" height="15" transform="translate(0 7)" fill="#e6e8ed"/>
    <rect id="長方形_7893" data-name="長方形 7893" width="84" height="15" transform="translate(0 36)" fill="#e6e8ed"/>
    <g id="グループ_12947" data-name="グループ 12947" transform="translate(7.746 43.554)">
      <rect id="長方形_7891" data-name="長方形 7891" width="10" height="46" transform="translate(36.071 39.598) rotate(-135)" fill="#e6e8ed"/>
      <rect id="長方形_7892" data-name="長方形 7892" width="10" height="46" transform="translate(0 7.071) rotate(-45)" fill="#e6e8ed"/>
    </g>
    <g id="グループ_12995" data-name="グループ 12995" transform="translate(8)">
      <rect id="長方形_7888" data-name="長方形 7888" width="15" height="15" fill="#e6e8ed"/>
      <rect id="長方形_7895" data-name="長方形 7895" width="15" height="15" transform="translate(0 29)" fill="#e6e8ed"/>
      <rect id="長方形_7889" data-name="長方形 7889" width="15" height="15" transform="translate(53)" fill="#e6e8ed"/>
      <rect id="長方形_7894" data-name="長方形 7894" width="15" height="15" transform="translate(53 29)" fill="#e6e8ed"/>
    </g>
  </g>
  <g id="グループ_16180" data-name="グループ 16180" transform="translate(654 143)">
    <rect id="長方形_9028" data-name="長方形 9028" width="180" height="163" fill="#efefef"/>
    <g id="グループ_16171" data-name="グループ 16171" transform="translate(62.727 35)">
      <g id="グループ_6505" data-name="グループ 6505">
        <path id="パス_2392" data-name="パス 2392" d="M1149.4,1592.84H1165a2.352,2.352,0,0,0,2.348-2.362v-26.494a2.357,2.357,0,0,0-2.348-2.362h-50.11a2.36,2.36,0,0,0-2.353,2.362v26.494a2.355,2.355,0,0,0,2.353,2.362Zm-9.455-1.314a.52.52,0,1,1-.005,0Zm24.246-2.724a.506.506,0,0,1-.506.506H1116.2a.507.507,0,0,1-.506-.506v-23.141a.506.506,0,0,1,.506-.506h47.482a.506.506,0,0,1,.506.506Z" transform="translate(-1112.536 -1561.625)" fill="#787878"/>
      </g>
      <g id="グループ_6506" data-name="グループ 6506" transform="translate(11.049 32.759)">
        <path id="パス_2393" data-name="パス 2393" d="M1129.58,1601.08h-.092l-.084.038-2.9,1.351a1.163,1.163,0,0,0,.981,2.109l5.8-2.706,1.7-.792h-5.407Z" transform="translate(-1125.843 -1601.076)" fill="#787878"/>
        <path id="パス_2394" data-name="パス 2394" d="M1163.87,1603.11a1.153,1.153,0,0,0-.609-.648l-2.977-1.347-.082-.037h-5.64l1.754.793,5.987,2.709a1.165,1.165,0,0,0,1.567-1.473Z" transform="translate(-1130.714 -1601.076)" fill="#787878"/>
      </g>
      <rect id="長方形_4834" data-name="長方形 4834" width="42.681" height="18.339" rx="1.455" transform="translate(6.065 6.438)" fill="#787878"/>
    </g>
    <g id="グループ-2" data-name="グループ">
      <text id="_デジタル" data-name=" デジタル" transform="translate(46.551 99)" font-size="14" font-family="NotoSansCJKjp-Bold, Noto Sans CJK JP" font-weight="700"><tspan x="0" y="0" xml:space="preserve"> デジタル</tspan></text>
      <text id="放送" transform="translate(105.551 99)" font-size="14" font-family="NotoSansCJKjp-Bold, Noto Sans CJK JP" font-weight="700"><tspan x="0" y="0">放送</tspan></text>
      <text id="対応" transform="translate(55 123)" font-size="14" font-family="NotoSansCJKjp-Bold, Noto Sans CJK JP" font-weight="700"><tspan x="0" y="0">対応</tspan></text>
      <text id="テレビ" transform="translate(83 123)" font-size="14" font-family="NotoSansCJKjp-Bold, Noto Sans CJK JP" font-weight="700"><tspan x="0" y="0">テレビ</tspan></text>
    </g>
  </g>
  <rect id="長方形_9016" data-name="長方形 9016" width="15" height="231" transform="translate(850 98)" fill="#e6e8ed"/>
  <rect id="長方形_9041" data-name="長方形 9041" width="150" height="144" transform="translate(40 40)" fill="#efefef"/>
  <rect id="長方形_9043" data-name="長方形 9043" width="150" height="144" transform="translate(40 200)" fill="#efefef" opacity="0.5"/>
  <rect id="長方形_9029" data-name="長方形 9029" width="532" height="15" transform="translate(333 329)" fill="#e6e8ed"/>
  <path id="pictogram_broadcaster" d="M21.108,41.455V28.241a1.261,1.261,0,0,0-1.257-1.265H11.264a1.263,1.263,0,0,0-1.257,1.265V41.455h-7.1A.915.915,0,0,1,2,40.536V12.147H2a.912.912,0,0,1,.91-.916H27.967a.913.913,0,0,1,.91.917V17.2H32.99l1.121-4.734a1.281,1.281,0,0,1,1.177-.927h.1C32.191,7.849,31.8,2.824,34.6,0l5.862,5.9,1.9-1.484a1.434,1.434,0,0,1,.362-1.383,1.415,1.415,0,0,1,2.009,0,1.439,1.439,0,0,1,0,2.024,1.408,1.408,0,0,1-1.243.4L42.139,7.59,48,13.494c-2.082,2.1-5.369,2.412-8.425,1.124l.4,2.582H47.09a.914.914,0,0,1,.91.917v22.42a.915.915,0,0,1-.91.918Zm17.33-15.787v4.269a.748.748,0,0,0,.745.75h4.241a.748.748,0,0,0,.745-.75V25.668a.748.748,0,0,0-.745-.751h-4.24a.75.75,0,0,0-.746.751Zm-7.558,0v4.269a.748.748,0,0,0,.745.75h4.239a.749.749,0,0,0,.747-.75V25.668h0a.748.748,0,0,0-.749-.75H31.626a.748.748,0,0,0-.745.75ZM.91,9.9A.916.916,0,0,1,0,8.979V5.81a.913.913,0,0,1,.91-.917H29.97a.913.913,0,0,1,.911.917V8.979a.916.916,0,0,1-.911.918Z" transform="translate(91 53)" fill="#787878" stroke="rgba(0,0,0,0)" stroke-miterlimit="10" stroke-width="1"/>
  <text id="_放送信号" data-name=" 放送信号" transform="translate(85.411 118)" font-size="14" font-family="NotoSansCJKjp-Bold, Noto Sans CJK JP" font-weight="700"><tspan x="0" y="0" xml:space="preserve"> 放送信号</tspan></text>
  <text id="_放送事業者_受信拠点_" data-name="（放送事業者 　受信拠点）" transform="translate(73 142)" font-size="14" font-family="YuGothicUI-Regular, Yu Gothic UI"><tspan x="0" y="0">（放送事業者</tspan><tspan y="0" font-family="SegoeUI, Segoe UI"></tspan><tspan font-family="SegoeUI, Segoe UI"><tspan x="0" y="21"> </tspan><tspan y="21" font-family="YuGothicUI-Regular, Yu Gothic UI">受信拠点）</tspan></tspan></text>
  <text id="_インターネット" data-name=" インターネット" transform="translate(64.411 309.67)" font-size="14" font-family="NotoSansCJKjp-Bold, Noto Sans CJK JP" font-weight="700"><tspan x="0" y="0" xml:space="preserve"> インターネット</tspan></text>
  <g id="グループ_12936" data-name="グループ 12936" transform="translate(87 230)">
    <g id="グループ_6674" data-name="グループ 6674">
      <g id="グループ_6510" data-name="グループ 6510">
        <path id="パス_2143" data-name="パス 2143" d="M750.732,1224.5h.031a1.325,1.325,0,0,0,1.325-1.269,24.076,24.076,0,0,1,9.946-18.41,23.806,23.806,0,0,1,14.17-4.642,24.534,24.534,0,0,1,2.876.171l-1.1.62a1.326,1.326,0,0,0,.651,2.482,1.3,1.3,0,0,0,.649-.17l4.272-2.4a1.344,1.344,0,0,0,.152-.1,1.258,1.258,0,0,0,.142-.127,1.015,1.015,0,0,0,.138-.168l.081-.129.031-.062.056-.149.023-.077.011-.025.022-.167.007-.094v-.112a.859.859,0,0,0-.023-.2l-.046-.182-.054-.116a1.461,1.461,0,0,0-.08-.154l-2.48-3.9a1.326,1.326,0,1,0-2.239,1.421l.811,1.276a26.99,26.99,0,0,0-3.9-.285,26.439,26.439,0,0,0-15.735,5.156,26.719,26.719,0,0,0-11.028,20.434,1.319,1.319,0,0,0,.346.953,1.339,1.339,0,0,0,.945.43Z" transform="translate(-748.104 -1194.495)" fill="#787878"/>
        <path id="パス_2144" data-name="パス 2144" d="M789.823,1243.54a1.322,1.322,0,0,0-.706.2,23.847,23.847,0,0,1-12.753,3.649,24.4,24.4,0,0,1-8.935-1.687,23.693,23.693,0,0,1-13.3-12.829l.994.611a1.326,1.326,0,1,0,1.389-2.26l-4.181-2.565a1.494,1.494,0,0,0-.18-.089l-.063-.025a1.708,1.708,0,0,0-.17-.046l-.042-.009-.108-.012c-.044,0-.087-.006-.131-.006a1.3,1.3,0,0,0-.332.044,1.244,1.244,0,0,0-.269.106,1.294,1.294,0,0,0-.2.13l-.069.06a1.332,1.332,0,0,0-.157.167l-.1.147-2.224,4.1a1.323,1.323,0,0,0,.533,1.8,1.3,1.3,0,0,0,.632.161,1.327,1.327,0,0,0,1.166-.693l.747-1.378a26.288,26.288,0,0,0,15.1,15.056,27.025,27.025,0,0,0,9.9,1.869,26.5,26.5,0,0,0,14.168-4.055,1.327,1.327,0,0,0-.708-2.449Z" transform="translate(-748.12 -1194.049)" fill="#787878"/>
        <path id="パス_2145" data-name="パス 2145" d="M798.435,1240.16l-1.588.043a26.386,26.386,0,0,0,5.615-19.677A26.684,26.684,0,0,0,790,1200.75a1.326,1.326,0,0,0-1.394,2.256,24.044,24.044,0,0,1,11.226,17.825,23.785,23.785,0,0,1-4.573,17.087l.032-1.165A1.325,1.325,0,0,0,794,1235.4h-.07a1.322,1.322,0,0,0-1.3,1.292l-.131,4.9a1.565,1.565,0,0,0,.014.2l.009.066a1.717,1.717,0,0,0,.071.246,1.319,1.319,0,0,0,.294.446,1.411,1.411,0,0,0,.2.167l.028.019.193.1a1.289,1.289,0,0,0,.157.051l.1.028a1.429,1.429,0,0,0,.253.023h.008l4.652-.125a1.326,1.326,0,1,0-.054-2.652Z" transform="translate(-747.597 -1194.416)" fill="#787878"/>
        <g id="グループ_5294" data-name="グループ 5294" transform="translate(9.807 11.011)">
          <g id="グループ_5263" data-name="グループ 5263" transform="translate(24.92 1.008)">
            <g id="グループ_5262" data-name="グループ 5262">
              <path id="パス_2146" data-name="パス 2146" d="M782.4,1206.36a24.354,24.354,0,0,1,2.022,4.912,16.458,16.458,0,0,0,3.023-2.222,18.588,18.588,0,0,0-5.045-2.69Z" transform="translate(-782.398 -1206.358)" fill="#787878"/>
            </g>
          </g>
          <g id="グループ_5265" data-name="グループ 5265" transform="translate(11.01 9.036)">
            <g id="グループ_5264" data-name="グループ 5264">
              <path id="パス_2147" data-name="パス 2147" d="M769.641,1214.28a45.151,45.151,0,0,0-.973,8.594h6.621V1215.5h0a18.856,18.856,0,0,1-5.648-1.22Z" transform="translate(-768.668 -1214.282)" fill="#787878"/>
            </g>
          </g>
          <g id="グループ_5267" data-name="グループ 5267" transform="translate(11.01 19.829)">
            <g id="グループ_5266" data-name="グループ 5266">
              <path id="パス_2148" data-name="パス 2148" d="M768.668,1224.94a45.173,45.173,0,0,0,.972,8.589,18.712,18.712,0,0,1,5.649-1.215v-7.375Z" transform="translate(-768.668 -1224.935)" fill="#787878"/>
            </g>
          </g>
          <g id="グループ_5269" data-name="グループ 5269" transform="translate(27.521 5.125)">
            <g id="グループ_5268" data-name="グループ 5268">
              <path id="パス_2149" data-name="パス 2149" d="M789.1,1210.42a18.916,18.916,0,0,1-4.132,2.981,47.013,47.013,0,0,1,1.13,9.524h8.81a18.639,18.639,0,0,0-5.808-12.505Z" transform="translate(-784.965 -1210.422)" fill="#787878"/>
            </g>
          </g>
          <g id="グループ_5271" data-name="グループ 5271" transform="translate(19.83 19.829)">
            <g id="グループ_5270" data-name="グループ 5270">
              <path id="パス_2150" data-name="パス 2150" d="M777.374,1224.94v7.375a18.712,18.712,0,0,1,5.649,1.215,45.2,45.2,0,0,0,.972-8.589Z" transform="translate(-777.374 -1224.935)" fill="#787878"/>
            </g>
          </g>
          <g id="グループ_5273" data-name="グループ 5273" transform="translate(27.522 19.829)">
            <g id="グループ_5272" data-name="グループ 5272">
              <path id="パス_2151" data-name="パス 2151" d="M786.095,1224.94a46.9,46.9,0,0,1-1.129,9.518,18.7,18.7,0,0,1,4.137,2.981,18.643,18.643,0,0,0,5.8-12.5Z" transform="translate(-784.966 -1224.935)" fill="#787878"/>
            </g>
          </g>
          <g id="グループ_5275" data-name="グループ 5275" transform="translate(0 5.125)">
            <g id="グループ_5274" data-name="グループ 5274">
              <path id="パス_2152" data-name="パス 2152" d="M763.61,1210.42c-.117.111-.232.223-.346.338a18.624,18.624,0,0,0-5.463,12.167h8.81a47.035,47.035,0,0,1,1.13-9.526,18.838,18.838,0,0,1-4.131-2.979Z" transform="translate(-757.801 -1210.422)" fill="#787878"/>
            </g>
          </g>
          <g id="グループ_5277" data-name="グループ 5277" transform="translate(0 19.829)">
            <g id="グループ_5276" data-name="グループ 5276">
              <path id="パス_2153" data-name="パス 2153" d="M766.611,1224.94H757.8a18.641,18.641,0,0,0,5.8,12.5,18.682,18.682,0,0,1,4.137-2.981,47.037,47.037,0,0,1-1.126-9.519Z" transform="translate(-757.801 -1224.935)" fill="#787878"/>
            </g>
          </g>
          <g id="グループ_5279" data-name="グループ 5279" transform="translate(19.83 9.038)">
            <g id="グループ_5278" data-name="グループ 5278">
              <path id="パス_2154" data-name="パス 2154" d="M783.022,1214.28a18.5,18.5,0,0,1-5.648,1.22v7.373h6.621A45.131,45.131,0,0,0,783.022,1214.28Z" transform="translate(-777.374 -1214.284)" fill="#787878"/>
            </g>
          </g>
          <g id="グループ_5281" data-name="グループ 5281" transform="translate(19.83 29.406)">
            <g id="グループ_5280" data-name="グループ 5280">
              <path id="パス_2155" data-name="パス 2155" d="M777.374,1234.39v8.054a18.823,18.823,0,0,0,1.88-.2,18.566,18.566,0,0,0,3.227-6.688,16.542,16.542,0,0,0-5.107-1.166Z" transform="translate(-777.374 -1234.388)" fill="#787878"/>
            </g>
          </g>
          <g id="グループ_5283" data-name="グループ 5283" transform="translate(24.92 31.54)">
            <g id="グループ_5282" data-name="グループ 5282">
              <path id="パス_2156" data-name="パス 2156" d="M784.42,1236.49a24.4,24.4,0,0,1-2.022,4.912,18.574,18.574,0,0,0,5.049-2.693,16.485,16.485,0,0,0-3.027-2.219Z" transform="translate(-782.398 -1236.494)" fill="#787878"/>
            </g>
          </g>
          <g id="グループ_5285" data-name="グループ 5285" transform="translate(12.523 29.406)">
            <g id="グループ_5284" data-name="グループ 5284">
              <path id="パス_2157" data-name="パス 2157" d="M770.162,1235.55a18.553,18.553,0,0,0,3.227,6.688,18.567,18.567,0,0,0,1.88.2v-8.054a16.539,16.539,0,0,0-5.107,1.166Z" transform="translate(-770.162 -1234.388)" fill="#787878"/>
            </g>
          </g>
          <g id="グループ_5287" data-name="グループ 5287" transform="translate(7.498 1.008)">
            <g id="グループ_5286" data-name="グループ 5286">
              <path id="パス_2158" data-name="パス 2158" d="M765.2,1209.05a16.743,16.743,0,0,0,3.022,2.218,24.38,24.38,0,0,1,2.02-4.907,18.566,18.566,0,0,0-5.042,2.689Z" transform="translate(-765.202 -1206.358)" fill="#787878"/>
            </g>
          </g>
          <g id="グループ_5289" data-name="グループ 5289" transform="translate(12.525)">
            <g id="グループ_5288" data-name="グループ 5288">
              <path id="パス_2159" data-name="パス 2159" d="M773.389,1205.57a18.533,18.533,0,0,0-3.225,6.683,16.656,16.656,0,0,0,5.1,1.167v-8.052A18.044,18.044,0,0,0,773.389,1205.57Z" transform="translate(-770.164 -1205.363)" fill="#787878"/>
            </g>
          </g>
          <g id="グループ_5291" data-name="グループ 5291" transform="translate(19.83)">
            <g id="グループ_5290" data-name="グループ 5290">
              <path id="パス_2160" data-name="パス 2160" d="M779.254,1205.57a18.893,18.893,0,0,0-1.88-.2v8.052a16.473,16.473,0,0,0,5.107-1.161A18.549,18.549,0,0,0,779.254,1205.57Z" transform="translate(-777.374 -1205.363)" fill="#787878"/>
            </g>
          </g>
          <g id="グループ_5293" data-name="グループ 5293" transform="translate(7.493 31.54)">
            <g id="グループ_5292" data-name="グループ 5292">
              <path id="パス_2161" data-name="パス 2161" d="M768.222,1236.49a16.449,16.449,0,0,0-3.025,2.219,18.55,18.55,0,0,0,5.047,2.693A24.43,24.43,0,0,1,768.222,1236.49Z" transform="translate(-765.197 -1236.494)" fill="#787878"/>
            </g>
          </g>
        </g>
      </g>
    </g>
  </g>
  <g id="グループ_17152" data-name="グループ 17152" transform="translate(190 113)">
    <rect id="長方形_9034" data-name="長方形 9034" width="3" height="45" transform="translate(164 99) rotate(90)" fill="#f4ad16"/>
    <rect id="長方形_9039" data-name="長方形 9039" width="3" height="161" transform="translate(23 161) rotate(180)" fill="#f4ad16"/>
    <rect id="長方形_9035" data-name="長方形 9035" width="3" height="102" transform="translate(122 102) rotate(180)" fill="#f4ad16"/>
    <rect id="長方形_9036" data-name="長方形 9036" width="3" height="122" transform="translate(122) rotate(90)" fill="#f4ad16"/>
    <rect id="長方形_9040" data-name="長方形 9040" width="3" height="23" transform="translate(23 158) rotate(90)" fill="#f4ad16"/>
    <g id="グループ_16173" data-name="グループ 16173" transform="translate(160 106) rotate(-90)">
      <g id="グループ_8213" data-name="グループ 8213" transform="translate(0.346 8.646)">
        <rect id="長方形_5229" data-name="長方形 5229" width="3.894" height="5.003" fill="#f4ad16"/>
        <rect id="長方形_5230" data-name="長方形 5230" width="3.894" height="5.003" transform="translate(10.248 5.003) rotate(180)" fill="#f4ad16"/>
      </g>
      <g id="グループ_8214" data-name="グループ 8214" transform="translate(0.698 13.997)">
        <rect id="長方形_5231" data-name="長方形 5231" width="0.946" height="5.003" transform="translate(2.596)" fill="#f4ad16"/>
        <rect id="長方形_5232" data-name="長方形 5232" width="0.946" height="5.003" transform="translate(1.298)" fill="#f4ad16"/>
        <rect id="長方形_5233" data-name="長方形 5233" width="0.946" height="5.003" fill="#f4ad16"/>
        <rect id="長方形_5234" data-name="長方形 5234" width="0.946" height="5.003" transform="translate(6.948 5.003) rotate(180)" fill="#f4ad16"/>
        <rect id="長方形_5235" data-name="長方形 5235" width="0.946" height="5.003" transform="translate(8.246 5.003) rotate(180)" fill="#f4ad16"/>
        <rect id="長方形_5236" data-name="長方形 5236" width="0.946" height="5.003" transform="translate(9.544 5.003) rotate(180)" fill="#f4ad16"/>
      </g>
      <rect id="長方形_5237" data-name="長方形 5237" width="0.946" height="7.819" transform="translate(4.997 8.071)" fill="#f4ad16"/>
      <rect id="長方形_5238" data-name="長方形 5238" width="11" height="6.135" transform="translate(0 2.164)" fill="#f4ad16"/>
      <path id="パス_2717" data-name="パス 2717" d="M5.185,0H.757L0,1.817H5.942Z" transform="translate(2.529)" fill="#f4ad16"/>
    </g>
  </g>
  <g id="グループ_17153" data-name="グループ 17153" transform="translate(541 197)">
    <g id="グループ_16169" data-name="グループ 16169" transform="translate(109 6)">
      <g id="グループ_9590" data-name="グループ 9590" transform="translate(10 21) rotate(180)">
        <rect id="長方形_6082" data-name="長方形 6082" width="4.747" height="9" fill="#787878"/>
        <rect id="長方形_6083" data-name="長方形 6083" width="1.566" height="9" transform="translate(8.434)" fill="#787878"/>
        <rect id="長方形_6084" data-name="長方形 6084" width="4.747" height="6.08" transform="translate(4.571 1.46)" fill="#787878"/>
      </g>
      <g id="グループ_12969" data-name="グループ 12969" transform="translate(10 9) rotate(180)">
        <rect id="長方形_6082-2" data-name="長方形 6082" width="4.747" height="9" fill="#787878"/>
        <rect id="長方形_6083-2" data-name="長方形 6083" width="1.566" height="9" transform="translate(8.434)" fill="#787878"/>
        <rect id="長方形_6084-2" data-name="長方形 6084" width="4.747" height="6.08" transform="translate(4.571 1.46)" fill="#787878"/>
      </g>
    </g>
    <g id="グループ_16164" data-name="グループ 16164" transform="translate(0 12)">
      <g id="グループ_9590-2" data-name="グループ 9590">
        <rect id="長方形_6082-3" data-name="長方形 6082" width="4.747" height="9" fill="#787878"/>
        <rect id="長方形_6083-3" data-name="長方形 6083" width="1.566" height="9" transform="translate(8.434)" fill="#787878"/>
        <rect id="長方形_6084-3" data-name="長方形 6084" width="4.747" height="6.08" transform="translate(4.571 1.46)" fill="#787878"/>
      </g>
    </g>
    <g id="グループ_16181" data-name="グループ 16181" transform="translate(10)">
      <rect id="長方形_9031" data-name="長方形 9031" width="3" height="34" transform="translate(34 15) rotate(90)" fill="#787878"/>
      <rect id="長方形_9032" data-name="長方形 9032" width="3" height="33" transform="translate(99 21) rotate(90)" fill="#787878"/>
      <rect id="長方形_9033" data-name="長方形 9033" width="3" height="33" transform="translate(99 9) rotate(90)" fill="#787878"/>
      <g id="グループ_16172" data-name="グループ 16172" transform="translate(34)">
        <g id="グループ_16142" data-name="グループ 16142" transform="translate(33 33) rotate(180)">
          <path id="パス_3163" data-name="パス 3163" d="M.188,1.008H.626v.439a.189.189,0,1,0,.378,0V1.008H1.44a.19.19,0,0,0,0-.379H1V.19a.189.189,0,1,0-.378,0V.629H.188a.19.19,0,1,0,0,.379Z" transform="translate(2.276 1.195)" fill="#787878"/>
          <path id="パス_3164" data-name="パス 3164" d="M1.44.628H1V.19a.189.189,0,1,0-.378,0V.628H.188a.19.19,0,0,0,0,.379H.626v.439a.189.189,0,1,0,.378,0V1.007H1.44a.19.19,0,0,0,0-.379Z" transform="translate(2.276 30.169)" fill="#787878"/>
          <path id="パス_3165" data-name="パス 3165" d="M.189,1.008H.627v.439a.188.188,0,0,0,.377,0V1.008h.438a.19.19,0,0,0,0-.379H1V.19a.188.188,0,1,0-.377,0V.629H.189a.19.19,0,1,0,0,.379Z" transform="translate(20.095 1.195)" fill="#787878"/>
          <path id="パス_3166" data-name="パス 3166" d="M24,2.552a.538.538,0,0,0-.537-.539h-.548A1.963,1.963,0,0,0,21.83.208a2.021,2.021,0,0,0-2.926,1.8H5.1A1.963,1.963,0,0,0,4.011.208a2.021,2.021,0,0,0-2.926,1.8H.537A.538.538,0,0,0,0,2.552v27.9a.538.538,0,0,0,.537.539h.548c0-.042.01-.081.013-.123,0,.041-.013.081-.013.123a2.005,2.005,0,0,0,4.01,0c0-.042-.009-.081-.012-.123,0,.041.012.081.012.123H18.9a1.965,1.965,0,0,0,1.085,1.8,2.021,2.021,0,0,0,2.926-1.8h.548A.538.538,0,0,0,24,30.448ZM20.909.726a1.287,1.287,0,1,1-1.281,1.286A1.287,1.287,0,0,1,20.909.726ZM3.091.726A1.287,1.287,0,1,1,1.809,2.013,1.287,1.287,0,0,1,3.091.726ZM1.244,30.2a2,2,0,0,1,.378-.577,2,2,0,0,0-.378.577Zm1.847,2.069a1.287,1.287,0,1,1,1.281-1.286,1.287,1.287,0,0,1-1.281,1.286ZM1.673,29.564a2,2,0,0,1,1.014-.549,2,2,0,0,0-1.014.549Zm1.821-.549a2,2,0,0,1,1.014.549,2,2,0,0,0-1.013-.549Zm1.065.612a1.993,1.993,0,0,1,.378.577A1.993,1.993,0,0,0,4.559,29.627Zm2.6-1.493L2.894,23.243V9.911L7.155,5.02h9.689L21.1,9.912V23.243l-4.261,4.892Zm13.754,4.139a1.285,1.285,0,1,1,.906-.376,1.287,1.287,0,0,1-.906.376Z" fill="#787878"/>
          <path id="パス_3167" data-name="パス 3167" d="M1.441.628H1V.189a.188.188,0,1,0-.377,0v.44H.189a.19.19,0,0,0,0,.379H.627v.439a.188.188,0,0,0,.377,0v-.44h.438a.19.19,0,0,0,0-.379Z" transform="translate(20.095 30.169)" fill="#787878"/>
        </g>
        <g id="グループ_16151" data-name="グループ 16151" transform="translate(32 6)">
          <g id="グループ_9590-3" data-name="グループ 9590">
            <rect id="長方形_6082-4" data-name="長方形 6082" width="4.747" height="9" fill="#787878"/>
            <rect id="長方形_6083-4" data-name="長方形 6083" width="1.566" height="9" transform="translate(8.434)" fill="#787878"/>
            <rect id="長方形_6084-4" data-name="長方形 6084" width="4.747" height="6.08" transform="translate(4.571 1.46)" fill="#787878"/>
          </g>
          <g id="グループ_12969-2" data-name="グループ 12969" transform="translate(0 12)">
            <rect id="長方形_6082-5" data-name="長方形 6082" width="4.747" height="9" fill="#787878"/>
            <rect id="長方形_6083-5" data-name="長方形 6083" width="1.566" height="9" transform="translate(8.434)" fill="#787878"/>
            <rect id="長方形_6084-5" data-name="長方形 6084" width="4.747" height="6.08" transform="translate(4.571 1.46)" fill="#787878"/>
          </g>
        </g>
        <g id="グループ_12974" data-name="グループ 12974" transform="translate(0 12)">
          <g id="グループ_9590-4" data-name="グループ 9590" transform="translate(10 9) rotate(180)">
            <rect id="長方形_6082-6" data-name="長方形 6082" width="4.747" height="9" fill="#787878"/>
            <rect id="長方形_6083-6" data-name="長方形 6083" width="1.566" height="9" transform="translate(8.434)" fill="#787878"/>
            <rect id="長方形_6084-6" data-name="長方形 6084" width="4.747" height="6.08" transform="translate(4.571 1.46)" fill="#787878"/>
          </g>
        </g>
      </g>
    </g>
    <text id="分配器" transform="translate(44 53)" font-size="14" font-family="YuGothicUI-Regular, Yu Gothic UI"><tspan x="0" y="0">分配器</tspan></text>
  </g>
  <g id="グループ_17083" data-name="グループ 17083" transform="translate(110 483)">
    <g id="グループ_13001" data-name="グループ 13001" transform="translate(370.644 24) rotate(180)">
      <g id="グループ_12970" data-name="グループ 12970" transform="translate(7.554 19.5) rotate(180)">
        <g id="グループ_9590-5" data-name="グループ 9590">
          <rect id="長方形_6082-7" data-name="長方形 6082" width="3.586" height="6" fill="#787878"/>
          <rect id="長方形_6083-7" data-name="長方形 6083" width="1.183" height="6" transform="translate(6.371)" fill="#787878"/>
          <rect id="長方形_6084-7" data-name="長方形 6084" width="3.586" height="4.053" transform="translate(3.453 0.973)" fill="#787878"/>
        </g>
        <g id="グループ_12969-3" data-name="グループ 12969" transform="translate(0 9)">
          <rect id="長方形_6082-8" data-name="長方形 6082" width="3.586" height="6" fill="#787878"/>
          <rect id="長方形_6083-8" data-name="長方形 6083" width="1.183" height="6" transform="translate(6.371)" fill="#787878"/>
          <rect id="長方形_6084-8" data-name="長方形 6084" width="3.586" height="4.053" transform="translate(3.453 0.973)" fill="#787878"/>
        </g>
      </g>
      <g id="グループ_12968" data-name="グループ 12968" transform="translate(24.928 24) rotate(180)">
        <path id="パス_3163-2" data-name="パス 3163" d="M.138.733H.46v.32a.139.139,0,1,0,.278,0V.733h.321a.138.138,0,1,0,0-.275H.738V.138a.139.139,0,0,0-.278,0v.32H.138a.138.138,0,1,0,0,.275Z" transform="translate(1.674 0.869)" fill="#787878"/>
        <path id="パス_3164-2" data-name="パス 3164" d="M1.059.457H.738V.138a.139.139,0,0,0-.278,0V.457H.138a.138.138,0,1,0,0,.276H.46v.32a.139.139,0,1,0,.278,0V.733h.321a.138.138,0,1,0,0-.276Z" transform="translate(1.674 21.941)" fill="#787878"/>
        <path id="パス_3165-2" data-name="パス 3165" d="M.139.733H.461v.32a.139.139,0,0,0,.277,0V.733H1.06a.138.138,0,1,0,0-.275H.738V.138a.139.139,0,0,0-.277,0v.32H.139a.138.138,0,1,0,0,.275Z" transform="translate(14.777 0.869)" fill="#787878"/>
        <path id="パス_3166-2" data-name="パス 3166" d="M17.649,1.856a.393.393,0,0,0-.4-.392h-.4a1.426,1.426,0,0,0-.8-1.312A1.485,1.485,0,0,0,13.9,1.464H3.747A1.426,1.426,0,0,0,2.95.151,1.485,1.485,0,0,0,.8,1.464H.4a.393.393,0,0,0-.4.392V22.144a.393.393,0,0,0,.4.392H.8c0-.031.007-.059.009-.089,0,.03-.009.059-.009.089a1.475,1.475,0,0,0,2.949,0c0-.031-.007-.059-.009-.089,0,.03.009.059.009.089H13.9a1.427,1.427,0,0,0,.8,1.313,1.486,1.486,0,0,0,2.152-1.313h.4a.393.393,0,0,0,.4-.392ZM15.376.528a.936.936,0,1,1-.942.936.936.936,0,0,1,.942-.936Zm-13.1,0a.936.936,0,1,1-.943.936A.936.936,0,0,1,2.276.528ZM.915,21.967a1.456,1.456,0,0,1,.278-.419,1.456,1.456,0,0,0-.278.419Zm1.358,1.5a.933.933,0,1,1,.666-.271.936.936,0,0,1-.666.271ZM1.231,21.5a1.479,1.479,0,0,1,.745-.4,1.479,1.479,0,0,0-.745.4Zm1.339-.4a1.48,1.48,0,0,1,.745.4,1.48,1.48,0,0,0-.745-.4Zm.783.445a1.448,1.448,0,0,1,.278.419,1.448,1.448,0,0,0-.278-.417Zm1.909-1.086L2.128,16.9V7.2L5.262,3.651h7.125l3.134,3.558v9.7l-3.134,3.558Zm10.114,3.01a.937.937,0,1,1,.666-.272.936.936,0,0,1-.666.272Z" fill="#787878"/>
        <path id="パス_3167-2" data-name="パス 3167" d="M1.06.457H.738V.137a.139.139,0,0,0-.277,0v.32H.139a.138.138,0,1,0,0,.276H.461v.319a.139.139,0,0,0,.277,0V.733H1.06a.138.138,0,1,0,0-.276Z" transform="translate(14.777 21.941)" fill="#787878"/>
      </g>
      <g id="グループ_12974-2" data-name="グループ 12974" transform="translate(31.726 15) rotate(180)">
        <g id="グループ_9590-6" data-name="グループ 9590" transform="translate(7.554 6) rotate(180)">
          <rect id="長方形_6082-9" data-name="長方形 6082" width="3.586" height="6" fill="#787878"/>
          <rect id="長方形_6083-9" data-name="長方形 6083" width="1.183" height="6" transform="translate(6.371)" fill="#787878"/>
          <rect id="長方形_6084-9" data-name="長方形 6084" width="3.586" height="4.053" transform="translate(3.453 0.973)" fill="#787878"/>
        </g>
      </g>
    </g>
    <text id="_分配器もしくは光対応_新4K8K衛星放送アダプター" data-name=" 分配器もしくは光対応 新4K8K衛星放送アダプター" transform="translate(381.051 18)" font-size="14" font-family="SegoeUI, Segoe UI"><tspan x="0" y="0"> </tspan><tspan y="0" font-family="YuGothicUI-Regular, Yu Gothic UI">分配器もしくは光対応</tspan><tspan y="0" xml:space="preserve"> 4K8K</tspan><tspan y="0" font-family="YuGothicUI-Regular, Yu Gothic UI">衛星放送アダプター</tspan></text>
    <text id="_同軸ケーブル" data-name=" 同軸ケーブル" transform="translate(219.853 18)" font-size="14" font-family="SegoeUI, Segoe UI"><tspan x="0" y="0"> </tspan><tspan y="0" font-family="YuGothicUI-Regular, Yu Gothic UI">同軸ケーブル</tspan></text>
    <rect id="長方形_7946" data-name="長方形 7946" width="3" height="50" transform="translate(211 11) rotate(90)" fill="#787878"/>
    <text id="光ケーブル" transform="translate(58.421 18)" font-size="14" font-family="YuGothicUI-Regular, Yu Gothic UI"><tspan x="0" y="0">光ケーブル</tspan></text>
    <rect id="長方形_9045" data-name="長方形 9045" width="3" height="32" transform="translate(32 10.5) rotate(90)" fill="#f4ad16"/>
    <g id="グループ_16188" data-name="グループ 16188" transform="translate(50.18 7) rotate(90)">
      <g id="グループ_8213-2" data-name="グループ 8213" transform="translate(0.318 5.389)">
        <rect id="長方形_5229-2" data-name="長方形 5229" width="3.573" height="5.039" fill="#f4ad16"/>
        <rect id="長方形_5230-2" data-name="長方形 5230" width="3.573" height="5.039" transform="translate(9.405 5.039) rotate(180)" fill="#f4ad16"/>
      </g>
      <g id="グループ_8214-2" data-name="グループ 8214" transform="translate(0.641)">
        <rect id="長方形_5231-2" data-name="長方形 5231" width="0.868" height="5.039" transform="translate(2.382)" fill="#f4ad16"/>
        <rect id="長方形_5232-2" data-name="長方形 5232" width="0.868" height="5.039" transform="translate(1.191)" fill="#f4ad16"/>
        <rect id="長方形_5233-2" data-name="長方形 5233" width="0.868" height="5.039" fill="#f4ad16"/>
        <rect id="長方形_5234-2" data-name="長方形 5234" width="0.868" height="5.039" transform="translate(6.376 5.039) rotate(180)" fill="#f4ad16"/>
        <rect id="長方形_5235-2" data-name="長方形 5235" width="0.868" height="5.039" transform="translate(7.568 5.039) rotate(180)" fill="#f4ad16"/>
        <rect id="長方形_5236-2" data-name="長方形 5236" width="0.868" height="5.039" transform="translate(8.759 5.039) rotate(180)" fill="#f4ad16"/>
      </g>
      <rect id="長方形_5237-2" data-name="長方形 5237" width="0.868" height="7.875" transform="translate(4.586 3.133)" fill="#f4ad16"/>
      <rect id="長方形_5238-2" data-name="長方形 5238" width="10.095" height="6.179" transform="translate(0 10.778)" fill="#f4ad16"/>
      <path id="パス_2717-2" data-name="パス 2717" d="M4.758,1.83H.695L0,0H5.453Z" transform="translate(2.321 17.307)" fill="#f4ad16"/>
    </g>
  </g>
  <g id="グループ_17151" data-name="グループ 17151" transform="translate(40 368)">
    <g id="グループ-3" data-name="グループ">
      <text id="_フレッツ_テレビ" data-name=" フレッツ・テレビ" transform="translate(41.432 63)" font-size="14" font-family="SegoeUI, Segoe UI"><tspan x="0" y="0"> </tspan><tspan y="0" font-family="YuGothicUI-Regular, Yu Gothic UI">フレッツ・テレビ</tspan></text>
      <text id="伝送" transform="translate(122.432 63)" font-size="14" font-family="YuGothicUI-Regular, Yu Gothic UI"><tspan x="0" y="0">伝送</tspan></text>
      <text id="サービス" transform="translate(150.432 63)" font-size="14" font-family="YuGothicUI-Regular, Yu Gothic UI"><tspan x="0" y="0">サービス</tspan></text>
      <text id="工事" transform="translate(191.432 63)" font-size="14" font-family="YuGothicUI-Regular, Yu Gothic UI"><tspan x="0" y="0">工事</tspan></text>
      <text id="_" data-name="（" transform="translate(92.56 84)" font-size="14" font-family="YuGothicUI-Regular, Yu Gothic UI"><tspan x="0" y="0">（</tspan></text>
      <text id="NTT" transform="translate(106.56 84)" font-size="14" font-family="SegoeUI, Segoe UI"><tspan x="0" y="0">NTT</tspan></text>
      <text id="西日本実施_" data-name="西日本実施）" transform="translate(131.56 84)" font-size="14" font-family="YuGothicUI-Regular, Yu Gothic UI"><tspan x="0" y="0">西日本実施）</tspan></text>
    </g>
    <rect id="長方形_9064" data-name="長方形 9064" width="287.321" height="30" transform="translate(287.321 39) rotate(180)" fill="#f4ad16"/>
    <path id="多角形_142" data-name="多角形 142" d="M23.613,0,47.227,30.36H0Z" transform="translate(310.5) rotate(90)" fill="#f4ad16"/>
    <rect id="長方形_9065" data-name="長方形 9065" width="457" height="30" transform="translate(769 39) rotate(180)" fill="#00b6ec"/>
    <path id="多角形_143" data-name="多角形 143" d="M23.613,0,47.227,30.36H0Z" transform="translate(794.179) rotate(90)" fill="#00b6ec"/>
    <line id="線_407" data-name="線 407" y2="90.5" transform="translate(0 0.5)" fill="none" stroke="#707070" stroke-width="2" stroke-dasharray="2 2"/>
    <g id="グループ-4" data-name="グループ">
      <text id="_テレビ-2" data-name=" テレビ" transform="translate(502.432 63)" font-size="14" font-family="SegoeUI, Segoe UI"><tspan x="0" y="0"> </tspan><tspan y="0" font-family="YuGothicUI-Regular, Yu Gothic UI">テレビ</tspan></text>
      <text id="接続工事" transform="translate(536.432 63)" font-size="14" font-family="YuGothicUI-Regular, Yu Gothic UI"><tspan x="0" y="0">接続工事</tspan></text>
      <text id="_2" data-name="（" transform="translate(441.56 84)" font-size="14" font-family="YuGothicUI-Regular, Yu Gothic UI"><tspan x="0" y="0">（</tspan></text>
      <text id="NTT-2" data-name="NTT" transform="translate(455.56 84)" font-size="14" font-family="SegoeUI, Segoe UI"><tspan x="0" y="0">NTT</tspan></text>
      <text id="西日本" transform="translate(480.56 84)" font-size="14" font-family="YuGothicUI-Regular, Yu Gothic UI"><tspan x="0" y="0">西日本</tspan></text>
      <text id="またはお" transform="translate(522.56 84)" font-size="14" font-family="YuGothicUI-Regular, Yu Gothic UI"><tspan x="0" y="0">またはお</tspan></text>
      <text id="客" transform="translate(567.56 84)" font-size="14" font-family="YuGothicUI-Regular, Yu Gothic UI"><tspan x="0" y="0">客</tspan></text>
      <text id="さま" transform="translate(581.56 84)" font-size="14" font-family="YuGothicUI-Regular, Yu Gothic UI"><tspan x="0" y="0">さま</tspan></text>
      <text id="実施_" data-name="実施）" transform="translate(601.56 84)" font-size="14" font-family="YuGothicUI-Regular, Yu Gothic UI"><tspan x="0" y="0">実施）</tspan></text>
    </g>
    <line id="線_408" data-name="線 408" y2="90.5" transform="translate(311.5 0.5)" fill="none" stroke="#707070" stroke-width="2" stroke-dasharray="2 2"/>
    <line id="線_409" data-name="線 409" y2="90.5" transform="translate(795.5 0.5)" fill="none" stroke="#707070" stroke-width="2" stroke-dasharray="2 2"/>
  </g>
</svg>
