<svg xmlns="http://www.w3.org/2000/svg" width="1000" height="347" viewBox="0 0 1000 347">
  <g id="img_bs4k" transform="translate(-4244 -1032)">
    <g id="bg" transform="translate(4244 1032)">
      <path id="パス_1" data-name="パス 1" d="M999.5,346.5H.5V.5h999Z" fill="#fff"/>
      <path id="パス_2" data-name="パス 2" d="M1,1V346H999V1H1M0,0H1000V347H0Z" fill="#d0d0d0"/>
    </g>
    <rect id="長方形_9000" data-name="長方形 9000" width="440" height="267" transform="translate(4284 1072)" fill="#efefef"/>
    <rect id="長方形_9001" data-name="長方形 9001" width="440" height="267" transform="translate(4764 1072)" fill="#efefef"/>
    <g id="グループ">
      <text id="テレビ" transform="translate(4370.866 1125)" font-size="18" font-family="NotoSansCJKjp-Medium, Noto Sans CJK JP" font-weight="500" letter-spacing="-0.02em"><tspan x="0" y="0">テレビ</tspan></text>
      <text id="本体" transform="translate(4423.866 1125)" font-size="18" font-family="NotoSansCJKjp-Medium, Noto Sans CJK JP" font-weight="500" letter-spacing="-0.02em"><tspan x="0" y="0">本体</tspan></text>
      <text id="で" transform="translate(4459.866 1125)" font-size="18" font-family="NotoSansCJKjp-Medium, Noto Sans CJK JP" font-weight="500" letter-spacing="-0.02em"><tspan x="0" y="0">で</tspan></text>
      <text id="_4" data-name="「4" transform="translate(4469.866 1125)" font-size="18" font-family="NotoSansCJKjp-Medium, Noto Sans CJK JP" font-weight="500" letter-spacing="-0.02em"><tspan x="0" y="0">「4</tspan></text>
      <text id="K8K" transform="translate(4497.523 1125)" font-size="18" font-family="NotoSansCJKjp-Medium, Noto Sans CJK JP" font-weight="500" letter-spacing="-0.02em"><tspan x="0" y="0">K8K</tspan></text>
      <text id="衛星放送_" data-name="衛星放送」" transform="translate(4530.523 1125)" font-size="18" font-family="NotoSansCJKjp-Medium, Noto Sans CJK JP" font-weight="500" letter-spacing="-0.02em"><tspan x="0" y="0">衛星放送」</tspan></text>
      <text id="を" transform="translate(4612.523 1125)" font-size="18" font-family="NotoSansCJKjp-Medium, Noto Sans CJK JP" font-weight="500" letter-spacing="-0.02em"><tspan x="0" y="0">を</tspan></text>
      <text id="受信可能" transform="translate(4422.523 1152)" font-size="18" font-family="NotoSansCJKjp-Medium, Noto Sans CJK JP" font-weight="500" letter-spacing="-0.02em"><tspan x="0" y="0">受信可能</tspan></text>
      <text id="な4" transform="translate(4493.523 1152)" font-size="18" font-family="NotoSansCJKjp-Medium, Noto Sans CJK JP" font-weight="500" letter-spacing="-0.02em"><tspan x="0" y="0">な4</tspan></text>
      <text id="K" transform="translate(4521.523 1152)" font-size="18" font-family="NotoSansCJKjp-Medium, Noto Sans CJK JP" font-weight="500" letter-spacing="-0.02em"><tspan x="0" y="0">K</tspan></text>
      <text id="テレビ-2" data-name="テレビ" transform="translate(4533.523 1152)" font-size="18" font-family="NotoSansCJKjp-Medium, Noto Sans CJK JP" font-weight="500" letter-spacing="-0.02em"><tspan x="0" y="0">テレビ</tspan></text>
    </g>
    <g id="グループ-2" data-name="グループ">
      <text id="_4-2" data-name="「4" transform="translate(4839.226 1125)" font-size="18" font-family="NotoSansCJKjp-Medium, Noto Sans CJK JP" font-weight="500" letter-spacing="-0.02em"><tspan x="0" y="0">「4</tspan></text>
      <text id="K8K-2" data-name="K8K" transform="translate(4867.226 1125)" font-size="18" font-family="NotoSansCJKjp-Medium, Noto Sans CJK JP" font-weight="500" letter-spacing="-0.02em"><tspan x="0" y="0">K8K</tspan></text>
      <text id="衛星放送_対応" data-name="衛星放送」対応" transform="translate(4900.226 1125)" font-size="18" font-family="NotoSansCJKjp-Medium, Noto Sans CJK JP" font-weight="500" letter-spacing="-0.02em"><tspan x="0" y="0">衛星放送」対応</tspan></text>
      <text id="のチューナーと" transform="translate(5024.226 1125)" font-size="18" font-family="NotoSansCJKjp-Medium, Noto Sans CJK JP" font-weight="500" letter-spacing="-0.02em"><tspan x="0" y="0">のチューナーと</tspan></text>
      <text id="_4-3" data-name="4" transform="translate(4888.063 1152)" font-size="18" font-family="NotoSansCJKjp-Medium, Noto Sans CJK JP" font-weight="500" letter-spacing="-0.02em"><tspan x="0" y="0">4</tspan></text>
      <text id="K-2" data-name="K" transform="translate(4898.063 1152)" font-size="18" font-family="NotoSansCJKjp-Medium, Noto Sans CJK JP" font-weight="500" letter-spacing="-0.02em"><tspan x="0" y="0">K</tspan></text>
      <text id="対応" transform="translate(4910.063 1152)" font-size="18" font-family="NotoSansCJKjp-Medium, Noto Sans CJK JP" font-weight="500" letter-spacing="-0.02em"><tspan x="0" y="0">対応</tspan></text>
      <text id="テレビの" transform="translate(4946.063 1152)" font-size="18" font-family="NotoSansCJKjp-Medium, Noto Sans CJK JP" font-weight="500" letter-spacing="-0.02em"><tspan x="0" y="0">テレビの</tspan></text>
      <text id="組" transform="translate(5017.063 1152)" font-size="18" font-family="NotoSansCJKjp-Medium, Noto Sans CJK JP" font-weight="500" letter-spacing="-0.02em"><tspan x="0" y="0">組</tspan></text>
      <text id="み" transform="translate(5035.063 1152)" font-size="18" font-family="NotoSansCJKjp-Medium, Noto Sans CJK JP" font-weight="500" letter-spacing="-0.02em"><tspan x="0" y="0">み</tspan></text>
      <text id="合" transform="translate(5053.063 1152)" font-size="18" font-family="NotoSansCJKjp-Medium, Noto Sans CJK JP" font-weight="500" letter-spacing="-0.02em"><tspan x="0" y="0">合</tspan></text>
      <text id="わせ" transform="translate(5071.063 1152)" font-size="18" font-family="NotoSansCJKjp-Medium, Noto Sans CJK JP" font-weight="500" letter-spacing="-0.02em"><tspan x="0" y="0">わせ</tspan></text>
    </g>
    <g id="グループ_15998" data-name="グループ 15998" transform="translate(-108 -141.82)">
      <g id="グループ_15814" data-name="グループ 15814" transform="translate(4552 1323.82)">
        <g id="グループ_6505" data-name="グループ 6505">
          <path id="パス_2392" data-name="パス 2392" d="M1193.11,1629.86h34.1a5.14,5.14,0,0,0,5.133-5.162v-57.912a5.151,5.151,0,0,0-5.133-5.162H1117.68a5.159,5.159,0,0,0-5.144,5.162V1624.7a5.148,5.148,0,0,0,5.144,5.162h75.432Zm-20.669-2.871a.822.822,0,1,1,.826-.822.822.822,0,0,1-.826.822Zm53-5.955a1.107,1.107,0,0,1-1.106,1.105H1120.55a1.107,1.107,0,0,1-1.105-1.1v-50.583a1.106,1.106,0,0,1,1.105-1.1h103.789a1.106,1.106,0,0,1,1.106,1.1Z" transform="translate(-1112.536 -1561.625)" fill="#787878"/>
        </g>
        <g id="グループ_6506" data-name="グループ 6506" transform="translate(24.153 71.607)">
          <path id="パス_2393" data-name="パス 2393" d="M1134.02,1601.08h-.2l-.183.083-6.328,2.953a2.542,2.542,0,0,0,2.146,4.608l12.679-5.915,3.706-1.73h-11.818Z" transform="translate(-1125.843 -1601.076)" fill="#787878"/>
          <path id="パス_2394" data-name="パス 2394" d="M1174.91,1605.52a2.519,2.519,0,0,0-1.332-1.417l-6.507-2.944-.178-.08h-12.328l3.833,1.734,13.087,5.921a2.542,2.542,0,0,0,3.425-3.213Z" transform="translate(-1102.435 -1601.076)" fill="#787878"/>
        </g>
        <rect id="長方形_4834" data-name="長方形 4834" width="93.296" height="40.088" rx="1.455" transform="translate(13.257 14.074)" fill="#787878"/>
      </g>
      <text id="_4Kテレビ" data-name="4Kテレビ" transform="translate(4578.392 1431.82)" font-size="16" font-family="SegoeUI, Segoe UI"><tspan x="0" y="0">4K</tspan><tspan y="0" font-family="YuGothicUI-Regular, Yu Gothic UI">テレビ</tspan></text>
    </g>
    <g id="グループ_16387" data-name="グループ 16387" transform="translate(-16.19)">
      <g id="グループ_16000" data-name="グループ 16000" transform="translate(226 -166)">
        <g id="グループ-3" data-name="グループ">
          <text id="_4-4" data-name="4" transform="translate(4833.784 1444)" font-size="16" font-family="SegoeUI, Segoe UI"><tspan x="0" y="0">4</tspan></text>
          <text id="K8K-3" data-name="K8K" transform="translate(4842.784 1444)" font-size="16" font-family="SegoeUI, Segoe UI"><tspan x="0" y="0">K8K</tspan></text>
          <text id="衛星放送" transform="translate(4869.784 1444)" font-size="16" font-family="YuGothicUI-Regular, Yu Gothic UI"><tspan x="0" y="0">衛星放送</tspan></text>
          <text id="対応-2" data-name="対応" transform="translate(4839.784 1468)" font-size="16" font-family="YuGothicUI-Regular, Yu Gothic UI"><tspan x="0" y="0">対応</tspan></text>
          <text id="チューナー" transform="translate(4871.784 1468)" font-size="16" font-family="YuGothicUI-Regular, Yu Gothic UI"><tspan x="0" y="0">チューナー</tspan></text>
        </g>
        <path id="パス_3770" data-name="パス 3770" d="M89.532,360.721H1.817A1.817,1.817,0,0,0,0,362.538v18.408a1.817,1.817,0,0,0,1.817,1.817H5.529v2.273A2.676,2.676,0,0,0,8.2,387.712h0a2.676,2.676,0,0,0,2.676-2.676v-2.273H80.467v2.273a2.676,2.676,0,0,0,2.676,2.676h0a2.676,2.676,0,0,0,2.676-2.676v-2.273h3.712a1.817,1.817,0,0,0,1.817-1.817V362.538a1.817,1.817,0,0,0-1.816-1.817Zm-74.82,13.571H11.261a1.307,1.307,0,0,1-1.307-1.307v-2.738a1.307,1.307,0,0,1,1.307-1.307h3.451a1.307,1.307,0,0,1,1.307,1.307v2.738a1.307,1.307,0,0,1-1.307,1.307Zm13.516,0H24.777a1.307,1.307,0,0,1-1.307-1.307v-2.738a1.307,1.307,0,0,1,1.307-1.307h3.451a1.307,1.307,0,0,1,1.307,1.307v2.738a1.307,1.307,0,0,1-1.307,1.307Zm49.5,0H60.642a1.307,1.307,0,0,1-1.307-1.307v-2.738a1.307,1.307,0,0,1,1.307-1.307H77.73a1.307,1.307,0,0,1,1.307,1.307v2.738a1.307,1.307,0,0,1-1.307,1.307Z" transform="translate(4831 1013.279)" fill="#787878"/>
      </g>
      <g id="グループ_20705" data-name="グループ 20705" transform="translate(-192.81 -145.82)">
        <g id="グループ_15815" data-name="グループ 15815" transform="translate(5032 1327.82)">
          <g id="グループ_6505-2" data-name="グループ 6505">
            <path id="パス_2392-2" data-name="パス 2392" d="M1193.11,1629.86h34.1a5.14,5.14,0,0,0,5.133-5.162v-57.912a5.151,5.151,0,0,0-5.133-5.162H1117.68a5.159,5.159,0,0,0-5.144,5.162V1624.7a5.148,5.148,0,0,0,5.144,5.162h75.432Zm-20.669-2.871a.822.822,0,1,1,.826-.822.822.822,0,0,1-.826.822Zm53-5.955a1.107,1.107,0,0,1-1.106,1.105H1120.55a1.107,1.107,0,0,1-1.105-1.1v-50.583a1.106,1.106,0,0,1,1.105-1.1h103.789a1.106,1.106,0,0,1,1.106,1.1Z" transform="translate(-1112.536 -1561.625)" fill="#787878"/>
          </g>
          <g id="グループ_6506-2" data-name="グループ 6506" transform="translate(24.153 71.607)">
            <path id="パス_2393-2" data-name="パス 2393" d="M1134.02,1601.08h-.2l-.183.083-6.328,2.953a2.542,2.542,0,0,0,2.146,4.608l12.679-5.915,3.706-1.73h-11.818Z" transform="translate(-1125.843 -1601.076)" fill="#787878"/>
            <path id="パス_2394-2" data-name="パス 2394" d="M1174.91,1605.52a2.519,2.519,0,0,0-1.332-1.417l-6.507-2.944-.178-.08h-12.328l3.833,1.734,13.087,5.921a2.542,2.542,0,0,0,3.425-3.213Z" transform="translate(-1102.435 -1601.076)" fill="#787878"/>
          </g>
          <rect id="長方形_4834-2" data-name="長方形 4834" width="93.296" height="40.088" rx="1.455" transform="translate(13.257 14.074)" fill="#787878"/>
        </g>
        <text id="_4K対応テレビ" data-name="4K対応テレビ" transform="translate(5042.392 1435.82)" font-size="16" font-family="SegoeUI, Segoe UI"><tspan x="0" y="0">4K</tspan><tspan y="0" font-family="YuGothicUI-Regular, Yu Gothic UI">対応テレビ</tspan></text>
      </g>
      <g id="グループ_20706" data-name="グループ 20706" transform="translate(-804.81 15)">
        <circle id="楕円形_271" data-name="楕円形 271" cx="15" cy="15" r="15" transform="translate(5794 1193)" fill="#787878"/>
        <text id="_" data-name="＋" transform="translate(5799 1216)" fill="#fff" font-size="20" font-family="NotoSansCJKjp-Bold, Noto Sans CJK JP" font-weight="700"><tspan x="0" y="0">＋</tspan></text>
      </g>
    </g>
    <g id="グループ_16002" data-name="グループ 16002" transform="translate(-186 1613)">
      <circle id="楕円形_273" data-name="楕円形 273" cx="35" cy="35" r="35" transform="translate(4895 -442)" fill="#fff"/>
      <path id="パス_3779" data-name="パス 3779" d="M30.625,0A30.625,30.625,0,1,1,0,30.625,30.625,30.625,0,0,1,30.625,0Z" transform="translate(4899.375 -438)" fill="#787878"/>
      <text id="または" transform="translate(4905.39 -400)" fill="#fff" font-size="16" font-family="NotoSansCJKjp-Bold, Noto Sans CJK JP" font-weight="700" letter-spacing="-0.04em"><tspan x="0" y="0">または</tspan></text>
    </g>
  </g>
</svg>
