<svg id="img_connect" xmlns="http://www.w3.org/2000/svg" width="1000" height="698" viewBox="0 0 1000 698">
  <g id="グループ_58" data-name="グループ 58">
    <path id="パス_3" data-name="パス 3" d="M0,0H1000V698H0Z" fill="#fff"/>
    <text id="戸毎_6で視聴可能" data-name="戸毎※6で視聴可能" transform="translate(672.842 91)" font-size="20" font-family="NotoSansCJKjp-Medium, Noto Sans CJK JP" font-weight="500"><tspan x="0" y="0">戸毎</tspan><tspan y="0" font-size="11.66" baseline-shift="6.662570398462465">※6</tspan><tspan y="0">で視聴可能</tspan></text>
    <text id="共用部を2.1GHz対応設備で構築し" transform="translate(627.976 59)" font-size="16" font-family="YuGothicUI-Regular, Yu Gothic UI"><tspan x="0" y="0">共用部を</tspan><tspan y="0" font-family="SegoeUI, Segoe UI">2.1GHz</tspan><tspan y="0">対応設備で構築し</tspan></text>
    <text id="共用部を3.2GHz対応設備で構築し" transform="translate(142.976 59)" font-size="16" font-family="YuGothicUI-Regular, Yu Gothic UI"><tspan x="0" y="0">共用部を</tspan><tspan y="0" font-family="SegoeUI, Segoe UI">3.2GHz</tspan><tspan y="0">対応設備で構築し</tspan></text>
    <text id="全部屋で視聴可能" transform="translate(187 91)" font-size="20" font-family="NotoSansCJKjp-Medium, Noto Sans CJK JP" font-weight="500"><tspan x="0" y="0">全部屋で視聴可能</tspan></text>
    <path id="パス_4" data-name="パス 4" d="M59,176H74V527H59Z" fill="#e6e8ed"/>
    <path id="パス_5" data-name="パス 5" d="M544,176h15V527H544Z" fill="#e6e8ed"/>
    <path id="パス_6" data-name="パス 6" d="M760,176v15H544V176Z" fill="#e6e8ed"/>
    <path id="パス_7" data-name="パス 7" d="M275,176v15H59V176Z" fill="#e6e8ed"/>
    <path id="パス_8" data-name="パス 8" d="M960,512v15H544V512Z" fill="#e6e8ed"/>
    <path id="パス_9" data-name="パス 9" d="M475,512v15H59V512Z" fill="#e6e8ed"/>
    <path id="パス_10" data-name="パス 10" d="M960,121v15H745V121Z" fill="#e6e8ed"/>
    <path id="パス_11" data-name="パス 11" d="M475,121v15H260V121Z" fill="#e6e8ed"/>
    <path id="パス_12" data-name="パス 12" d="M460,121h15V527H460Z" fill="#e6e8ed"/>
    <path id="パス_13" data-name="パス 13" d="M945,121h15V527H945Z" fill="#e6e8ed"/>
    <path id="パス_14" data-name="パス 14" d="M745,121h15v70H745Z" fill="#e6e8ed"/>
    <path id="パス_15" data-name="パス 15" d="M260,121h15v70H260Z" fill="#e6e8ed"/>
    <path id="パス_16" data-name="パス 16" d="M575,207H679V496H575Z" fill="#efefef"/>
    <path id="パス_17" data-name="パス 17" d="M90,207H194V496H90Z" fill="#efefef"/>
    <path id="パス_18" data-name="パス 18" d="M727,207H929v91H727Z" fill="#efefef"/>
    <path id="パス_19" data-name="パス 19" d="M727,405H929v91H727Z" fill="#efefef"/>
    <path id="パス_20" data-name="パス 20" d="M727,306H929v91H727Z" fill="#efefef"/>
    <path id="パス_21" data-name="パス 21" d="M242,306H444v91H242Z" fill="#efefef"/>
    <path id="パス_22" data-name="パス 22" d="M242,207H444v91H242Z" fill="#efefef"/>
    <path id="パス_23" data-name="パス 23" d="M242,405H444v91H242Z" fill="#efefef"/>
    <g id="グループ_10" data-name="グループ 10">
      <path id="パス_24" data-name="パス 24" d="M85.047,204.818H71.255a1.5,1.5,0,0,0-1.5,1.5v21a1.5,1.5,0,0,0,1.5,1.5H85.047a1.5,1.5,0,0,0,1.5-1.5v-21A1.5,1.5,0,0,0,85.047,204.818Zm-6.9,15.771a3.771,3.771,0,1,1,3.771-3.771,3.771,3.771,0,0,1-3.771,3.771Z" transform="translate(401.514 429.182)" fill="#787878"/>
      <g id="グループ_6" data-name="グループ 6">
        <g id="グループ_3" data-name="グループ 3">
          <g id="グループ_1" data-name="グループ 1">
            <path id="パス_25" data-name="パス 25" d="M626.5,638.5h3.561v6H626.5Z" fill="#56b2e1" stroke="rgba(0,0,0,0)" stroke-width="1"/>
            <path id="パス_26" data-name="パス 26" d="M632.826,638.5H634v6h-1.174Z" fill="#56b2e1" stroke="rgba(0,0,0,0)" stroke-width="1"/>
            <path id="パス_27" data-name="パス 27" d="M629.928,639.473h3.561v4.053h-3.561Z" fill="#56b2e1" stroke="rgba(0,0,0,0)" stroke-width="1"/>
          </g>
          <g id="グループ_2" data-name="グループ 2">
            <path id="パス_28" data-name="パス 28" d="M626.5,647.5h3.561v6H626.5Z" fill="#56b2e1" stroke="rgba(0,0,0,0)" stroke-width="1"/>
            <path id="パス_29" data-name="パス 29" d="M632.826,647.5H634v6h-1.174Z" fill="#56b2e1" stroke="rgba(0,0,0,0)" stroke-width="1"/>
            <path id="パス_30" data-name="パス 30" d="M629.928,648.473h3.561v4.053h-3.561Z" fill="#56b2e1" stroke="rgba(0,0,0,0)" stroke-width="1"/>
          </g>
        </g>
        <g id="グループ_4" data-name="グループ 4">
          <path id="パス_31" data-name="パス 31" d="M.137.733h.32v.32a.138.138,0,1,0,.276,0V.733h.319a.138.138,0,1,0,0-.275H.733V.138a.138.138,0,0,0-.276,0v.32H.137a.138.138,0,0,0,0,.275Z" transform="translate(610.912 634.869)" fill="#56b2e1" stroke="rgba(0,0,0,0)" stroke-width="1"/>
          <path id="パス_32" data-name="パス 32" d="M1.052.457H.733V.138a.138.138,0,0,0-.276,0V.457H.137a.138.138,0,1,0,0,.276h.32v.32a.138.138,0,1,0,.276,0V.733h.319a.138.138,0,1,0,0-.276Z" transform="translate(610.912 655.941)" fill="#56b2e1" stroke="rgba(0,0,0,0)" stroke-width="1"/>
          <path id="パス_33" data-name="パス 33" d="M.138.733h.32v.32a.138.138,0,1,0,.275,0V.733h.32a.138.138,0,0,0,0-.275H.733V.138a.138.138,0,1,0-.275,0v.32H.138a.138.138,0,1,0,0,.275Z" transform="translate(623.921 634.869)" fill="#56b2e1" stroke="rgba(0,0,0,0)" stroke-width="1"/>
          <path id="パス_34" data-name="パス 34" d="M17.523,1.856a.392.392,0,0,0-.392-.392h-.4A1.427,1.427,0,0,0,15.939.151,1.475,1.475,0,0,0,13.8,1.464H3.72A1.427,1.427,0,0,0,2.929.151,1.475,1.475,0,0,0,.792,1.464h-.4A.392.392,0,0,0,0,1.856V22.144a.392.392,0,0,0,.392.392h.4L.8,22.447l-.009.089a1.464,1.464,0,1,0,2.928,0l-.009-.089.009.089H13.8a1.428,1.428,0,0,0,.792,1.313,1.475,1.475,0,0,0,2.136-1.313h.4a.392.392,0,0,0,.392-.392ZM15.266.528a.936.936,0,1,1-.935.936.936.936,0,0,1,.935-.936Zm-13.01,0a.936.936,0,1,1-.936.936A.936.936,0,0,1,2.256.528ZM.908,21.967a1.457,1.457,0,0,1,.276-.419,1.457,1.457,0,0,0-.276.419Zm1.349,1.5A.93.93,0,1,1,2.92,23.2a.936.936,0,0,1-.663.272ZM1.222,21.5a1.465,1.465,0,0,1,.74-.4,1.465,1.465,0,0,0-.74.4Zm1.33-.4a1.466,1.466,0,0,1,.74.4,1.466,1.466,0,0,0-.741-.4Zm.778.445a1.448,1.448,0,0,1,.276.419,1.448,1.448,0,0,0-.277-.417Zm1.9-1.086L2.113,16.9V7.2L5.224,3.651H12.3l3.11,3.557v9.7L12.3,20.461Zm10.042,3.01a5.271,5.271,0,1,0-.006,0Z" transform="translate(609.25 634)" fill="#56b2e1" stroke="rgba(0,0,0,0)" stroke-width="1"/>
          <path id="パス_35" data-name="パス 35" d="M1.052.457H.733V.137a.138.138,0,0,0-.275,0v.32H.138a.138.138,0,1,0,0,.276h.32v.319a.138.138,0,1,0,.275,0V.733h.32a.138.138,0,1,0,0-.276Z" transform="translate(623.921 655.941)" fill="#56b2e1" stroke="rgba(0,0,0,0)" stroke-width="1"/>
        </g>
        <g id="グループ_5" data-name="グループ 5">
          <path id="パス_36" data-name="パス 36" d="M610,649h-3.561v-6H610Z" fill="#56b2e1" stroke="rgba(0,0,0,0)" stroke-width="1"/>
          <path id="パス_37" data-name="パス 37" d="M603.674,649H602.5v-6h1.174Z" fill="#56b2e1" stroke="rgba(0,0,0,0)" stroke-width="1"/>
          <path id="パス_38" data-name="パス 38" d="M606.572,648.027h-3.561v-4.053h3.561Z" fill="#56b2e1" stroke="rgba(0,0,0,0)" stroke-width="1"/>
        </g>
      </g>
      <text id="分波器" transform="translate(644 652)" font-size="14" font-family="YuGothicUI-Regular, Yu Gothic UI"><tspan x="0" y="0">分波器</tspan></text>
      <text id="テレビ端子" transform="translate(497 652)" font-size="14" font-family="YuGothicUI-Regular, Yu Gothic UI"><tspan x="0" y="0">テレビ端子</tspan></text>
      <text id="光ケーブル" transform="translate(370 652)" font-size="14" font-family="YuGothicUI-Regular, Yu Gothic UI"><tspan x="0" y="0">光ケーブル</tspan></text>
      <path id="パス_39" data-name="パス 39" d="M343,644v3H312v-3Z" fill="#f4ad16"/>
      <g id="グループ_9" data-name="グループ 9">
        <g id="グループ_7" data-name="グループ 7">
          <path id="パス_40" data-name="パス 40" d="M351.646,650.654V646.76h5v3.894Z" fill="#f4ad16"/>
          <path id="パス_41" data-name="パス 41" d="M356.649,640.406V644.3h-5v-3.894Z" fill="#f4ad16"/>
        </g>
        <g id="グループ_8" data-name="グループ 8">
          <path id="パス_42" data-name="パス 42" d="M357,647.706v-.946h5v.946Z" fill="#f4ad16"/>
          <path id="パス_43" data-name="パス 43" d="M357,649v-.946h5V649Z" fill="#f4ad16"/>
          <path id="パス_44" data-name="パス 44" d="M357,650.3v-.946h5v.946Z" fill="#f4ad16"/>
          <path id="パス_45" data-name="パス 45" d="M362,643.354v.946h-5v-.946Z" fill="#f4ad16"/>
          <path id="パス_46" data-name="パス 46" d="M362,642.056V643h-5v-.946Z" fill="#f4ad16"/>
          <path id="パス_47" data-name="パス 47" d="M362,640.758v.946h-5v-.946Z" fill="#f4ad16"/>
        </g>
        <path id="パス_48" data-name="パス 48" d="M351.071,646v-.946h7.819V646Z" fill="#f4ad16"/>
        <path id="パス_49" data-name="パス 49" d="M345.164,651V640H351.3v11Z" fill="#f4ad16"/>
        <path id="パス_50" data-name="パス 50" d="M343,643.286v4.428l1.817.757v-5.942Z" fill="#f4ad16"/>
      </g>
    </g>
    <path id="パス_51" data-name="パス 51" d="M499,40h2V594h-2Z" fill="#d0d0d0"/>
    <g id="グループ">
      <text id="オーナーさま" transform="translate(583.432 347)" font-size="14" font-family="YuGothicUI-Regular, Yu Gothic UI"><tspan x="0" y="0">オーナーさま</tspan></text>
      <text id="共聴設備" transform="translate(599 368)" font-size="14" font-family="YuGothicUI-Regular, Yu Gothic UI"><tspan x="0" y="0">共聴設備</tspan></text>
    </g>
    <g id="グループ-2" data-name="グループ">
      <text id="オーナーさま-2" data-name="オーナーさま" transform="translate(98.432 347)" font-size="14" font-family="YuGothicUI-Regular, Yu Gothic UI"><tspan x="0" y="0">オーナーさま</tspan></text>
      <text id="共聴設備-2" data-name="共聴設備" transform="translate(114 368)" font-size="14" font-family="YuGothicUI-Regular, Yu Gothic UI"><tspan x="0" y="0">共聴設備</tspan></text>
    </g>
    <g id="グループ_12" data-name="グループ 12" transform="translate(849 223)">
      <path id="パス_52" data-name="パス 52" d="M1155.58,1598.07h18.215a2.746,2.746,0,0,0,2.742-2.757v-30.935a2.751,2.751,0,0,0-2.742-2.758h-58.51a2.756,2.756,0,0,0-2.748,2.758v30.935a2.75,2.75,0,0,0,2.748,2.757Zm-11.041-1.534a.439.439,0,1,1,.441-.439.439.439,0,0,1-.441.439Zm28.311-3.181a.592.592,0,0,1-.591.59h-55.442a.592.592,0,0,1-.591-.59v-27.02a.591.591,0,0,1,.591-.59h55.442a.591.591,0,0,1,.591.59Z" transform="translate(-1112.536 -1561.625)" fill="#787878"/>
      <g id="グループ_11" data-name="グループ 11">
        <path id="パス_53" data-name="パス 53" d="M1130.21,1601.08h-.107l-.1.045-3.38,1.578a1.356,1.356,0,0,0,1.145,2.458l6.773-3.16,1.979-.924h-6.313Z" transform="translate(-1112.941 -1562.825)" fill="#787878"/>
        <path id="パス_54" data-name="パス 54" d="M1165.43,1603.45a1.344,1.344,0,0,0-.712-.757l-3.476-1.573-.095-.043h-6.585l2.047.926,6.991,3.163a1.344,1.344,0,0,0,.558.12,1.357,1.357,0,0,0,1.271-1.836Z" transform="translate(-1113.814 -1562.825)" fill="#787878"/>
      </g>
      <rect id="長方形_1" data-name="長方形 1" width="49.837" height="21.414" rx="1.455" transform="translate(7.082 7.518)" fill="#787878"/>
    </g>
    <g id="グループ_14" data-name="グループ 14" transform="translate(849 421)">
      <path id="パス_55" data-name="パス 55" d="M1155.58,1598.07h18.215a2.746,2.746,0,0,0,2.742-2.757v-30.935a2.751,2.751,0,0,0-2.742-2.758h-58.51a2.756,2.756,0,0,0-2.748,2.758v30.935a2.75,2.75,0,0,0,2.748,2.757Zm-11.041-1.534a.439.439,0,1,1,.441-.439.439.439,0,0,1-.441.439Zm28.311-3.181a.592.592,0,0,1-.591.59h-55.442a.592.592,0,0,1-.591-.59v-27.02a.591.591,0,0,1,.591-.59h55.442a.591.591,0,0,1,.591.59Z" transform="translate(-1112.536 -1561.625)" fill="#787878"/>
      <g id="グループ_13" data-name="グループ 13">
        <path id="パス_56" data-name="パス 56" d="M1130.21,1601.08h-.107l-.1.045-3.38,1.578a1.356,1.356,0,0,0,1.145,2.458l6.773-3.16,1.979-.924h-6.313Z" transform="translate(-1112.941 -1562.825)" fill="#787878"/>
        <path id="パス_57" data-name="パス 57" d="M1165.43,1603.45a1.344,1.344,0,0,0-.712-.757l-3.476-1.573-.095-.043h-6.585l2.047.926,6.991,3.163a1.344,1.344,0,0,0,.558.12,1.357,1.357,0,0,0,1.271-1.836Z" transform="translate(-1113.814 -1562.825)" fill="#787878"/>
      </g>
      <rect id="長方形_2" data-name="長方形 2" width="49.837" height="21.414" rx="1.455" transform="translate(7.082 7.518)" fill="#787878"/>
    </g>
    <g id="グループ_16" data-name="グループ 16" transform="translate(849 330)">
      <path id="パス_58" data-name="パス 58" d="M1155.58,1598.07h18.215a2.746,2.746,0,0,0,2.742-2.757v-30.935a2.751,2.751,0,0,0-2.742-2.758h-58.51a2.756,2.756,0,0,0-2.748,2.758v30.935a2.75,2.75,0,0,0,2.748,2.757Zm-11.041-1.534a.439.439,0,1,1,.441-.439.439.439,0,0,1-.441.439Zm28.311-3.181a.592.592,0,0,1-.591.59h-55.442a.592.592,0,0,1-.591-.59v-27.02a.591.591,0,0,1,.591-.59h55.442a.591.591,0,0,1,.591.59Z" transform="translate(-1112.536 -1561.625)" fill="#787878"/>
      <g id="グループ_15" data-name="グループ 15">
        <path id="パス_59" data-name="パス 59" d="M1130.21,1601.08h-.107l-.1.045-3.38,1.578a1.356,1.356,0,0,0,1.145,2.458l6.773-3.16,1.979-.924h-6.313Z" transform="translate(-1112.941 -1562.825)" fill="#787878"/>
        <path id="パス_60" data-name="パス 60" d="M1165.43,1603.45a1.344,1.344,0,0,0-.712-.757l-3.476-1.573-.095-.043h-6.585l2.047.926,6.991,3.163a1.344,1.344,0,0,0,.558.12,1.357,1.357,0,0,0,1.271-1.836Z" transform="translate(-1113.814 -1562.825)" fill="#787878"/>
      </g>
      <rect id="長方形_3" data-name="長方形 3" width="49.837" height="21.414" rx="1.455" transform="translate(7.082 7.518)" fill="#787878"/>
    </g>
    <g id="グループ_18" data-name="グループ 18" transform="translate(364 322)">
      <path id="パス_61" data-name="パス 61" d="M1155.58,1598.07h18.215a2.746,2.746,0,0,0,2.742-2.757v-30.935a2.751,2.751,0,0,0-2.742-2.758h-58.51a2.756,2.756,0,0,0-2.748,2.758v30.935a2.75,2.75,0,0,0,2.748,2.757Zm-11.041-1.534a.439.439,0,1,1,.441-.439.439.439,0,0,1-.441.439Zm28.311-3.181a.592.592,0,0,1-.591.59h-55.442a.592.592,0,0,1-.591-.59v-27.02a.591.591,0,0,1,.591-.59h55.442a.591.591,0,0,1,.591.59Z" transform="translate(-1112.536 -1561.625)" fill="#787878"/>
      <g id="グループ_17" data-name="グループ 17">
        <path id="パス_62" data-name="パス 62" d="M1130.21,1601.08h-.107l-.1.045-3.38,1.578a1.356,1.356,0,0,0,1.145,2.458l6.773-3.16,1.979-.924h-6.313Z" transform="translate(-1112.941 -1562.825)" fill="#787878"/>
        <path id="パス_63" data-name="パス 63" d="M1165.43,1603.45a1.344,1.344,0,0,0-.712-.757l-3.476-1.573-.095-.043h-6.585l2.047.926,6.991,3.163a1.344,1.344,0,0,0,.558.12,1.357,1.357,0,0,0,1.271-1.836Z" transform="translate(-1113.814 -1562.825)" fill="#787878"/>
      </g>
      <rect id="長方形_4" data-name="長方形 4" width="49.837" height="21.414" rx="1.455" transform="translate(7.082 7.518)" fill="#787878"/>
    </g>
    <g id="グループ_20" data-name="グループ 20" transform="translate(364 223)">
      <path id="パス_64" data-name="パス 64" d="M1155.58,1598.07h18.215a2.746,2.746,0,0,0,2.742-2.757v-30.935a2.751,2.751,0,0,0-2.742-2.758h-58.51a2.756,2.756,0,0,0-2.748,2.758v30.935a2.75,2.75,0,0,0,2.748,2.757Zm-11.041-1.534a.439.439,0,1,1,.441-.439.439.439,0,0,1-.441.439Zm28.311-3.181a.592.592,0,0,1-.591.59h-55.442a.592.592,0,0,1-.591-.59v-27.02a.591.591,0,0,1,.591-.59h55.442a.591.591,0,0,1,.591.59Z" transform="translate(-1112.536 -1561.625)" fill="#787878"/>
      <g id="グループ_19" data-name="グループ 19">
        <path id="パス_65" data-name="パス 65" d="M1130.21,1601.08h-.107l-.1.045-3.38,1.578a1.356,1.356,0,0,0,1.145,2.458l6.773-3.16,1.979-.924h-6.313Z" transform="translate(-1112.941 -1562.825)" fill="#787878"/>
        <path id="パス_66" data-name="パス 66" d="M1165.43,1603.45a1.344,1.344,0,0,0-.712-.757l-3.476-1.573-.095-.043h-6.585l2.047.926,6.991,3.163a1.344,1.344,0,0,0,.558.12,1.357,1.357,0,0,0,1.271-1.836Z" transform="translate(-1113.814 -1562.825)" fill="#787878"/>
      </g>
      <rect id="長方形_5" data-name="長方形 5" width="49.837" height="21.414" rx="1.455" transform="translate(7.082 7.518)" fill="#787878"/>
    </g>
    <g id="グループ_22" data-name="グループ 22" transform="translate(364 421)">
      <path id="パス_67" data-name="パス 67" d="M1155.58,1598.07h18.215a2.746,2.746,0,0,0,2.742-2.757v-30.935a2.751,2.751,0,0,0-2.742-2.758h-58.51a2.756,2.756,0,0,0-2.748,2.758v30.935a2.75,2.75,0,0,0,2.748,2.757Zm-11.041-1.534a.439.439,0,1,1,.441-.439.439.439,0,0,1-.441.439Zm28.311-3.181a.592.592,0,0,1-.591.59h-55.442a.592.592,0,0,1-.591-.59v-27.02a.591.591,0,0,1,.591-.59h55.442a.591.591,0,0,1,.591.59Z" transform="translate(-1112.536 -1561.625)" fill="#787878"/>
      <g id="グループ_21" data-name="グループ 21">
        <path id="パス_68" data-name="パス 68" d="M1130.21,1601.08h-.107l-.1.045-3.38,1.578a1.356,1.356,0,0,0,1.145,2.458l6.773-3.16,1.979-.924h-6.313Z" transform="translate(-1112.941 -1562.825)" fill="#787878"/>
        <path id="パス_69" data-name="パス 69" d="M1165.43,1603.45a1.344,1.344,0,0,0-.712-.757l-3.476-1.573-.095-.043h-6.585l2.047.926,6.991,3.163a1.344,1.344,0,0,0,.558.12,1.357,1.357,0,0,0,1.271-1.836Z" transform="translate(-1113.814 -1562.825)" fill="#787878"/>
      </g>
      <rect id="長方形_6" data-name="長方形 6" width="49.837" height="21.414" rx="1.455" transform="translate(7.082 7.518)" fill="#787878"/>
    </g>
    <text id="_4K8K" data-name="4K8K" transform="translate(862.618 286)" font-size="14" font-family="SegoeUI, Segoe UI"><tspan x="0" y="0">4K8K</tspan></text>
    <text id="_4K8K-2" data-name="4K8K" transform="translate(377.618 385)" font-size="14" font-family="SegoeUI, Segoe UI"><tspan x="0" y="0">4K8K</tspan></text>
    <text id="_4K8K-3" data-name="4K8K" transform="translate(377.618 286)" font-size="14" font-family="SegoeUI, Segoe UI"><tspan x="0" y="0">4K8K</tspan></text>
    <text id="_4K8K-4" data-name="4K8K" transform="translate(377.618 484)" font-size="14" font-family="SegoeUI, Segoe UI"><tspan x="0" y="0">4K8K</tspan></text>
    <text id="_4K8K-5" data-name="4K8K" transform="translate(862.618 484)" font-size="14" font-family="SegoeUI, Segoe UI"><tspan x="0" y="0">4K8K</tspan></text>
    <path id="パス_70" data-name="パス 70" d="M745,243v3H701v-3Z" fill="#787878"/>
    <path id="パス_71" data-name="パス 71" d="M745,441v3H701v-3Z" fill="#787878"/>
    <path id="パス_72" data-name="パス 72" d="M745,350v3H701v-3Z" fill="#787878"/>
    <path id="パス_73" data-name="パス 73" d="M260,342v3H216v-3Z" fill="#787878"/>
    <path id="パス_74" data-name="パス 74" d="M260,243v3H216v-3Z" fill="#787878"/>
    <path id="パス_75" data-name="パス 75" d="M260,441v3H216v-3Z" fill="#787878"/>
    <path id="パス_76" data-name="パス 76" d="M787,243v3H767v-3Z" fill="#787878"/>
    <path id="パス_77" data-name="パス 77" d="M787,441v3H767v-3Z" fill="#787878"/>
    <path id="パス_78" data-name="パス 78" d="M787,350v3H767v-3Z" fill="#787878"/>
    <path id="パス_79" data-name="パス 79" d="M302,342v3H282v-3Z" fill="#787878"/>
    <path id="パス_80" data-name="パス 80" d="M302,243v3H282v-3Z" fill="#787878"/>
    <path id="パス_81" data-name="パス 81" d="M302,441v3H282v-3Z" fill="#787878"/>
    <path id="パス_82" data-name="パス 82" d="M849,243v3H829v-3Z" fill="#787878"/>
    <path id="パス_83" data-name="パス 83" d="M849,441v3H829v-3Z" fill="#787878"/>
    <path id="パス_84" data-name="パス 84" d="M849,229v3H799v-3Z" fill="#787878"/>
    <path id="パス_85" data-name="パス 85" d="M849,427v3H799v-3Z" fill="#787878"/>
    <path id="パス_86" data-name="パス 86" d="M802,249h-3V229h3Z" fill="#787878"/>
    <path id="パス_87" data-name="パス 87" d="M802,447h-3V427h3Z" fill="#787878"/>
    <path id="パス_88" data-name="パス 88" d="M704,441v3H679v-3Z" fill="#787878"/>
    <path id="パス_89" data-name="パス 89" d="M568,441v3H525v-3Z" fill="#f4ad16"/>
    <path id="パス_90" data-name="パス 90" d="M219,441v3H194v-3Z" fill="#787878"/>
    <path id="パス_91" data-name="パス 91" d="M84,441v3H40v-3Z" fill="#f4ad16"/>
    <path id="パス_92" data-name="パス 92" d="M704,444h-3V243h3Z" fill="#787878"/>
    <path id="パス_93" data-name="パス 93" d="M528,527h-3V441h3Z" fill="#f4ad16"/>
    <path id="パス_94" data-name="パス 94" d="M43,527H40V441h3Z" fill="#f4ad16"/>
    <path id="パス_95" data-name="パス 95" d="M219,444h-3V243h3Z" fill="#787878"/>
    <path id="パス_96" data-name="パス 96" d="M813.071,261h-26.89V239h26.89Zm-6.111-16.5h4.277v-3.668H806.96ZM830.181,261H814.9V239h15.277Zm-13.443-16.5h3.668v-3.668h-3.668Z" fill="#e15656"/>
    <path id="パス_97" data-name="パス 97" d="M813.071,459h-26.89V437h26.89Zm-6.111-16.5h4.277v-3.668H806.96ZM830.181,459H814.9V437h15.277Zm-13.443-16.5h3.668v-3.668h-3.668Z" fill="#e15656"/>
    <path id="パス_98" data-name="パス 98" d="M91.611,204.818H71.9a2.144,2.144,0,0,0-2.144,2.144v30.016a2.144,2.144,0,0,0,2.144,2.144H91.611a2.144,2.144,0,0,0,2.144-2.144V206.962A2.144,2.144,0,0,0,91.611,204.818Zm-9.856,22.541a5.389,5.389,0,1,1,5.39-5.389,5.389,5.389,0,0,1-5.39,5.389Z" transform="translate(673.544 22.182)" fill="#787878"/>
    <path id="パス_99" data-name="パス 99" d="M91.611,204.818H71.9a2.144,2.144,0,0,0-2.144,2.144v30.016a2.144,2.144,0,0,0,2.144,2.144H91.611a2.144,2.144,0,0,0,2.144-2.144V206.962A2.144,2.144,0,0,0,91.611,204.818Zm-9.856,22.541a5.389,5.389,0,1,1,5.39-5.389,5.389,5.389,0,0,1-5.39,5.389Z" transform="translate(673.544 220.182)" fill="#787878"/>
    <path id="パス_100" data-name="パス 100" d="M91.611,204.818H71.9a2.144,2.144,0,0,0-2.144,2.144v30.016a2.144,2.144,0,0,0,2.144,2.144H91.611a2.144,2.144,0,0,0,2.144-2.144V206.962A2.144,2.144,0,0,0,91.611,204.818Zm-9.856,22.541a5.389,5.389,0,1,1,5.39-5.389,5.389,5.389,0,0,1-5.39,5.389Z" transform="translate(673.544 129.182)" fill="#787878"/>
    <path id="パス_101" data-name="パス 101" d="M91.611,204.818H71.9a2.144,2.144,0,0,0-2.144,2.144v30.016a2.144,2.144,0,0,0,2.144,2.144H91.611a2.144,2.144,0,0,0,2.144-2.144V206.962A2.144,2.144,0,0,0,91.611,204.818Zm-9.856,22.541a5.389,5.389,0,1,1,5.39-5.389,5.389,5.389,0,0,1-5.39,5.389Z" transform="translate(188.544 121.182)" fill="#787878"/>
    <path id="パス_102" data-name="パス 102" d="M91.611,204.818H71.9a2.144,2.144,0,0,0-2.144,2.144v30.016a2.144,2.144,0,0,0,2.144,2.144H91.611a2.144,2.144,0,0,0,2.144-2.144V206.962A2.144,2.144,0,0,0,91.611,204.818Zm-9.856,22.541a5.389,5.389,0,1,1,5.39-5.389,5.389,5.389,0,0,1-5.39,5.389Z" transform="translate(188.544 22.182)" fill="#787878"/>
    <path id="パス_103" data-name="パス 103" d="M91.611,204.818H71.9a2.144,2.144,0,0,0-2.144,2.144v30.016a2.144,2.144,0,0,0,2.144,2.144H91.611a2.144,2.144,0,0,0,2.144-2.144V206.962A2.144,2.144,0,0,0,91.611,204.818Zm-9.856,22.541a5.389,5.389,0,1,1,5.39-5.389,5.389,5.389,0,0,1-5.39,5.389Z" transform="translate(188.544 220.182)" fill="#787878"/>
    <g id="グループ_29" data-name="グループ 29">
      <path id="パス_104" data-name="パス 104" d="M849,344.5v3H827v-3Z" fill="#787878"/>
      <path id="パス_105" data-name="パス 105" d="M849,356.5v3H827v-3Z" fill="#787878"/>
      <g id="グループ_28" data-name="グループ 28">
        <g id="グループ_25" data-name="グループ 25">
          <g id="グループ_23" data-name="グループ 23">
            <path id="パス_106" data-name="パス 106" d="M819,342h4.747v8H819Z" fill="#56b2e1" stroke="rgba(0,0,0,0)" stroke-width="1"/>
            <path id="パス_107" data-name="パス 107" d="M827.434,342H829v8h-1.566Z" fill="#56b2e1" stroke="rgba(0,0,0,0)" stroke-width="1"/>
            <path id="パス_108" data-name="パス 108" d="M823.571,343.3h4.747v5.4h-4.747Z" fill="#56b2e1" stroke="rgba(0,0,0,0)" stroke-width="1"/>
          </g>
          <g id="グループ_24" data-name="グループ 24">
            <path id="パス_109" data-name="パス 109" d="M819,354h4.747v8H819Z" fill="#56b2e1" stroke="rgba(0,0,0,0)" stroke-width="1"/>
            <path id="パス_110" data-name="パス 110" d="M827.434,354H829v8h-1.566Z" fill="#56b2e1" stroke="rgba(0,0,0,0)" stroke-width="1"/>
            <path id="パス_111" data-name="パス 111" d="M823.571,355.3h4.747v5.4h-4.747Z" fill="#56b2e1" stroke="rgba(0,0,0,0)" stroke-width="1"/>
          </g>
        </g>
        <g id="グループ_26" data-name="グループ 26">
          <path id="パス_112" data-name="パス 112" d="M643,638.232h.426v.426a.184.184,0,1,0,.368,0v-.426h.425a.184.184,0,1,0,0-.367h-.425v-.426a.184.184,0,0,0-.368,0v.426H643a.184.184,0,0,0,0,.367Z" transform="translate(155.402 -300.095)" fill="#56b2e1" stroke="rgba(0,0,0,0)" stroke-width="1"/>
          <path id="パス_113" data-name="パス 113" d="M644.216,677.755h-.425v-.425a.184.184,0,0,0-.368,0v.425H643a.184.184,0,1,0,0,.368h.426v.426a.184.184,0,0,0,.368,0v-.426h.425a.184.184,0,0,0,0-.368Z" transform="translate(155.402 -311.89)" fill="#56b2e1" stroke="rgba(0,0,0,0)" stroke-width="1"/>
          <path id="パス_114" data-name="パス 114" d="M667.626,638.232h.426v.426a.183.183,0,0,0,.367,0v-.426h.426a.184.184,0,0,0,0-.367h-.426v-.426a.184.184,0,0,0-.367,0v.426h-.426a.184.184,0,1,0,0,.367Z" transform="translate(148.12 -300.095)" fill="#56b2e1" stroke="rgba(0,0,0,0)" stroke-width="1"/>
          <path id="パス_115" data-name="パス 115" d="M663.032,638.084a.523.523,0,0,0-.523-.523h-.534a1.9,1.9,0,0,0-1.056-1.75,1.967,1.967,0,0,0-2.848,1.75H644.629a1.9,1.9,0,0,0-1.056-1.75,1.967,1.967,0,0,0-2.848,1.75h-.534a.522.522,0,0,0-.523.523v27.051a.522.522,0,0,0,.523.523h.534l.013-.119-.013.119a1.952,1.952,0,0,0,3.9,0l-.012-.119.012.119h13.443a1.9,1.9,0,0,0,1.056,1.75,1.967,1.967,0,0,0,2.848-1.75h.534a.522.522,0,0,0,.523-.523Zm-3.009-1.77a1.248,1.248,0,1,1-1.247,1.247,1.248,1.248,0,0,1,1.247-1.247Zm-17.346,0a1.248,1.248,0,1,1-1.248,1.247,1.248,1.248,0,0,1,1.248-1.247Zm-1.8,28.585a1.941,1.941,0,0,1,.368-.559,1.943,1.943,0,0,0-.366.56Zm1.8,2.007a1.248,1.248,0,1,1,1.247-1.247,1.248,1.248,0,0,1-1.247,1.247Zm-1.38-2.627a1.954,1.954,0,0,1,.987-.533,1.954,1.954,0,0,0-.984.532Zm1.773-.533a1.954,1.954,0,0,1,.987.533,1.954,1.954,0,0,0-.987-.533Zm1.037.594a1.932,1.932,0,0,1,.368.559,1.93,1.93,0,0,0-.368-.559Zm2.527-1.448-4.148-4.744V645.221l4.148-4.744h9.432l4.149,4.744v12.927l-4.149,4.744Zm13.389,4.013a1.248,1.248,0,1,1,1.248-1.247,1.248,1.248,0,0,1-1.248,1.247Z" transform="translate(156.332 -299.609)" fill="#56b2e1" stroke="rgba(0,0,0,0)" stroke-width="1"/>
          <path id="パス_116" data-name="パス 116" d="M668.845,677.755h-.426v-.426a.184.184,0,0,0-.367,0v.426h-.426a.184.184,0,1,0,0,.368h.426v.426a.183.183,0,0,0,.367,0v-.426h.426a.184.184,0,0,0,0-.368Z" transform="translate(148.12 -311.89)" fill="#56b2e1" stroke="rgba(0,0,0,0)" stroke-width="1"/>
        </g>
        <g id="グループ_27" data-name="グループ 27">
          <path id="パス_117" data-name="パス 117" d="M797,356h-4.747v-8H797Z" fill="#56b2e1" stroke="rgba(0,0,0,0)" stroke-width="1"/>
          <path id="パス_118" data-name="パス 118" d="M788.566,356H787v-8h1.566Z" fill="#56b2e1" stroke="rgba(0,0,0,0)" stroke-width="1"/>
          <path id="パス_119" data-name="パス 119" d="M792.429,354.7h-4.747v-5.4h4.747Z" fill="#56b2e1" stroke="rgba(0,0,0,0)" stroke-width="1"/>
        </g>
      </g>
    </g>
    <g id="グループ_36" data-name="グループ 36">
      <path id="パス_120" data-name="パス 120" d="M364,336v3H342v-3Z" fill="#787878"/>
      <path id="パス_121" data-name="パス 121" d="M364,348v3H342v-3Z" fill="#787878"/>
      <g id="グループ_35" data-name="グループ 35">
        <g id="グループ_32" data-name="グループ 32">
          <g id="グループ_30" data-name="グループ 30">
            <path id="パス_122" data-name="パス 122" d="M334,333.5h4.747v8H334Z" fill="#56b2e1" stroke="rgba(0,0,0,0)" stroke-width="1"/>
            <path id="パス_123" data-name="パス 123" d="M342.434,333.5H344v8h-1.566Z" fill="#56b2e1" stroke="rgba(0,0,0,0)" stroke-width="1"/>
            <path id="パス_124" data-name="パス 124" d="M338.571,334.8h4.747v5.4h-4.747Z" fill="#56b2e1" stroke="rgba(0,0,0,0)" stroke-width="1"/>
          </g>
          <g id="グループ_31" data-name="グループ 31">
            <path id="パス_125" data-name="パス 125" d="M334,345.5h4.747v8H334Z" fill="#56b2e1" stroke="rgba(0,0,0,0)" stroke-width="1"/>
            <path id="パス_126" data-name="パス 126" d="M342.434,345.5H344v8h-1.566Z" fill="#56b2e1" stroke="rgba(0,0,0,0)" stroke-width="1"/>
            <path id="パス_127" data-name="パス 127" d="M338.571,346.8h4.747v5.4h-4.747Z" fill="#56b2e1" stroke="rgba(0,0,0,0)" stroke-width="1"/>
          </g>
        </g>
        <g id="グループ_33" data-name="グループ 33">
          <path id="パス_128" data-name="パス 128" d="M643,638.232h.426v.426a.184.184,0,1,0,.368,0v-.426h.425a.184.184,0,1,0,0-.367h-.425v-.426a.184.184,0,0,0-.368,0v.426H643a.184.184,0,0,0,0,.367Z" transform="translate(-329.598 -308.595)" fill="#56b2e1" stroke="rgba(0,0,0,0)" stroke-width="1"/>
          <path id="パス_129" data-name="パス 129" d="M644.216,677.755h-.425v-.425a.184.184,0,0,0-.368,0v.425H643a.184.184,0,1,0,0,.368h.426v.426a.184.184,0,0,0,.368,0v-.426h.425a.184.184,0,0,0,0-.368Z" transform="translate(-329.598 -320.39)" fill="#56b2e1" stroke="rgba(0,0,0,0)" stroke-width="1"/>
          <path id="パス_130" data-name="パス 130" d="M667.626,638.232h.426v.426a.183.183,0,0,0,.367,0v-.426h.426a.184.184,0,0,0,0-.367h-.426v-.426a.184.184,0,0,0-.367,0v.426h-.426a.184.184,0,1,0,0,.367Z" transform="translate(-336.88 -308.595)" fill="#56b2e1" stroke="rgba(0,0,0,0)" stroke-width="1"/>
          <path id="パス_131" data-name="パス 131" d="M663.032,638.084a.523.523,0,0,0-.523-.523h-.534a1.9,1.9,0,0,0-1.056-1.75,1.967,1.967,0,0,0-2.848,1.75H644.629a1.9,1.9,0,0,0-1.056-1.75,1.967,1.967,0,0,0-2.848,1.75h-.534a.522.522,0,0,0-.523.523v27.051a.522.522,0,0,0,.523.523h.534l.013-.119-.013.119a1.952,1.952,0,0,0,3.9,0l-.012-.119.012.119h13.443a1.9,1.9,0,0,0,1.056,1.75,1.967,1.967,0,0,0,2.848-1.75h.534a.522.522,0,0,0,.523-.523Zm-3.009-1.77a1.248,1.248,0,1,1-1.247,1.247,1.248,1.248,0,0,1,1.247-1.247Zm-17.346,0a1.248,1.248,0,1,1-1.248,1.247,1.248,1.248,0,0,1,1.248-1.247Zm-1.8,28.585a1.941,1.941,0,0,1,.368-.559,1.943,1.943,0,0,0-.366.56Zm1.8,2.007a1.248,1.248,0,1,1,1.247-1.247,1.248,1.248,0,0,1-1.247,1.247Zm-1.38-2.627a1.954,1.954,0,0,1,.987-.533,1.954,1.954,0,0,0-.984.532Zm1.773-.533a1.954,1.954,0,0,1,.987.533,1.954,1.954,0,0,0-.987-.533Zm1.037.594a1.932,1.932,0,0,1,.368.559,1.93,1.93,0,0,0-.368-.559Zm2.527-1.448-4.148-4.744V645.221l4.148-4.744h9.432l4.149,4.744v12.927l-4.149,4.744Zm13.389,4.013a1.248,1.248,0,1,1,1.248-1.247,1.248,1.248,0,0,1-1.248,1.247Z" transform="translate(-328.668 -308.109)" fill="#56b2e1" stroke="rgba(0,0,0,0)" stroke-width="1"/>
          <path id="パス_132" data-name="パス 132" d="M668.845,677.755h-.426v-.426a.184.184,0,0,0-.367,0v.426h-.426a.184.184,0,1,0,0,.368h.426v.426a.183.183,0,0,0,.367,0v-.426h.426a.184.184,0,0,0,0-.368Z" transform="translate(-336.88 -320.39)" fill="#56b2e1" stroke="rgba(0,0,0,0)" stroke-width="1"/>
        </g>
        <g id="グループ_34" data-name="グループ 34">
          <path id="パス_133" data-name="パス 133" d="M312,347.5h-4.747v-8H312Z" fill="#56b2e1" stroke="rgba(0,0,0,0)" stroke-width="1"/>
          <path id="パス_134" data-name="パス 134" d="M303.566,347.5H302v-8h1.566Z" fill="#56b2e1" stroke="rgba(0,0,0,0)" stroke-width="1"/>
          <path id="パス_135" data-name="パス 135" d="M307.429,346.2h-4.747v-5.4h4.747Z" fill="#56b2e1" stroke="rgba(0,0,0,0)" stroke-width="1"/>
        </g>
      </g>
    </g>
    <g id="グループ_43" data-name="グループ 43">
      <path id="パス_136" data-name="パス 136" d="M364,237v3H342v-3Z" fill="#787878"/>
      <path id="パス_137" data-name="パス 137" d="M364,249v3H342v-3Z" fill="#787878"/>
      <g id="グループ_42" data-name="グループ 42">
        <g id="グループ_39" data-name="グループ 39">
          <g id="グループ_37" data-name="グループ 37">
            <path id="パス_138" data-name="パス 138" d="M334,234.5h4.747v8H334Z" fill="#56b2e1" stroke="rgba(0,0,0,0)" stroke-width="1"/>
            <path id="パス_139" data-name="パス 139" d="M342.434,234.5H344v8h-1.566Z" fill="#56b2e1" stroke="rgba(0,0,0,0)" stroke-width="1"/>
            <path id="パス_140" data-name="パス 140" d="M338.571,235.8h4.747v5.4h-4.747Z" fill="#56b2e1" stroke="rgba(0,0,0,0)" stroke-width="1"/>
          </g>
          <g id="グループ_38" data-name="グループ 38">
            <path id="パス_141" data-name="パス 141" d="M334,246.5h4.747v8H334Z" fill="#56b2e1" stroke="rgba(0,0,0,0)" stroke-width="1"/>
            <path id="パス_142" data-name="パス 142" d="M342.434,246.5H344v8h-1.566Z" fill="#56b2e1" stroke="rgba(0,0,0,0)" stroke-width="1"/>
            <path id="パス_143" data-name="パス 143" d="M338.571,247.8h4.747v5.4h-4.747Z" fill="#56b2e1" stroke="rgba(0,0,0,0)" stroke-width="1"/>
          </g>
        </g>
        <g id="グループ_40" data-name="グループ 40">
          <path id="パス_144" data-name="パス 144" d="M643,638.232h.426v.426a.184.184,0,1,0,.368,0v-.426h.425a.184.184,0,1,0,0-.367h-.425v-.426a.184.184,0,0,0-.368,0v.426H643a.184.184,0,0,0,0,.367Z" transform="translate(-329.598 -407.595)" fill="#56b2e1" stroke="rgba(0,0,0,0)" stroke-width="1"/>
          <path id="パス_145" data-name="パス 145" d="M644.216,677.755h-.425v-.425a.184.184,0,0,0-.368,0v.425H643a.184.184,0,1,0,0,.368h.426v.426a.184.184,0,0,0,.368,0v-.426h.425a.184.184,0,0,0,0-.368Z" transform="translate(-329.598 -419.39)" fill="#56b2e1" stroke="rgba(0,0,0,0)" stroke-width="1"/>
          <path id="パス_146" data-name="パス 146" d="M667.626,638.232h.426v.426a.183.183,0,0,0,.367,0v-.426h.426a.184.184,0,0,0,0-.367h-.426v-.426a.184.184,0,0,0-.367,0v.426h-.426a.184.184,0,1,0,0,.367Z" transform="translate(-336.88 -407.595)" fill="#56b2e1" stroke="rgba(0,0,0,0)" stroke-width="1"/>
          <path id="パス_147" data-name="パス 147" d="M663.032,638.084a.523.523,0,0,0-.523-.523h-.534a1.9,1.9,0,0,0-1.056-1.75,1.967,1.967,0,0,0-2.848,1.75H644.629a1.9,1.9,0,0,0-1.056-1.75,1.967,1.967,0,0,0-2.848,1.75h-.534a.522.522,0,0,0-.523.523v27.051a.522.522,0,0,0,.523.523h.534l.013-.119-.013.119a1.952,1.952,0,0,0,3.9,0l-.012-.119.012.119h13.443a1.9,1.9,0,0,0,1.056,1.75,1.967,1.967,0,0,0,2.848-1.75h.534a.522.522,0,0,0,.523-.523Zm-3.009-1.77a1.248,1.248,0,1,1-1.247,1.247,1.248,1.248,0,0,1,1.247-1.247Zm-17.346,0a1.248,1.248,0,1,1-1.248,1.247,1.248,1.248,0,0,1,1.248-1.247Zm-1.8,28.585a1.941,1.941,0,0,1,.368-.559,1.943,1.943,0,0,0-.366.56Zm1.8,2.007a1.248,1.248,0,1,1,1.247-1.247,1.248,1.248,0,0,1-1.247,1.247Zm-1.38-2.627a1.954,1.954,0,0,1,.987-.533,1.954,1.954,0,0,0-.984.532Zm1.773-.533a1.954,1.954,0,0,1,.987.533,1.954,1.954,0,0,0-.987-.533Zm1.037.594a1.932,1.932,0,0,1,.368.559,1.93,1.93,0,0,0-.368-.559Zm2.527-1.448-4.148-4.744V645.221l4.148-4.744h9.432l4.149,4.744v12.927l-4.149,4.744Zm13.389,4.013a1.248,1.248,0,1,1,1.248-1.247,1.248,1.248,0,0,1-1.248,1.247Z" transform="translate(-328.668 -407.109)" fill="#56b2e1" stroke="rgba(0,0,0,0)" stroke-width="1"/>
          <path id="パス_148" data-name="パス 148" d="M668.845,677.755h-.426v-.426a.184.184,0,0,0-.367,0v.426h-.426a.184.184,0,1,0,0,.368h.426v.426a.183.183,0,0,0,.367,0v-.426h.426a.184.184,0,0,0,0-.368Z" transform="translate(-336.88 -419.39)" fill="#56b2e1" stroke="rgba(0,0,0,0)" stroke-width="1"/>
        </g>
        <g id="グループ_41" data-name="グループ 41">
          <path id="パス_149" data-name="パス 149" d="M312,248.5h-4.747v-8H312Z" fill="#56b2e1" stroke="rgba(0,0,0,0)" stroke-width="1"/>
          <path id="パス_150" data-name="パス 150" d="M303.566,248.5H302v-8h1.566Z" fill="#56b2e1" stroke="rgba(0,0,0,0)" stroke-width="1"/>
          <path id="パス_151" data-name="パス 151" d="M307.429,247.2h-4.747v-5.4h4.747Z" fill="#56b2e1" stroke="rgba(0,0,0,0)" stroke-width="1"/>
        </g>
      </g>
    </g>
    <g id="グループ_50" data-name="グループ 50">
      <path id="パス_152" data-name="パス 152" d="M364,435v3H342v-3Z" fill="#787878"/>
      <path id="パス_153" data-name="パス 153" d="M364,447v3H342v-3Z" fill="#787878"/>
      <g id="グループ_49" data-name="グループ 49">
        <g id="グループ_46" data-name="グループ 46">
          <g id="グループ_44" data-name="グループ 44">
            <path id="パス_154" data-name="パス 154" d="M334,432.5h4.747v8H334Z" fill="#56b2e1" stroke="rgba(0,0,0,0)" stroke-width="1"/>
            <path id="パス_155" data-name="パス 155" d="M342.434,432.5H344v8h-1.566Z" fill="#56b2e1" stroke="rgba(0,0,0,0)" stroke-width="1"/>
            <path id="パス_156" data-name="パス 156" d="M338.571,433.8h4.747v5.4h-4.747Z" fill="#56b2e1" stroke="rgba(0,0,0,0)" stroke-width="1"/>
          </g>
          <g id="グループ_45" data-name="グループ 45">
            <path id="パス_157" data-name="パス 157" d="M334,444.5h4.747v8H334Z" fill="#56b2e1" stroke="rgba(0,0,0,0)" stroke-width="1"/>
            <path id="パス_158" data-name="パス 158" d="M342.434,444.5H344v8h-1.566Z" fill="#56b2e1" stroke="rgba(0,0,0,0)" stroke-width="1"/>
            <path id="パス_159" data-name="パス 159" d="M338.571,445.8h4.747v5.4h-4.747Z" fill="#56b2e1" stroke="rgba(0,0,0,0)" stroke-width="1"/>
          </g>
        </g>
        <g id="グループ_47" data-name="グループ 47">
          <path id="パス_160" data-name="パス 160" d="M643,638.232h.426v.426a.184.184,0,1,0,.368,0v-.426h.425a.184.184,0,1,0,0-.367h-.425v-.426a.184.184,0,0,0-.368,0v.426H643a.184.184,0,0,0,0,.367Z" transform="translate(-329.598 -209.595)" fill="#56b2e1" stroke="rgba(0,0,0,0)" stroke-width="1"/>
          <path id="パス_161" data-name="パス 161" d="M644.216,677.755h-.425v-.425a.184.184,0,0,0-.368,0v.425H643a.184.184,0,1,0,0,.368h.426v.426a.184.184,0,0,0,.368,0v-.426h.425a.184.184,0,0,0,0-.368Z" transform="translate(-329.598 -221.39)" fill="#56b2e1" stroke="rgba(0,0,0,0)" stroke-width="1"/>
          <path id="パス_162" data-name="パス 162" d="M667.626,638.232h.426v.426a.183.183,0,0,0,.367,0v-.426h.426a.184.184,0,0,0,0-.367h-.426v-.426a.184.184,0,0,0-.367,0v.426h-.426a.184.184,0,1,0,0,.367Z" transform="translate(-336.88 -209.595)" fill="#56b2e1" stroke="rgba(0,0,0,0)" stroke-width="1"/>
          <path id="パス_163" data-name="パス 163" d="M663.032,638.084a.523.523,0,0,0-.523-.523h-.534a1.9,1.9,0,0,0-1.056-1.75,1.967,1.967,0,0,0-2.848,1.75H644.629a1.9,1.9,0,0,0-1.056-1.75,1.967,1.967,0,0,0-2.848,1.75h-.534a.522.522,0,0,0-.523.523v27.051a.522.522,0,0,0,.523.523h.534l.013-.119-.013.119a1.952,1.952,0,0,0,3.9,0l-.012-.119.012.119h13.443a1.9,1.9,0,0,0,1.056,1.75,1.967,1.967,0,0,0,2.848-1.75h.534a.522.522,0,0,0,.523-.523Zm-3.009-1.77a1.248,1.248,0,1,1-1.247,1.247,1.248,1.248,0,0,1,1.247-1.247Zm-17.346,0a1.248,1.248,0,1,1-1.248,1.247,1.248,1.248,0,0,1,1.248-1.247Zm-1.8,28.585a1.941,1.941,0,0,1,.368-.559,1.943,1.943,0,0,0-.366.56Zm1.8,2.007a1.248,1.248,0,1,1,1.247-1.247,1.248,1.248,0,0,1-1.247,1.247Zm-1.38-2.627a1.954,1.954,0,0,1,.987-.533,1.954,1.954,0,0,0-.984.532Zm1.773-.533a1.954,1.954,0,0,1,.987.533,1.954,1.954,0,0,0-.987-.533Zm1.037.594a1.932,1.932,0,0,1,.368.559,1.93,1.93,0,0,0-.368-.559Zm2.527-1.448-4.148-4.744V645.221l4.148-4.744h9.432l4.149,4.744v12.927l-4.149,4.744Zm13.389,4.013a1.248,1.248,0,1,1,1.248-1.247,1.248,1.248,0,0,1-1.248,1.247Z" transform="translate(-328.668 -209.109)" fill="#56b2e1" stroke="rgba(0,0,0,0)" stroke-width="1"/>
          <path id="パス_164" data-name="パス 164" d="M668.845,677.755h-.426v-.426a.184.184,0,0,0-.367,0v.426h-.426a.184.184,0,1,0,0,.368h.426v.426a.183.183,0,0,0,.367,0v-.426h.426a.184.184,0,0,0,0-.368Z" transform="translate(-336.88 -221.39)" fill="#56b2e1" stroke="rgba(0,0,0,0)" stroke-width="1"/>
        </g>
        <g id="グループ_48" data-name="グループ 48">
          <path id="パス_165" data-name="パス 165" d="M312,446.5h-4.747v-8H312Z" fill="#56b2e1" stroke="rgba(0,0,0,0)" stroke-width="1"/>
          <path id="パス_166" data-name="パス 166" d="M303.566,446.5H302v-8h1.566Z" fill="#56b2e1" stroke="rgba(0,0,0,0)" stroke-width="1"/>
          <path id="パス_167" data-name="パス 167" d="M307.429,445.2h-4.747v-5.4h4.747Z" fill="#56b2e1" stroke="rgba(0,0,0,0)" stroke-width="1"/>
        </g>
      </g>
    </g>
    <g id="グループ_51" data-name="グループ 51">
      <path id="パス_168" data-name="パス 168" d="M958,593H545V552H958Z" fill="#fff"/>
      <path id="パス_169" data-name="パス 169" d="M546,553v39H957V553H546m-2-2H959v43H544Z" fill="#e15656"/>
    </g>
    <g id="グループ_52" data-name="グループ 52">
      <path id="パス_170" data-name="パス 170" d="M782,433h53v30H782Z" fill="none"/>
      <path id="パス_171" data-name="パス 171" d="M788,433h4v2h-4Zm6,0h4v2h-4Zm6,0h4v2h-4Zm6,0h4v2h-4Zm6,0h4v2h-4Zm6,0h4v2h-4Zm6,0h4v2h-4Zm6,0h4v1h1v4h-2v-3h-3Zm3,7h2v4h-2Zm0,6h2v4h-2Zm0,6h2v4h-2Zm0,6h2v4h-1v1h-4v-2h3Zm-9,3h4v2h-4Zm-6,0h4v2h-4Zm-6,0h4v2h-4Zm-6,0h4v2h-4Zm-6,0h4v2h-4Zm-6,0h4v2h-4Zm-6,0h4v2h-4Zm-6,0h4v2h-4Zm0-4h2v4h-2Zm0-6h2v4h-2Zm0-6h2v4h-2Zm0-6h2v4h-2Zm0-6h4v2h-2v2h-2Z" fill="#e15656"/>
    </g>
    <text id="光対応_4K8K衛星放送アダプター_有料_" data-name="光対応 4K8K衛星放送アダプター(有料)" transform="translate(610 580)" font-size="18" font-family="YuGothicUI-Regular, Yu Gothic UI"><tspan x="0" y="0">光対応</tspan><tspan y="0" xml:space="preserve" font-family="SegoeUI, Segoe UI"> 4K8K</tspan><tspan y="0">衛星放送アダプター</tspan><tspan y="0" font-family="SegoeUI, Segoe UI">(</tspan><tspan y="0">有料</tspan><tspan y="0" font-family="SegoeUI, Segoe UI">)</tspan></text>
    <path id="パス_172" data-name="パス 172" d="M122,442.5H99.782" fill="none" stroke="#787878" stroke-width="3" stroke-dasharray="4 2"/>
    <path id="パス_173" data-name="パス 173" d="M196,442.5H164" fill="none" stroke="#787878" stroke-width="3" stroke-dasharray="4 2"/>
    <g id="グループ_53" data-name="グループ 53">
      <path id="パス_174" data-name="パス 174" d="M474,593H61V552H474Z" fill="#fff"/>
      <path id="パス_175" data-name="パス 175" d="M62,553v39H473V553H62m-2-2H475v43H60Z" fill="#e15656"/>
    </g>
    <text id="光対応_4K8K衛星放送アダプター_有料_2" data-name="光対応 4K8K衛星放送アダプター(有料)" transform="translate(126 580)" font-size="18" font-family="YuGothicUI-Regular, Yu Gothic UI"><tspan x="0" y="0">光対応</tspan><tspan y="0" xml:space="preserve" font-family="SegoeUI, Segoe UI"> 4K8K</tspan><tspan y="0">衛星放送アダプター</tspan><tspan y="0" font-family="SegoeUI, Segoe UI">(</tspan><tspan y="0">有料</tspan><tspan y="0" font-family="SegoeUI, Segoe UI">)</tspan></text>
    <path id="パス_176" data-name="パス 176" d="M146.89,454H120V432h26.89Zm-6.111-16.5h4.277v-3.668h-4.277ZM164,454H148.723V432H164Zm-13.443-16.5h3.668v-3.668h-3.668Z" fill="#e15656"/>
    <g id="グループ_54" data-name="グループ 54">
      <path id="パス_177" data-name="パス 177" d="M116,428h53v30H116Z" fill="none"/>
      <path id="パス_178" data-name="パス 178" d="M122,428h4v2h-4Zm6,0h4v2h-4Zm6,0h4v2h-4Zm6,0h4v2h-4Zm6,0h4v2h-4Zm6,0h4v2h-4Zm6,0h4v2h-4Zm6,0h4v1h1v4h-2v-3h-3Zm3,7h2v4h-2Zm0,6h2v4h-2Zm0,6h2v4h-2Zm0,6h2v4h-1v1h-4v-2h3Zm-9,3h4v2h-4Zm-6,0h4v2h-4Zm-6,0h4v2h-4Zm-6,0h4v2h-4Zm-6,0h4v2h-4Zm-6,0h4v2h-4Zm-6,0h4v2h-4Zm-6,0h4v2h-4Zm0-4h2v4h-2Zm0-6h2v4h-2Zm0-6h2v4h-2Zm0-6h2v4h-2Zm0-6h4v2h-2v2h-2Z" fill="#e15656"/>
    </g>
    <path id="パス_179" data-name="パス 179" d="M142.5,457.5v94" fill="none" stroke="#e15656" stroke-width="2"/>
    <path id="パス_180" data-name="パス 180" d="M808.5,461.5v90" fill="none" stroke="#e15656" stroke-width="2"/>
    <text id="分波器-2" data-name="分波器" transform="translate(302 478)" font-size="14" font-family="YuGothicUI-Regular, Yu Gothic UI"><tspan x="0" y="0">分波器</tspan></text>
    <text id="分波器-3" data-name="分波器" transform="translate(302 385)" font-size="14" font-family="YuGothicUI-Regular, Yu Gothic UI"><tspan x="0" y="0">分波器</tspan></text>
    <text id="分波器-4" data-name="分波器" transform="translate(787 386)" font-size="14" font-family="YuGothicUI-Regular, Yu Gothic UI"><tspan x="0" y="0">分波器</tspan></text>
    <text id="分波器-5" data-name="分波器" transform="translate(302 286)" font-size="14" font-family="YuGothicUI-Regular, Yu Gothic UI"><tspan x="0" y="0">分波器</tspan></text>
    <g id="グループ_57" data-name="グループ 57">
      <g id="グループ_55" data-name="グループ 55">
        <path id="パス_181" data-name="パス 181" d="M576.646,447.654V443.76h5v3.894Z" fill="#f4ad16"/>
        <path id="パス_182" data-name="パス 182" d="M581.649,437.406V441.3h-5v-3.894Z" fill="#f4ad16"/>
      </g>
      <g id="グループ_56" data-name="グループ 56">
        <path id="パス_183" data-name="パス 183" d="M582,444.706v-.946h5v.946Z" fill="#f4ad16"/>
        <path id="パス_184" data-name="パス 184" d="M582,446v-.946h5V446Z" fill="#f4ad16"/>
        <path id="パス_185" data-name="パス 185" d="M582,447.3v-.946h5v.946Z" fill="#f4ad16"/>
        <path id="パス_186" data-name="パス 186" d="M587,440.354v.946h-5v-.946Z" fill="#f4ad16"/>
        <path id="パス_187" data-name="パス 187" d="M587,439.056V440h-5v-.946Z" fill="#f4ad16"/>
        <path id="パス_188" data-name="パス 188" d="M587,437.758v.946h-5v-.946Z" fill="#f4ad16"/>
      </g>
      <path id="パス_189" data-name="パス 189" d="M576.071,443v-.946h7.819V443Z" fill="#f4ad16"/>
      <path id="パス_190" data-name="パス 190" d="M570.164,448V437H576.3v11Z" fill="#f4ad16"/>
      <path id="パス_191" data-name="パス 191" d="M568,440.286v4.428l1.817.757v-5.942Z" fill="#f4ad16"/>
    </g>
  </g>
  <g id="グループ_61" data-name="グループ 61">
    <g id="グループ_59" data-name="グループ 59">
      <path id="パス_192" data-name="パス 192" d="M91.646,447.654V443.76h5v3.894Z" fill="#f4ad16"/>
      <path id="パス_193" data-name="パス 193" d="M96.649,437.406V441.3h-5v-3.894Z" fill="#f4ad16"/>
    </g>
    <g id="グループ_60" data-name="グループ 60">
      <path id="パス_194" data-name="パス 194" d="M97,444.706v-.946h5v.946Z" fill="#f4ad16"/>
      <path id="パス_195" data-name="パス 195" d="M97,446v-.946h5V446Z" fill="#f4ad16"/>
      <path id="パス_196" data-name="パス 196" d="M97,447.3v-.946h5v.946Z" fill="#f4ad16"/>
      <path id="パス_197" data-name="パス 197" d="M102,440.354v.946H97v-.946Z" fill="#f4ad16"/>
      <path id="パス_198" data-name="パス 198" d="M102,439.056V440H97v-.946Z" fill="#f4ad16"/>
      <path id="パス_199" data-name="パス 199" d="M102,437.758v.946H97v-.946Z" fill="#f4ad16"/>
    </g>
    <path id="パス_200" data-name="パス 200" d="M91.071,443v-.946H98.89V443Z" fill="#f4ad16"/>
    <path id="パス_201" data-name="パス 201" d="M85.164,448V437H91.3v11Z" fill="#f4ad16"/>
    <path id="パス_202" data-name="パス 202" d="M83,440.286v4.428l1.817.757v-5.942Z" fill="#f4ad16"/>
  </g>
</svg>
