<svg xmlns="http://www.w3.org/2000/svg" width="361" height="912" viewBox="0 0 361 912">
  <g id="img_cs4k_sp" transform="translate(-5107 200)">
    <g id="長方形_3394" data-name="長方形 3394" transform="translate(5107 -200)" fill="#fff" stroke="#d0d0d0" stroke-width="1">
      <rect width="361" height="912" stroke="none"/>
      <rect x="0.5" y="0.5" width="360" height="911" fill="none"/>
    </g>
    <rect id="長方形_3394-2" data-name="長方形 3394" width="313" height="392" transform="translate(5131 -176)" fill="#efefef"/>
    <rect id="長方形_3394-3" data-name="長方形 3394" width="313" height="444" transform="translate(5131 244)" fill="#efefef"/>
    <g id="グループ" transform="translate(-7)">
      <text id="テレビ" transform="translate(5179.652 -133)" font-size="16" font-family="NotoSansCJKjp-Medium, Noto Sans CJK JP" font-weight="500" letter-spacing="-0.02em"><tspan x="0" y="0">テレビ</tspan></text>
      <text id="本体" transform="translate(5226.652 -133)" font-size="16" font-family="NotoSansCJKjp-Medium, Noto Sans CJK JP" font-weight="500" letter-spacing="-0.02em"><tspan x="0" y="0">本体</tspan></text>
      <text id="で" transform="translate(5258.652 -133)" font-size="16" font-family="NotoSansCJKjp-Medium, Noto Sans CJK JP" font-weight="500" letter-spacing="-0.02em"><tspan x="0" y="0">で</tspan></text>
      <text id="_4" data-name="「4" transform="translate(5266.672 -133)" font-size="16" font-family="NotoSansCJKjp-Medium, Noto Sans CJK JP" font-weight="500" letter-spacing="-0.02em"><tspan x="0" y="0">「4</tspan></text>
      <text id="K8K" transform="translate(5291.992 -133)" font-size="16" font-family="NotoSansCJKjp-Medium, Noto Sans CJK JP" font-weight="500" letter-spacing="-0.02em"><tspan x="0" y="0">K8K</tspan></text>
      <text id="衛星放送_" data-name="衛星放送」" transform="translate(5321.992 -133)" font-size="16" font-family="NotoSansCJKjp-Medium, Noto Sans CJK JP" font-weight="500" letter-spacing="-0.02em"><tspan x="0" y="0">衛星放送」</tspan></text>
      <text id="を" transform="translate(5395.992 -133)" font-size="16" font-family="NotoSansCJKjp-Medium, Noto Sans CJK JP" font-weight="500" letter-spacing="-0.02em"><tspan x="0" y="0">を</tspan></text>
      <text id="受信可能" transform="translate(5172.832 -109)" font-size="16" font-family="NotoSansCJKjp-Medium, Noto Sans CJK JP" font-weight="500" letter-spacing="-0.02em"><tspan x="0" y="0">受信可能</tspan></text>
      <text id="な4" transform="translate(5235.832 -109)" font-size="16" font-family="NotoSansCJKjp-Medium, Noto Sans CJK JP" font-weight="500" letter-spacing="-0.02em"><tspan x="0" y="0">な4</tspan></text>
      <text id="K" transform="translate(5260.832 -109)" font-size="16" font-family="NotoSansCJKjp-Medium, Noto Sans CJK JP" font-weight="500" letter-spacing="-0.02em"><tspan x="0" y="0">K</tspan></text>
      <text id="テレビ_8" data-name="テレビ・8" transform="translate(5271.832 -109)" font-size="16" font-family="NotoSansCJKjp-Medium, Noto Sans CJK JP" font-weight="500" letter-spacing="-0.02em"><tspan x="0" y="0">テレビ・8</tspan></text>
      <text id="K-2" data-name="K" transform="translate(5343.832 -109)" font-size="16" font-family="NotoSansCJKjp-Medium, Noto Sans CJK JP" font-weight="500" letter-spacing="-0.02em"><tspan x="0" y="0">K</tspan></text>
      <text id="テレビ_" data-name="テレビ＋" transform="translate(5354.832 -109)" font-size="16" font-family="NotoSansCJKjp-Medium, Noto Sans CJK JP" font-weight="500" letter-spacing="-0.02em"><tspan x="0" y="0">テレビ＋</tspan></text>
      <text id="光対応_4" data-name="光対応 4" transform="translate(5160.152 -85)" font-size="16" font-family="NotoSansCJKjp-Medium, Noto Sans CJK JP" font-weight="500" letter-spacing="-0.02em"><tspan x="0" y="0">光対応 4</tspan></text>
      <text id="K8K-2" data-name="K8K" transform="translate(5219.152 -85)" font-size="16" font-family="NotoSansCJKjp-Medium, Noto Sans CJK JP" font-weight="500" letter-spacing="-0.02em"><tspan x="0" y="0">K8K</tspan></text>
      <text id="衛星放送" transform="translate(5249.152 -85)" font-size="16" font-family="NotoSansCJKjp-Medium, Noto Sans CJK JP" font-weight="500" letter-spacing="-0.02em"><tspan x="0" y="0">衛星放送</tspan></text>
      <text id="アダプター" transform="translate(5312.152 -85)" font-size="16" font-family="NotoSansCJKjp-Medium, Noto Sans CJK JP" font-weight="500" letter-spacing="-0.02em"><tspan x="0" y="0">アダプター</tspan></text>
      <text id="_有料_" data-name="(有料)" transform="translate(5391.152 -85)" font-size="16" font-family="NotoSansCJKjp-Medium, Noto Sans CJK JP" font-weight="500" letter-spacing="-0.02em"><tspan x="0" y="0">(有料)</tspan></text>
    </g>
    <g id="グループ_15996" data-name="グループ 15996" transform="translate(5228.063 112)">
      <g id="グループ_15814" data-name="グループ 15814" transform="translate(0 -33.18)">
        <g id="グループ_6505" data-name="グループ 6505">
          <path id="パス_2392" data-name="パス 2392" d="M1193.24,1629.97h34.154a5.149,5.149,0,0,0,5.141-5.17v-58a5.159,5.159,0,0,0-5.141-5.17h-109.7a5.167,5.167,0,0,0-5.153,5.17v58a5.156,5.156,0,0,0,5.153,5.17h75.553Zm-20.7-2.876a.824.824,0,1,1,.827-.823.824.824,0,0,1-.827.823Zm53.083-5.964a1.109,1.109,0,0,1-1.108,1.107H1120.56a1.109,1.109,0,0,1-1.107-1.107v-50.663a1.108,1.108,0,0,1,1.107-1.107h103.954a1.108,1.108,0,0,1,1.108,1.107Z" transform="translate(-1112.536 -1561.625)" fill="#787878"/>
        </g>
        <g id="グループ_6506" data-name="グループ 6506" transform="translate(24.191 71.721)">
          <path id="パス_2393" data-name="パス 2393" d="M1134.04,1601.08h-.2l-.184.083-6.338,2.958a2.545,2.545,0,0,0,2.149,4.615l12.7-5.924,3.712-1.733h-11.837Z" transform="translate(-1125.843 -1601.076)" fill="#787878"/>
          <path id="パス_2394" data-name="パス 2394" d="M1174.94,1605.52a2.524,2.524,0,0,0-1.334-1.42l-6.517-2.949-.178-.08h-12.348l3.839,1.736,13.108,5.93a2.546,2.546,0,0,0,3.431-3.218Z" transform="translate(-1102.352 -1601.076)" fill="#787878"/>
        </g>
        <rect id="長方形_4834" data-name="長方形 4834" width="93.444" height="40.151" rx="1.455" transform="translate(13.278 14.096)" fill="#787878"/>
      </g>
      <text id="_4Kテレビ_8Kテレビ" data-name="4Kテレビ・8Kテレビ" transform="translate(7 71)" font-size="15" font-family="SegoeUI, Segoe UI"><tspan x="0" y="0">4K</tspan><tspan y="0" font-family="YuGothicUI-Regular, Yu Gothic UI">テレビ・</tspan><tspan y="0">8K</tspan><tspan y="0" font-family="YuGothicUI-Regular, Yu Gothic UI">テレビ</tspan></text>
    </g>
    <g id="グループ_16451" data-name="グループ 16451" transform="translate(3 -48)">
      <g id="グループ_15998" data-name="グループ 15998" transform="translate(5147.063 406)">
        <g id="グループ-2" data-name="グループ" transform="translate(-4.5)">
          <text id="_4-2" data-name="4" transform="translate(17.438 142)" font-size="15" font-family="SegoeUI, Segoe UI"><tspan x="0" y="0">4</tspan></text>
          <text id="K8K-3" data-name="K8K" transform="translate(26.423 142)" font-size="15" font-family="SegoeUI, Segoe UI"><tspan x="0" y="0">K8K</tspan></text>
          <text id="衛星放送-2" data-name="衛星放送" transform="translate(51.423 142)" font-size="15" font-family="YuGothicUI-Regular, Yu Gothic UI"><tspan x="0" y="0">衛星放送</tspan></text>
          <text id="対応" transform="translate(22.438 165)" font-size="15" font-family="YuGothicUI-Regular, Yu Gothic UI"><tspan x="0" y="0">対応</tspan></text>
          <text id="チューナー" transform="translate(52.438 165)" font-size="15" font-family="YuGothicUI-Regular, Yu Gothic UI"><tspan x="0" y="0">チューナー</tspan></text>
        </g>
        <path id="パス_3770" data-name="パス 3770" d="M89.532,360.721H1.817A1.817,1.817,0,0,0,0,362.538v18.408a1.817,1.817,0,0,0,1.817,1.817H5.529v2.273A2.676,2.676,0,0,0,8.2,387.712h0a2.676,2.676,0,0,0,2.676-2.676v-2.273H80.467v2.273a2.676,2.676,0,0,0,2.676,2.676h0a2.676,2.676,0,0,0,2.676-2.676v-2.273h3.712a1.817,1.817,0,0,0,1.817-1.817V362.538a1.817,1.817,0,0,0-1.816-1.817Zm-74.82,13.571H11.261a1.307,1.307,0,0,1-1.307-1.307v-2.738a1.307,1.307,0,0,1,1.307-1.307h3.451a1.307,1.307,0,0,1,1.307,1.307v2.738a1.307,1.307,0,0,1-1.307,1.307Zm13.516,0H24.777a1.307,1.307,0,0,1-1.307-1.307v-2.738a1.307,1.307,0,0,1,1.307-1.307h3.451a1.307,1.307,0,0,1,1.307,1.307v2.738a1.307,1.307,0,0,1-1.307,1.307Zm49.5,0H60.642a1.307,1.307,0,0,1-1.307-1.307v-2.738a1.307,1.307,0,0,1,1.307-1.307H77.73a1.307,1.307,0,0,1,1.307,1.307v2.738a1.307,1.307,0,0,1-1.307,1.307Z" transform="translate(12.938 -296.721)" fill="#787878"/>
      </g>
      <g id="グループ_15997" data-name="グループ 15997" transform="translate(5290.064 392.18)">
        <g id="グループ_15814-2" data-name="グループ 15814" transform="translate(0.935 51.82)">
          <g id="グループ_6505-2" data-name="グループ 6505">
            <path id="パス_2392-2" data-name="パス 2392" d="M1193.24,1629.97h34.154a5.149,5.149,0,0,0,5.141-5.17v-58a5.159,5.159,0,0,0-5.141-5.17h-109.7a5.167,5.167,0,0,0-5.153,5.17v58a5.156,5.156,0,0,0,5.153,5.17h75.553Zm-20.7-2.876a.824.824,0,1,1,.827-.823.824.824,0,0,1-.827.823Zm53.083-5.964a1.109,1.109,0,0,1-1.108,1.107H1120.56a1.109,1.109,0,0,1-1.107-1.107v-50.663a1.108,1.108,0,0,1,1.107-1.107h103.954a1.108,1.108,0,0,1,1.108,1.107Z" transform="translate(-1112.536 -1561.625)" fill="#787878"/>
          </g>
          <g id="グループ_6506-2" data-name="グループ 6506" transform="translate(24.191 71.721)">
            <path id="パス_2393-2" data-name="パス 2393" d="M1134.04,1601.08h-.2l-.184.083-6.338,2.958a2.545,2.545,0,0,0,2.149,4.615l12.7-5.924,3.712-1.733h-11.837Z" transform="translate(-1125.843 -1601.076)" fill="#787878"/>
            <path id="パス_2394-2" data-name="パス 2394" d="M1174.94,1605.52a2.524,2.524,0,0,0-1.334-1.42l-6.517-2.949-.178-.08h-12.348l3.839,1.736,13.108,5.93a2.546,2.546,0,0,0,3.431-3.218Z" transform="translate(-1102.352 -1601.076)" fill="#787878"/>
          </g>
          <rect id="長方形_4834-2" data-name="長方形 4834" width="93.444" height="40.151" rx="1.455" transform="translate(13.278 14.096)" fill="#787878"/>
        </g>
        <g id="グループ-3" data-name="グループ" transform="translate(10.256)">
          <text id="_4K" data-name="4K" transform="translate(6.929 154.82)" font-size="15" font-family="SegoeUI, Segoe UI"><tspan x="0" y="0">4K</tspan></text>
          <text id="対応-2" data-name="対応" transform="translate(23.929 154.82)" font-size="15" font-family="YuGothicUI-Regular, Yu Gothic UI"><tspan x="0" y="0">対応</tspan></text>
          <text id="テレビ_2" data-name="テレビ・" transform="translate(53.929 154.82)" font-size="15" font-family="YuGothicUI-Regular, Yu Gothic UI"><tspan x="0" y="0">テレビ・</tspan></text>
          <text id="_8" data-name="8" transform="translate(10.429 177.82)" font-size="15" font-family="SegoeUI, Segoe UI"><tspan x="0" y="0">8</tspan></text>
          <text id="K-3" data-name="K" transform="translate(18.429 177.82)" font-size="15" font-family="SegoeUI, Segoe UI"><tspan x="0" y="0">K</tspan></text>
          <text id="対応-3" data-name="対応" transform="translate(27.429 177.82)" font-size="15" font-family="YuGothicUI-Regular, Yu Gothic UI"><tspan x="0" y="0">対応</tspan></text>
          <text id="テレビ-2" data-name="テレビ" transform="translate(57.429 177.82)" font-size="15" font-family="YuGothicUI-Regular, Yu Gothic UI"><tspan x="0" y="0">テレビ</tspan></text>
        </g>
      </g>
    </g>
    <g id="グループ_16000" data-name="グループ 16000" transform="translate(5207.092 504)">
      <g id="グループ-4" data-name="グループ" transform="translate(3)">
        <text id="光対応_4-2" data-name="光対応 4" transform="translate(31.213 136)" font-size="15" font-family="YuGothicUI-Regular, Yu Gothic UI"><tspan x="0" y="0">光対応</tspan><tspan y="0" xml:space="preserve" font-family="SegoeUI, Segoe UI"> 4</tspan></text>
        <text id="K8K-4" data-name="K8K" transform="translate(88.213 136)" font-size="15" font-family="SegoeUI, Segoe UI"><tspan x="0" y="0">K8K</tspan></text>
        <text id="衛星放送-3" data-name="衛星放送" transform="translate(-8.592 159)" font-size="15" font-family="YuGothicUI-Regular, Yu Gothic UI"><tspan x="0" y="0">衛星放送</tspan></text>
        <text id="アダプター-2" data-name="アダプター" transform="translate(51.408 159)" font-size="15" font-family="YuGothicUI-Regular, Yu Gothic UI"><tspan x="0" y="0">アダプター</tspan></text>
        <text id="_有料_2" data-name="（有料）" transform="translate(101.408 159)" font-size="15" font-family="YuGothicUI-Regular, Yu Gothic UI"><tspan x="0" y="0">（有料）</tspan></text>
      </g>
      <g id="グループ_15910" data-name="グループ 15910" transform="translate(51 82)">
        <rect id="長方形_7782" data-name="長方形 7782" width="34" height="29" transform="translate(-0.092)" fill="#787878"/>
        <rect id="長方形_7783" data-name="長方形 7783" width="20" height="29" transform="translate(36.908)" fill="#787878"/>
        <rect id="長方形_7784" data-name="長方形 7784" width="5" height="6" transform="translate(26.908 2)" fill="#fff"/>
        <rect id="長方形_7785" data-name="長方形 7785" width="5" height="6" transform="translate(38.908 2)" fill="#fff"/>
      </g>
    </g>
    <g id="グループ_16001" data-name="グループ 16001" transform="translate(5273.037 540)">
      <circle id="楕円形_250" data-name="楕円形 250" cx="15" cy="15" r="15" transform="translate(-0.037)" fill="#787878"/>
      <text id="_" data-name="＋" transform="translate(5.463 22)" fill="#fff" font-size="19" font-family="NotoSansCJKjp-Bold, Noto Sans CJK JP" font-weight="700"><tspan x="0" y="0">＋</tspan></text>
    </g>
    <g id="グループ_16002" data-name="グループ 16002" transform="translate(5273.037 34)">
      <circle id="楕円形_250-2" data-name="楕円形 250" cx="15" cy="15" r="15" transform="translate(-0.037)" fill="#787878"/>
      <text id="_2" data-name="＋" transform="translate(5.463 22)" fill="#fff" font-size="19" font-family="NotoSansCJKjp-Bold, Noto Sans CJK JP" font-weight="700"><tspan x="0" y="0">＋</tspan></text>
    </g>
    <g id="グループ-5" data-name="グループ">
      <text id="_4-3" data-name="「4" transform="translate(5146.812 295)" font-size="16" font-family="NotoSansCJKjp-Medium, Noto Sans CJK JP" font-weight="500" letter-spacing="-0.02em"><tspan x="0" y="0">「4</tspan></text>
      <text id="K8K-5" data-name="K8K" transform="translate(5171.312 295)" font-size="16" font-family="NotoSansCJKjp-Medium, Noto Sans CJK JP" font-weight="500" letter-spacing="-0.02em"><tspan x="0" y="0">K8K</tspan></text>
      <text id="衛星放送_対応" data-name="衛星放送」対応" transform="translate(5201.312 295)" font-size="16" font-family="NotoSansCJKjp-Medium, Noto Sans CJK JP" font-weight="500" letter-spacing="-0.02em"><tspan x="0" y="0">衛星放送」対応</tspan></text>
      <text id="のチューナーと" transform="translate(5311.312 295)" font-size="16" font-family="NotoSansCJKjp-Medium, Noto Sans CJK JP" font-weight="500" letter-spacing="-0.02em"><tspan x="0" y="0">のチューナーと</tspan></text>
      <text id="_4-4" data-name="4" transform="translate(5171.672 319)" font-size="16" font-family="NotoSansCJKjp-Medium, Noto Sans CJK JP" font-weight="500" letter-spacing="-0.02em"><tspan x="0" y="0">4</tspan></text>
      <text id="K-4" data-name="K" transform="translate(5180.672 319)" font-size="16" font-family="NotoSansCJKjp-Medium, Noto Sans CJK JP" font-weight="500" letter-spacing="-0.02em"><tspan x="0" y="0">K</tspan></text>
      <text id="対応-4" data-name="対応" transform="translate(5191.672 319)" font-size="16" font-family="NotoSansCJKjp-Medium, Noto Sans CJK JP" font-weight="500" letter-spacing="-0.02em"><tspan x="0" y="0">対応</tspan></text>
      <text id="テレビ_8-2" data-name="テレビ・8" transform="translate(5223.672 319)" font-size="16" font-family="NotoSansCJKjp-Medium, Noto Sans CJK JP" font-weight="500" letter-spacing="-0.02em"><tspan x="0" y="0">テレビ・8</tspan></text>
      <text id="K-5" data-name="K" transform="translate(5295.672 319)" font-size="16" font-family="NotoSansCJKjp-Medium, Noto Sans CJK JP" font-weight="500" letter-spacing="-0.02em"><tspan x="0" y="0">K</tspan></text>
      <text id="対応-5" data-name="対応" transform="translate(5306.672 319)" font-size="16" font-family="NotoSansCJKjp-Medium, Noto Sans CJK JP" font-weight="500" letter-spacing="-0.02em"><tspan x="0" y="0">対応</tspan></text>
      <text id="テレビの" transform="translate(5338.672 319)" font-size="16" font-family="NotoSansCJKjp-Medium, Noto Sans CJK JP" font-weight="500" letter-spacing="-0.02em"><tspan x="0" y="0">テレビの</tspan></text>
      <text id="組" transform="translate(5212.64 343)" font-size="16" font-family="NotoSansCJKjp-Medium, Noto Sans CJK JP" font-weight="500" letter-spacing="-0.02em"><tspan x="0" y="0">組</tspan></text>
      <text id="み" transform="translate(5228.64 343)" font-size="16" font-family="NotoSansCJKjp-Medium, Noto Sans CJK JP" font-weight="500" letter-spacing="-0.02em"><tspan x="0" y="0">み</tspan></text>
      <text id="合" transform="translate(5244.64 343)" font-size="16" font-family="NotoSansCJKjp-Medium, Noto Sans CJK JP" font-weight="500" letter-spacing="-0.02em"><tspan x="0" y="0">合</tspan></text>
      <text id="わせ_" data-name="わせ＋" transform="translate(5260.64 343)" font-size="16" font-family="NotoSansCJKjp-Medium, Noto Sans CJK JP" font-weight="500" letter-spacing="-0.02em"><tspan x="0" y="0">わせ＋</tspan></text>
      <text id="光対応_" data-name="光対応 " transform="translate(5307.64 343)" font-size="16" font-family="NotoSansCJKjp-Medium, Noto Sans CJK JP" font-weight="500" letter-spacing="-0.02em"><tspan x="0" y="0">光対応 </tspan></text>
      <text id="_4-5" data-name="4" transform="translate(5182.672 367)" font-size="16" font-family="NotoSansCJKjp-Medium, Noto Sans CJK JP" font-weight="500" letter-spacing="-0.02em"><tspan x="0" y="0">4</tspan></text>
      <text id="K8K-6" data-name="K8K" transform="translate(5191.312 367)" font-size="16" font-family="NotoSansCJKjp-Medium, Noto Sans CJK JP" font-weight="500" letter-spacing="-0.02em"><tspan x="0" y="0">K8K</tspan></text>
      <text id="衛星放送-4" data-name="衛星放送" transform="translate(5221.312 367)" font-size="16" font-family="NotoSansCJKjp-Medium, Noto Sans CJK JP" font-weight="500" letter-spacing="-0.02em"><tspan x="0" y="0">衛星放送</tspan></text>
      <text id="アダプター-3" data-name="アダプター" transform="translate(5284.312 367)" font-size="16" font-family="NotoSansCJKjp-Medium, Noto Sans CJK JP" font-weight="500" letter-spacing="-0.02em"><tspan x="0" y="0">アダプター</tspan></text>
      <text id="_有料_3" data-name="(有料)" transform="translate(5363.312 367)" font-size="16" font-family="NotoSansCJKjp-Medium, Noto Sans CJK JP" font-weight="500" letter-spacing="-0.02em"><tspan x="0" y="0">(有料)</tspan></text>
    </g>
    <g id="グループ_16004" data-name="グループ 16004" transform="translate(230.935 -1045.065)">
      <g id="楕円形_249" data-name="楕円形 249" transform="translate(5027.065 1245.065)" fill="#787878" stroke="#fff" stroke-width="4">
        <circle cx="30" cy="30" r="30" stroke="none"/>
        <circle cx="30" cy="30" r="28" fill="none"/>
      </g>
      <text id="または" transform="translate(5036.065 1281.065)" fill="#fff" font-size="14" font-family="NotoSansCJKjp-Bold, Noto Sans CJK JP" font-weight="700"><tspan x="0" y="0">または</tspan></text>
    </g>
    <g id="グループ_20708" data-name="グループ 20708" transform="translate(5207.092 -30)">
      <g id="グループ-6" data-name="グループ" transform="translate(4)">
        <text id="光対応_4-3" data-name="光対応 4" transform="translate(30.213 20)" font-size="15" font-family="YuGothicUI-Regular, Yu Gothic UI"><tspan x="0" y="0">光対応</tspan><tspan y="0" xml:space="preserve" font-family="SegoeUI, Segoe UI"> 4</tspan></text>
        <text id="K8K-7" data-name="K8K" transform="translate(88.213 20)" font-size="15" font-family="SegoeUI, Segoe UI"><tspan x="0" y="0">K8K</tspan></text>
        <text id="衛星放送-5" data-name="衛星放送" transform="translate(-8.592 43)" font-size="15" font-family="YuGothicUI-Regular, Yu Gothic UI"><tspan x="0" y="0">衛星放送</tspan></text>
        <text id="アダプター-4" data-name="アダプター" transform="translate(51.408 43)" font-size="15" font-family="YuGothicUI-Regular, Yu Gothic UI"><tspan x="0" y="0">アダプター</tspan></text>
        <text id="_有料_4" data-name="（有料）" transform="translate(101.408 43)" font-size="15" font-family="YuGothicUI-Regular, Yu Gothic UI"><tspan x="0" y="0">（有料）</tspan></text>
      </g>
      <g id="グループ_15910-2" data-name="グループ 15910" transform="translate(52 -34)">
        <rect id="長方形_7782-2" data-name="長方形 7782" width="34" height="29" transform="translate(-0.092)" fill="#787878"/>
        <rect id="長方形_7783-2" data-name="長方形 7783" width="20" height="29" transform="translate(36.908)" fill="#787878"/>
        <rect id="長方形_7784-2" data-name="長方形 7784" width="5" height="6" transform="translate(26.908 2)" fill="#fff"/>
        <rect id="長方形_7785-2" data-name="長方形 7785" width="5" height="6" transform="translate(38.908 2)" fill="#fff"/>
      </g>
    </g>
  </g>
</svg>
