<svg xmlns="http://www.w3.org/2000/svg" width="361" height="559" viewBox="0 0 361 559">
  <g id="img_bs4k_sp" transform="translate(-64 -789)">
    <g id="長方形_3394" data-name="長方形 3394" transform="translate(64 789)" fill="#fff" stroke="#d0d0d0" stroke-width="1">
      <rect width="361" height="559" stroke="none"/>
      <rect x="0.5" y="0.5" width="360" height="558" fill="none"/>
    </g>
    <rect id="長方形_3394-2" data-name="長方形 3394" width="313" height="247" transform="translate(88 1077)" fill="#efefef"/>
    <rect id="長方形_3394-3" data-name="長方形 3394" width="313" height="236" transform="translate(88 813)" fill="#efefef"/>
    <g id="グループ">
      <text id="テレビ" transform="translate(119.272 856)" font-size="16" font-family="NotoSansCJKjp-Medium, Noto Sans CJK JP" font-weight="500"><tspan x="0" y="0">テレビ</tspan></text>
      <text id="本体" transform="translate(167.272 856)" font-size="16" font-family="NotoSansCJKjp-Medium, Noto Sans CJK JP" font-weight="500"><tspan x="0" y="0">本体</tspan></text>
      <text id="で" transform="translate(199.272 856)" font-size="16" font-family="NotoSansCJKjp-Medium, Noto Sans CJK JP" font-weight="500"><tspan x="0" y="0">で</tspan></text>
      <text id="_4" data-name="「4" transform="translate(211.272 856)" font-size="16" font-family="NotoSansCJKjp-Medium, Noto Sans CJK JP" font-weight="500"><tspan x="0" y="0">「4</tspan></text>
      <text id="K8K" transform="translate(236.272 856)" font-size="16" font-family="NotoSansCJKjp-Medium, Noto Sans CJK JP" font-weight="500"><tspan x="0" y="0">K8K</tspan></text>
      <text id="衛星放送_" data-name="衛星放送」" transform="translate(266.272 856)" font-size="16" font-family="NotoSansCJKjp-Medium, Noto Sans CJK JP" font-weight="500"><tspan x="0" y="0">衛星放送」</tspan></text>
      <text id="を" transform="translate(343.272 856)" font-size="16" font-family="NotoSansCJKjp-Medium, Noto Sans CJK JP" font-weight="500"><tspan x="0" y="0">を</tspan></text>
      <text id="受信可能" transform="translate(171.136 880)" font-size="16" font-family="NotoSansCJKjp-Medium, Noto Sans CJK JP" font-weight="500"><tspan x="0" y="0">受信可能</tspan></text>
      <text id="な4" transform="translate(235.136 880)" font-size="16" font-family="NotoSansCJKjp-Medium, Noto Sans CJK JP" font-weight="500"><tspan x="0" y="0">な4</tspan></text>
      <text id="K" transform="translate(260.136 880)" font-size="16" font-family="NotoSansCJKjp-Medium, Noto Sans CJK JP" font-weight="500"><tspan x="0" y="0">K</tspan></text>
      <text id="テレビ-2" data-name="テレビ" transform="translate(271.136 880)" font-size="16" font-family="NotoSansCJKjp-Medium, Noto Sans CJK JP" font-weight="500"><tspan x="0" y="0">テレビ</tspan></text>
    </g>
    <g id="グループ-2" data-name="グループ">
      <text id="_4-2" data-name="「4" transform="translate(111.312 1128)" font-size="16" font-family="NotoSansCJKjp-Medium, Noto Sans CJK JP" font-weight="500" letter-spacing="-0.02em"><tspan x="0" y="0">「4</tspan></text>
      <text id="K8K-2" data-name="K8K" transform="translate(136.312 1128)" font-size="16" font-family="NotoSansCJKjp-Medium, Noto Sans CJK JP" font-weight="500" letter-spacing="-0.02em"><tspan x="0" y="0">K8K</tspan></text>
      <text id="衛星放送_対応" data-name="衛星放送」対応" transform="translate(166.312 1128)" font-size="16" font-family="NotoSansCJKjp-Medium, Noto Sans CJK JP" font-weight="500" letter-spacing="-0.02em"><tspan x="0" y="0">衛星放送」対応</tspan></text>
      <text id="のチューナーと" transform="translate(276.312 1128)" font-size="16" font-family="NotoSansCJKjp-Medium, Noto Sans CJK JP" font-weight="500" letter-spacing="-0.02em"><tspan x="0" y="0">のチューナーと</tspan></text>
      <text id="_4-3" data-name="4" transform="translate(145.056 1152)" font-size="16" font-family="NotoSansCJKjp-Medium, Noto Sans CJK JP" font-weight="500" letter-spacing="-0.02em"><tspan x="0" y="0">4</tspan></text>
      <text id="K-2" data-name="K" transform="translate(154.056 1152)" font-size="16" font-family="NotoSansCJKjp-Medium, Noto Sans CJK JP" font-weight="500" letter-spacing="-0.02em"><tspan x="0" y="0">K</tspan></text>
      <text id="対応" transform="translate(165.056 1152)" font-size="16" font-family="NotoSansCJKjp-Medium, Noto Sans CJK JP" font-weight="500" letter-spacing="-0.02em"><tspan x="0" y="0">対応</tspan></text>
      <text id="テレビの" transform="translate(197.056 1152)" font-size="16" font-family="NotoSansCJKjp-Medium, Noto Sans CJK JP" font-weight="500" letter-spacing="-0.02em"><tspan x="0" y="0">テレビの</tspan></text>
      <text id="組" transform="translate(260.056 1152)" font-size="16" font-family="NotoSansCJKjp-Medium, Noto Sans CJK JP" font-weight="500" letter-spacing="-0.02em"><tspan x="0" y="0">組</tspan></text>
      <text id="み" transform="translate(276.056 1152)" font-size="16" font-family="NotoSansCJKjp-Medium, Noto Sans CJK JP" font-weight="500" letter-spacing="-0.02em"><tspan x="0" y="0">み</tspan></text>
      <text id="合" transform="translate(292.056 1152)" font-size="16" font-family="NotoSansCJKjp-Medium, Noto Sans CJK JP" font-weight="500" letter-spacing="-0.02em"><tspan x="0" y="0">合</tspan></text>
      <text id="わせ" transform="translate(308.056 1152)" font-size="16" font-family="NotoSansCJKjp-Medium, Noto Sans CJK JP" font-weight="500" letter-spacing="-0.02em"><tspan x="0" y="0">わせ</tspan></text>
    </g>
    <g id="グループ_15896" data-name="グループ 15896" transform="translate(185 946)">
      <g id="グループ_15814" data-name="グループ 15814" transform="translate(0 -37.18)">
        <g id="グループ_6505" data-name="グループ 6505">
          <path id="パス_2392" data-name="パス 2392" d="M1193.11,1629.86h34.1a5.14,5.14,0,0,0,5.133-5.162v-57.912a5.151,5.151,0,0,0-5.133-5.162H1117.68a5.159,5.159,0,0,0-5.144,5.162V1624.7a5.148,5.148,0,0,0,5.144,5.162h75.432Zm-20.669-2.871a.822.822,0,1,1,.826-.822.822.822,0,0,1-.826.822Zm53-5.955a1.107,1.107,0,0,1-1.106,1.105H1120.55a1.107,1.107,0,0,1-1.105-1.1v-50.583a1.106,1.106,0,0,1,1.105-1.1h103.789a1.106,1.106,0,0,1,1.106,1.1Z" transform="translate(-1112.536 -1561.625)" fill="#787878"/>
        </g>
        <g id="グループ_6506" data-name="グループ 6506" transform="translate(24.153 71.607)">
          <path id="パス_2393" data-name="パス 2393" d="M1134.02,1601.08h-.2l-.183.083-6.328,2.953a2.542,2.542,0,0,0,2.146,4.608l12.679-5.915,3.706-1.73h-11.818Z" transform="translate(-1125.843 -1601.076)" fill="#787878"/>
          <path id="パス_2394" data-name="パス 2394" d="M1174.91,1605.52a2.519,2.519,0,0,0-1.332-1.417l-6.507-2.944-.178-.08h-12.328l3.833,1.734,13.087,5.921a2.542,2.542,0,0,0,3.425-3.213Z" transform="translate(-1102.435 -1601.076)" fill="#787878"/>
        </g>
        <rect id="長方形_4834" data-name="長方形 4834" width="93.296" height="40.088" rx="1.455" transform="translate(13.257 14.074)" fill="#787878"/>
      </g>
      <text id="_4Kテレビ" data-name="4Kテレビ" transform="translate(28.431 66.82)" font-size="15" font-family="SegoeUI, Segoe UI"><tspan x="0" y="0">4K</tspan><tspan y="0" font-family="YuGothicUI-Regular, Yu Gothic UI">テレビ</tspan></text>
    </g>
    <g id="グループ_16450" data-name="グループ 16450" transform="translate(5 -12)">
      <g id="グループ_15899" data-name="グループ 15899" transform="translate(96 1159.18)">
        <g id="グループ_15814-2" data-name="グループ 15814" transform="translate(0 33.82)">
          <g id="グループ_6505-2" data-name="グループ 6505">
            <path id="パス_2392-2" data-name="パス 2392" d="M1193.24,1629.97h34.154a5.149,5.149,0,0,0,5.141-5.17v-58a5.159,5.159,0,0,0-5.141-5.17h-109.7a5.167,5.167,0,0,0-5.153,5.17v58a5.156,5.156,0,0,0,5.153,5.17h75.553Zm-20.7-2.876a.824.824,0,1,1,.827-.823.824.824,0,0,1-.827.823Zm53.083-5.964a1.109,1.109,0,0,1-1.108,1.107H1120.56a1.109,1.109,0,0,1-1.107-1.107v-50.663a1.108,1.108,0,0,1,1.107-1.107h103.954a1.108,1.108,0,0,1,1.108,1.107Z" transform="translate(-1112.536 -1561.625)" fill="#787878"/>
          </g>
          <g id="グループ_6506-2" data-name="グループ 6506" transform="translate(24.191 71.721)">
            <path id="パス_2393-2" data-name="パス 2393" d="M1134.04,1601.08h-.2l-.184.083-6.338,2.958a2.545,2.545,0,0,0,2.149,4.615l12.7-5.924,3.712-1.733h-11.837Z" transform="translate(-1125.843 -1601.076)" fill="#787878"/>
            <path id="パス_2394-2" data-name="パス 2394" d="M1174.94,1605.52a2.524,2.524,0,0,0-1.334-1.42l-6.517-2.949-.178-.08h-12.348l3.839,1.736,13.108,5.93a2.546,2.546,0,0,0,3.431-3.218Z" transform="translate(-1102.352 -1601.076)" fill="#787878"/>
          </g>
          <rect id="長方形_4834-2" data-name="長方形 4834" width="93.444" height="40.151" rx="1.455" transform="translate(13.278 14.096)" fill="#787878"/>
        </g>
        <text id="_4K対応テレビ" data-name=" 4K対応テレビ" transform="translate(11.812 138.82)" font-size="15" font-family="SegoeUI, Segoe UI"><tspan x="0" y="0" xml:space="preserve"> 4K</tspan><tspan y="0" font-family="YuGothicUI-Regular, Yu Gothic UI">対応テレビ</tspan></text>
      </g>
      <g id="グループ_15900" data-name="グループ 15900" transform="translate(269.063 1151)">
        <g id="グループ-3" data-name="グループ">
          <text id="_4-4" data-name=" 4" transform="translate(10.438 137)" font-size="15" font-family="SegoeUI, Segoe UI"><tspan x="0" y="0" xml:space="preserve"> 4</tspan></text>
          <text id="K8K-3" data-name="K8K" transform="translate(22.743 137)" font-size="15" font-family="SegoeUI, Segoe UI"><tspan x="0" y="0">K8K</tspan></text>
          <text id="衛星放送" transform="translate(47.743 137)" font-size="15" font-family="YuGothicUI-Regular, Yu Gothic UI"><tspan x="0" y="0">衛星放送</tspan></text>
          <text id="対応-2" data-name="対応" transform="translate(17.438 160)" font-size="15" font-family="YuGothicUI-Regular, Yu Gothic UI"><tspan x="0" y="0">対応</tspan></text>
          <text id="チューナー" transform="translate(47.438 160)" font-size="15" font-family="YuGothicUI-Regular, Yu Gothic UI"><tspan x="0" y="0">チューナー</tspan></text>
        </g>
        <path id="パス_3770" data-name="パス 3770" d="M89.532,360.721H1.817A1.817,1.817,0,0,0,0,362.538v18.408a1.817,1.817,0,0,0,1.817,1.817H5.529v2.273A2.676,2.676,0,0,0,8.2,387.712h0a2.676,2.676,0,0,0,2.676-2.676v-2.273H80.467v2.273a2.676,2.676,0,0,0,2.676,2.676h0a2.676,2.676,0,0,0,2.676-2.676v-2.273h3.712a1.817,1.817,0,0,0,1.817-1.817V362.538a1.817,1.817,0,0,0-1.816-1.817Zm-74.82,13.571H11.261a1.307,1.307,0,0,1-1.307-1.307v-2.738a1.307,1.307,0,0,1,1.307-1.307h3.451a1.307,1.307,0,0,1,1.307,1.307v2.738a1.307,1.307,0,0,1-1.307,1.307Zm13.516,0H24.777a1.307,1.307,0,0,1-1.307-1.307v-2.738a1.307,1.307,0,0,1,1.307-1.307h3.451a1.307,1.307,0,0,1,1.307,1.307v2.738a1.307,1.307,0,0,1-1.307,1.307Zm49.5,0H60.642a1.307,1.307,0,0,1-1.307-1.307v-2.738a1.307,1.307,0,0,1,1.307-1.307H77.73a1.307,1.307,0,0,1,1.307,1.307v2.738a1.307,1.307,0,0,1-1.307,1.307Z" transform="translate(12.938 -292.72)" fill="#787878"/>
      </g>
      <g id="グループ_20709" data-name="グループ 20709" transform="translate(233.037 1218)">
        <circle id="楕円形_250" data-name="楕円形 250" cx="15" cy="15" r="15" transform="translate(-0.037)" fill="#787878"/>
        <text id="_" data-name="＋" transform="translate(5.463 22)" fill="#fff" font-size="19" font-family="NotoSansCJKjp-Bold, Noto Sans CJK JP" font-weight="700"><tspan x="0" y="0">＋</tspan></text>
      </g>
    </g>
    <g id="グループ_15969" data-name="グループ 15969" transform="translate(-4812.065 -212.065)">
      <g id="楕円形_249" data-name="楕円形 249" transform="translate(5027.065 1245.065)" fill="#787878" stroke="#fff" stroke-width="4">
        <circle cx="30" cy="30" r="30" stroke="none"/>
        <circle cx="30" cy="30" r="28" fill="none"/>
      </g>
      <text id="または" transform="translate(5036.065 1281.065)" fill="#fff" font-size="14" font-family="NotoSansCJKjp-Bold, Noto Sans CJK JP" font-weight="700"><tspan x="0" y="0">または</tspan></text>
    </g>
  </g>
</svg>
