<svg xmlns="http://www.w3.org/2000/svg" width="1000" height="356" viewBox="0 0 1000 356">
  <g id="img_cs4k" transform="translate(-4239 -1433)">
    <g id="bg" transform="translate(4239 1433)" fill="#fff" stroke="#d0d0d0" stroke-width="1">
      <rect width="1000" height="356" stroke="none"/>
      <rect x="0.5" y="0.5" width="999" height="355" fill="none"/>
    </g>
    <rect id="長方形_9004" data-name="長方形 9004" width="440" height="276" transform="translate(4279 1473)" fill="#efefef"/>
    <rect id="長方形_9005" data-name="長方形 9005" width="440" height="276" transform="translate(4759 1473)" fill="#efefef"/>
    <g id="グループ">
      <text id="テレビ" transform="translate(4325.671 1526)" font-size="18" font-family="NotoSansCJKjp-Medium, Noto Sans CJK JP" font-weight="500" letter-spacing="-0.02em"><tspan x="0" y="0">テレビ</tspan></text>
      <text id="本体" transform="translate(4378.671 1526)" font-size="18" font-family="NotoSansCJKjp-Medium, Noto Sans CJK JP" font-weight="500" letter-spacing="-0.02em"><tspan x="0" y="0">本体</tspan></text>
      <text id="で" transform="translate(4414.671 1526)" font-size="18" font-family="NotoSansCJKjp-Medium, Noto Sans CJK JP" font-weight="500" letter-spacing="-0.02em"><tspan x="0" y="0">で</tspan></text>
      <text id="_4" data-name="「4" transform="translate(4428.171 1526)" font-size="18" font-family="NotoSansCJKjp-Medium, Noto Sans CJK JP" font-weight="500" letter-spacing="-0.02em"><tspan x="0" y="0">「4</tspan></text>
      <text id="K8K" transform="translate(4455.766 1526)" font-size="18" font-family="NotoSansCJKjp-Medium, Noto Sans CJK JP" font-weight="500" letter-spacing="-0.02em"><tspan x="0" y="0">K8K</tspan></text>
      <text id="衛星放送_" data-name="衛星放送」" transform="translate(4488.766 1526)" font-size="18" font-family="NotoSansCJKjp-Medium, Noto Sans CJK JP" font-weight="500" letter-spacing="-0.02em"><tspan x="0" y="0">衛星放送」</tspan></text>
      <text id="を" transform="translate(4573.766 1526)" font-size="18" font-family="NotoSansCJKjp-Medium, Noto Sans CJK JP" font-weight="500" letter-spacing="-0.02em"><tspan x="0" y="0">を</tspan></text>
      <text id="受信可能" transform="translate(4591.766 1526)" font-size="18" font-family="NotoSansCJKjp-Medium, Noto Sans CJK JP" font-weight="500" letter-spacing="-0.02em"><tspan x="0" y="0">受信可能</tspan></text>
      <text id="な" transform="translate(4662.766 1526)" font-size="18" font-family="NotoSansCJKjp-Medium, Noto Sans CJK JP" font-weight="500" letter-spacing="-0.02em"><tspan x="0" y="0">な</tspan></text>
      <text id="_4-2" data-name="4" transform="translate(4406.786 1553)" font-size="18" font-family="NotoSansCJKjp-Medium, Noto Sans CJK JP" font-weight="500" letter-spacing="-0.02em"><tspan x="0" y="0">4</tspan></text>
      <text id="K" transform="translate(4416.786 1553)" font-size="18" font-family="NotoSansCJKjp-Medium, Noto Sans CJK JP" font-weight="500" letter-spacing="-0.02em"><tspan x="0" y="0">K</tspan></text>
      <text id="テレビ_8" data-name="テレビ・8" transform="translate(4428.786 1553)" font-size="18" font-family="NotoSansCJKjp-Medium, Noto Sans CJK JP" font-weight="500" letter-spacing="-0.02em"><tspan x="0" y="0">テレビ・8</tspan></text>
      <text id="K-2" data-name="K" transform="translate(4509.786 1553)" font-size="18" font-family="NotoSansCJKjp-Medium, Noto Sans CJK JP" font-weight="500" letter-spacing="-0.02em"><tspan x="0" y="0">K</tspan></text>
      <text id="テレビ_" data-name="テレビ＋" transform="translate(4521.786 1553)" font-size="18" font-family="NotoSansCJKjp-Medium, Noto Sans CJK JP" font-weight="500" letter-spacing="-0.02em"><tspan x="0" y="0">テレビ＋</tspan></text>
      <text id="光対応_4" data-name="光対応 4" transform="translate(4353.171 1580)" font-size="18" font-family="NotoSansCJKjp-Medium, Noto Sans CJK JP" font-weight="500" letter-spacing="-0.02em"><tspan x="0" y="0">光対応 4</tspan></text>
      <text id="K8K-2" data-name="K8K" transform="translate(4422.171 1580)" font-size="18" font-family="NotoSansCJKjp-Medium, Noto Sans CJK JP" font-weight="500" letter-spacing="-0.02em"><tspan x="0" y="0">K8K</tspan></text>
      <text id="衛星放送" transform="translate(4455.171 1580)" font-size="18" font-family="NotoSansCJKjp-Medium, Noto Sans CJK JP" font-weight="500" letter-spacing="-0.02em"><tspan x="0" y="0">衛星放送</tspan></text>
      <text id="アダプター" transform="translate(4526.171 1580)" font-size="18" font-family="NotoSansCJKjp-Medium, Noto Sans CJK JP" font-weight="500" letter-spacing="-0.02em"><tspan x="0" y="0">アダプター</tspan></text>
      <text id="_有料_" data-name="(有料)" transform="translate(4615.171 1580)" font-size="18" font-family="NotoSansCJKjp-Medium, Noto Sans CJK JP" font-weight="500" letter-spacing="-0.02em"><tspan x="0" y="0">(有料)</tspan></text>
    </g>
    <g id="グループ_16448" data-name="グループ 16448" transform="translate(-3)">
      <g id="グループ_16005" data-name="グループ 16005" transform="translate(98 295.502)">
        <g id="グループ_15814" data-name="グループ 15814" transform="translate(3583.464 -248.126)">
          <g id="グループ_6505" data-name="グループ 6505" transform="translate(1112.536 1561.625)">
            <path id="パス_2392" data-name="パス 2392" d="M1175.32,1614.79h26.569a4,4,0,0,0,4-4.022v-45.122a4.014,4.014,0,0,0-4-4.022h-85.342a4.02,4.02,0,0,0-4.008,4.022v45.122a4.011,4.011,0,0,0,4.008,4.022h58.774Zm-16.1-2.237a.388.388,0,1,0-.01,0Zm41.294-4.64a.863.863,0,0,1-.862.861h-80.868a.863.863,0,0,1-.861-.861V1568.5a.862.862,0,0,1,.861-.861h80.868a.862.862,0,0,1,.862.861Z" transform="translate(-1112.536 -1561.625)" fill="#787878"/>
          </g>
          <g id="グループ_6506" data-name="グループ 6506" transform="translate(1131.355 1617.418)">
            <path id="パス_2393" data-name="パス 2393" d="M1132.22,1601.08h-.157l-.143.065-4.93,2.3a1.981,1.981,0,1,0,1.672,3.591l9.879-4.609,2.888-1.348h-9.208Z" transform="translate(-1125.843 -1601.076)" fill="#787878"/>
            <path id="パス_2394" data-name="パス 2394" d="M1170.41,1604.54a1.964,1.964,0,0,0-1.038-1.1l-5.07-2.294-.139-.062h-9.6l2.987,1.351,10.2,4.613a1.959,1.959,0,0,0,.814.176,1.98,1.98,0,0,0,1.854-2.679Z" transform="translate(-1113.947 -1601.076)" fill="#787878"/>
          </g>
          <rect id="長方形_4834" data-name="長方形 4834" width="72.692" height="31.234" rx="1.455" transform="translate(1122.865 1572.591)" fill="#787878"/>
        </g>
        <g id="グループ-2" data-name="グループ">
          <text id="_4K" data-name="4K" transform="translate(4693.573 1398.498)" font-size="14" font-family="SegoeUI, Segoe UI" letter-spacing="-0.02em"><tspan x="0" y="0">4K</tspan></text>
          <text id="対応" transform="translate(4708.573 1398.498)" font-size="14" font-family="YuGothicUI-Regular, Yu Gothic UI" letter-spacing="-0.02em"><tspan x="0" y="0">対応</tspan></text>
          <text id="テレビ_2" data-name="テレビ・" transform="translate(4736.573 1398.498)" font-size="14" font-family="YuGothicUI-Regular, Yu Gothic UI" letter-spacing="-0.02em"><tspan x="0" y="0">テレビ・</tspan></text>
          <text id="_8" data-name="8" transform="translate(4700.433 1416.498)" font-size="14" font-family="SegoeUI, Segoe UI" letter-spacing="-0.02em"><tspan x="0" y="0">8</tspan></text>
          <text id="K-3" data-name="K" transform="translate(4708.433 1416.498)" font-size="14" font-family="SegoeUI, Segoe UI" letter-spacing="-0.02em"><tspan x="0" y="0">K</tspan></text>
          <text id="対応-2" data-name="対応" transform="translate(4716.433 1416.498)" font-size="14" font-family="YuGothicUI-Regular, Yu Gothic UI" letter-spacing="-0.02em"><tspan x="0" y="0">対応</tspan></text>
          <text id="テレビ-2" data-name="テレビ" transform="translate(4744.433 1416.498)" font-size="14" font-family="YuGothicUI-Regular, Yu Gothic UI" letter-spacing="-0.02em"><tspan x="0" y="0">テレビ</tspan></text>
        </g>
      </g>
      <g id="グループ_16007" data-name="グループ 16007" transform="translate(444 277)">
        <g id="グループ_15860" data-name="グループ 15860" transform="translate(690.113 -364.255)">
          <rect id="長方形_7782" data-name="長方形 7782" width="41.754" height="35.614" transform="translate(3966.887 1709.256)" fill="#787878"/>
          <rect id="長方形_7783" data-name="長方形 7783" width="24.561" height="35.614" transform="translate(4012.326 1709.256)" fill="#787878"/>
          <rect id="長方形_7784" data-name="長方形 7784" width="6.14" height="7.368" transform="translate(4000.045 1711.712)" fill="#fff"/>
          <rect id="長方形_7785" data-name="長方形 7785" width="6.14" height="7.368" transform="translate(4014.782 1711.712)" fill="#fff"/>
        </g>
        <g id="グループ-3" data-name="グループ">
          <text id="光対応_新4" data-name="光対応 新4" transform="translate(4653.738 1408)" font-size="14" font-family="YuGothicUI-Regular, Yu Gothic UI" letter-spacing="-0.02em"><tspan x="0" y="0">光対応 </tspan><tspan y="0" font-family="SegoeUI, Segoe UI">4</tspan></text>
          <text id="K8K-3" data-name="K8K" transform="translate(4705.738 1408)" font-size="14" font-family="SegoeUI, Segoe UI" letter-spacing="-0.02em"><tspan x="0" y="0">K8K</tspan></text>
          <text id="衛星放送-2" data-name="衛星放送" transform="translate(4664.42 1426)" font-size="14" font-family="YuGothicUI-Regular, Yu Gothic UI" letter-spacing="-0.02em"><tspan x="0" y="0">衛星放送</tspan></text>
          <text id="アダプター-2" data-name="アダプター" transform="translate(4643.12 1444)" font-size="14" font-family="YuGothicUI-Regular, Yu Gothic UI" letter-spacing="-0.02em"><tspan x="0" y="0">アダプター</tspan></text>
          <text id="_有料_2" data-name="（有料）" transform="translate(4688.12 1444)" font-size="14" font-family="YuGothicUI-Regular, Yu Gothic UI" letter-spacing="-0.02em"><tspan x="0" y="0">（有料）</tspan></text>
        </g>
      </g>
      <g id="グループ_16008" data-name="グループ 16008" transform="translate(98 277.918)">
        <path id="パス_3770" data-name="パス 3770" d="M78.409,360.721H1.591A1.591,1.591,0,0,0,0,362.312v16.121a1.591,1.591,0,0,0,1.591,1.591H4.842v1.991a2.344,2.344,0,0,0,2.344,2.344h0a2.344,2.344,0,0,0,2.344-2.344v-1.991H70.47v1.991a2.344,2.344,0,0,0,2.344,2.344h0a2.344,2.344,0,0,0,2.344-2.344v-1.991h3.251A1.591,1.591,0,0,0,80,378.433V362.312a1.591,1.591,0,0,0-1.591-1.591ZM12.884,372.606H9.862a1.145,1.145,0,0,1-1.145-1.145v-2.4a1.145,1.145,0,0,1,1.145-1.145h3.022a1.145,1.145,0,0,1,1.145,1.145v2.4a1.145,1.145,0,0,1-1.145,1.145Zm11.837,0H21.7a1.145,1.145,0,0,1-1.145-1.145v-2.4a1.145,1.145,0,0,1,1.145-1.145h3.022a1.145,1.145,0,0,1,1.145,1.145v2.4a1.145,1.145,0,0,1-1.146,1.145Zm43.352,0H53.108a1.145,1.145,0,0,1-1.145-1.145v-2.4a1.145,1.145,0,0,1,1.145-1.145H68.073a1.145,1.145,0,0,1,1.145,1.145v2.4a1.145,1.145,0,0,1-1.145,1.145Z" transform="translate(4854 989.361)" fill="#787878"/>
        <g id="グループ-4" data-name="グループ">
          <text id="_4-3" data-name="4" transform="translate(4851.84 1416.081)" font-size="14" font-family="SegoeUI, Segoe UI" letter-spacing="-0.02em"><tspan x="0" y="0">4</tspan></text>
          <text id="K8K-4" data-name="K8K" transform="translate(4859.306 1416.081)" font-size="14" font-family="SegoeUI, Segoe UI" letter-spacing="-0.02em"><tspan x="0" y="0">K8K</tspan></text>
          <text id="衛星放送-3" data-name="衛星放送" transform="translate(4882.306 1416.081)" font-size="14" font-family="YuGothicUI-Regular, Yu Gothic UI" letter-spacing="-0.02em"><tspan x="0" y="0">衛星放送</tspan></text>
          <text id="対応-3" data-name="対応" transform="translate(4856.84 1434.081)" font-size="14" font-family="YuGothicUI-Regular, Yu Gothic UI" letter-spacing="-0.02em"><tspan x="0" y="0">対応</tspan></text>
          <text id="チューナー" transform="translate(4884.84 1434.081)" font-size="14" font-family="YuGothicUI-Regular, Yu Gothic UI" letter-spacing="-0.02em"><tspan x="0" y="0">チューナー</tspan></text>
        </g>
      </g>
      <g id="グループ_16447" data-name="グループ 16447" transform="translate(-739 432)">
        <circle id="楕円形_271" data-name="楕円形 271" cx="15" cy="15" r="15" transform="translate(5794 1193)" fill="#787878"/>
        <text id="_" data-name="＋" transform="translate(5799 1216)" fill="#fff" font-size="20" font-family="NotoSansCJKjp-Bold, Noto Sans CJK JP" font-weight="700"><tspan x="0" y="0">＋</tspan></text>
      </g>
      <g id="グループ_20707" data-name="グループ 20707" transform="translate(-892 432)">
        <circle id="楕円形_271-2" data-name="楕円形 271" cx="15" cy="15" r="15" transform="translate(5794 1193)" fill="#787878"/>
        <text id="_2" data-name="＋" transform="translate(5799 1216)" fill="#fff" font-size="20" font-family="NotoSansCJKjp-Bold, Noto Sans CJK JP" font-weight="700"><tspan x="0" y="0">＋</tspan></text>
      </g>
    </g>
    <g id="グループ_16388" data-name="グループ 16388" transform="translate(35 -26)">
      <g id="グループ_16004" data-name="グループ 16004" transform="translate(-247 314.5)">
        <g id="グループ_15814-2" data-name="グループ 15814" transform="translate(3445.464 -251.126)">
          <g id="グループ_6505-2" data-name="グループ 6505" transform="translate(1112.536 1561.625)">
            <path id="パス_2392-2" data-name="パス 2392" d="M1175.32,1614.79h26.569a4,4,0,0,0,4-4.022v-45.123a4.014,4.014,0,0,0-4-4.022h-85.344a4.02,4.02,0,0,0-4.008,4.022v45.123a4.011,4.011,0,0,0,4.008,4.022Zm-16.1-2.237a1.021,1.021,0,1,1-.01.007Zm41.3-4.64a.863.863,0,0,1-.862.861h-80.869a.863.863,0,0,1-.861-.861V1568.5a.862.862,0,0,1,.861-.861h80.869a.862.862,0,0,1,.862.861Z" transform="translate(-1112.536 -1561.625)" fill="#787878"/>
          </g>
          <g id="グループ_6506-2" data-name="グループ 6506" transform="translate(1131.355 1617.419)">
            <path id="パス_2393-2" data-name="パス 2393" d="M1132.22,1601.08h-.157l-.143.065-4.93,2.3a1.98,1.98,0,0,0,1.672,3.59l9.879-4.609,2.888-1.348h-9.208Z" transform="translate(-1125.843 -1601.076)" fill="#787878"/>
            <path id="パス_2394-2" data-name="パス 2394" d="M1170.41,1604.54a1.964,1.964,0,0,0-1.038-1.1l-5.07-2.294-.139-.062h-9.606l2.987,1.351,10.2,4.613a1.956,1.956,0,0,0,.814.175,1.98,1.98,0,0,0,1.854-2.679Z" transform="translate(-1113.946 -1601.076)" fill="#787878"/>
          </g>
          <rect id="長方形_4834-2" data-name="長方形 4834" width="72.693" height="31.235" rx="1.455" transform="translate(1122.865 1572.591)" fill="#787878"/>
        </g>
        <text id="_4Kテレビ_8Kテレビ" data-name="4Kテレビ・8Kテレビ" transform="translate(4540.586 1404.5)" font-size="14" font-family="SegoeUI, Segoe UI" letter-spacing="-0.02em"><tspan x="0" y="0">4K</tspan><tspan y="0" font-family="YuGothicUI-Regular, Yu Gothic UI">テレビ・</tspan><tspan y="0">8K</tspan><tspan y="0" font-family="YuGothicUI-Regular, Yu Gothic UI">テレビ</tspan></text>
      </g>
      <g id="グループ_16006" data-name="グループ 16006" transform="translate(-73 374)">
        <g id="グループ-5" data-name="グループ" transform="translate(7)">
          <text id="光対応_4-2" data-name="光対応 4" transform="translate(4576.738 1336)" font-size="14" font-family="YuGothicUI-Regular, Yu Gothic UI" letter-spacing="-0.02em"><tspan x="0" y="0">光対応</tspan><tspan y="0" xml:space="preserve" font-family="SegoeUI, Segoe UI"> 4</tspan></text>
          <text id="K8K-5" data-name="K8K" transform="translate(4628.738 1336)" font-size="14" font-family="SegoeUI, Segoe UI" letter-spacing="-0.02em"><tspan x="0" y="0">K8K</tspan></text>
          <text id="衛星放送-4" data-name="衛星放送" transform="translate(4539.62 1354)" font-size="14" font-family="YuGothicUI-Regular, Yu Gothic UI" letter-spacing="-0.02em"><tspan x="0" y="0">衛星放送</tspan></text>
          <text id="アダプター-3" data-name="アダプター" transform="translate(4594.62 1354)" font-size="14" font-family="YuGothicUI-Regular, Yu Gothic UI" letter-spacing="-0.02em"><tspan x="0" y="0">アダプター</tspan></text>
          <text id="_有料_3" data-name="（有料）" transform="translate(4640.62 1354)" font-size="12" font-family="YuGothicUI-Regular, Yu Gothic UI" letter-spacing="-0.02em"><tspan x="0" y="0">（有料）</tspan></text>
        </g>
        <g id="グループ_15860-2" data-name="グループ 15860" transform="translate(620 -445.001)">
          <rect id="長方形_7782-2" data-name="長方形 7782" width="42" height="36" transform="translate(3967 1709)" fill="#787878"/>
          <rect id="長方形_7783-2" data-name="長方形 7783" width="25" height="36" transform="translate(4012 1709)" fill="#787878"/>
          <rect id="長方形_7784-2" data-name="長方形 7784" width="6" height="7" transform="translate(4000 1712)" fill="#fff"/>
          <rect id="長方形_7785-2" data-name="長方形 7785" width="6" height="7" transform="translate(4015 1712)" fill="#fff"/>
        </g>
      </g>
      <g id="グループ_16009" data-name="グループ 16009" transform="translate(-1350 448)">
        <circle id="楕円形_271-3" data-name="楕円形 271" cx="15" cy="15" r="15" transform="translate(5794 1193)" fill="#787878"/>
        <text id="_3" data-name="＋" transform="translate(5799 1216)" fill="#fff" font-size="20" font-family="NotoSansCJKjp-Bold, Noto Sans CJK JP" font-weight="700"><tspan x="0" y="0">＋</tspan></text>
      </g>
    </g>
    <g id="グループ-6" data-name="グループ">
      <text id="_4-4" data-name="「4" transform="translate(4835.226 1526)" font-size="18" font-family="NotoSansCJKjp-Medium, Noto Sans CJK JP" font-weight="500" letter-spacing="-0.02em"><tspan x="0" y="0">「4</tspan></text>
      <text id="K8K-6" data-name="K8K" transform="translate(4862.226 1526)" font-size="18" font-family="NotoSansCJKjp-Medium, Noto Sans CJK JP" font-weight="500" letter-spacing="-0.02em"><tspan x="0" y="0">K8K</tspan></text>
      <text id="衛星放送_対応" data-name="衛星放送」対応" transform="translate(4895.226 1526)" font-size="18" font-family="NotoSansCJKjp-Medium, Noto Sans CJK JP" font-weight="500" letter-spacing="-0.02em"><tspan x="0" y="0">衛星放送」対応</tspan></text>
      <text id="のチューナーと" transform="translate(5019.226 1526)" font-size="18" font-family="NotoSansCJKjp-Medium, Noto Sans CJK JP" font-weight="500" letter-spacing="-0.02em"><tspan x="0" y="0">のチューナーと</tspan></text>
      <text id="_4-5" data-name="4" transform="translate(4798.586 1553)" font-size="18" font-family="NotoSansCJKjp-Medium, Noto Sans CJK JP" font-weight="500" letter-spacing="-0.02em"><tspan x="0" y="0">4</tspan></text>
      <text id="K-4" data-name="K" transform="translate(4808.586 1553)" font-size="18" font-family="NotoSansCJKjp-Medium, Noto Sans CJK JP" font-weight="500" letter-spacing="-0.02em"><tspan x="0" y="0">K</tspan></text>
      <text id="対応-4" data-name="対応" transform="translate(4820.586 1553)" font-size="18" font-family="NotoSansCJKjp-Medium, Noto Sans CJK JP" font-weight="500" letter-spacing="-0.02em"><tspan x="0" y="0">対応</tspan></text>
      <text id="テレビ_8-2" data-name="テレビ・8" transform="translate(4856.586 1553)" font-size="18" font-family="NotoSansCJKjp-Medium, Noto Sans CJK JP" font-weight="500" letter-spacing="-0.02em"><tspan x="0" y="0">テレビ・8</tspan></text>
      <text id="K-5" data-name="K" transform="translate(4937.586 1553)" font-size="18" font-family="NotoSansCJKjp-Medium, Noto Sans CJK JP" font-weight="500" letter-spacing="-0.02em"><tspan x="0" y="0">K</tspan></text>
      <text id="対応-5" data-name="対応" transform="translate(4949.586 1553)" font-size="18" font-family="NotoSansCJKjp-Medium, Noto Sans CJK JP" font-weight="500" letter-spacing="-0.02em"><tspan x="0" y="0">対応</tspan></text>
      <text id="テレビの" transform="translate(4985.586 1553)" font-size="18" font-family="NotoSansCJKjp-Medium, Noto Sans CJK JP" font-weight="500" letter-spacing="-0.02em"><tspan x="0" y="0">テレビの</tspan></text>
      <text id="組" transform="translate(5056.586 1553)" font-size="18" font-family="NotoSansCJKjp-Medium, Noto Sans CJK JP" font-weight="500" letter-spacing="-0.02em"><tspan x="0" y="0">組</tspan></text>
      <text id="み" transform="translate(5074.586 1553)" font-size="18" font-family="NotoSansCJKjp-Medium, Noto Sans CJK JP" font-weight="500" letter-spacing="-0.02em"><tspan x="0" y="0">み</tspan></text>
      <text id="合" transform="translate(5092.586 1553)" font-size="18" font-family="NotoSansCJKjp-Medium, Noto Sans CJK JP" font-weight="500" letter-spacing="-0.02em"><tspan x="0" y="0">合</tspan></text>
      <text id="わせ_" data-name="わせ＋" transform="translate(5110.586 1553)" font-size="18" font-family="NotoSansCJKjp-Medium, Noto Sans CJK JP" font-weight="500" letter-spacing="-0.02em"><tspan x="0" y="0">わせ＋</tspan></text>
      <text id="光対応_4-3" data-name="光対応 4" transform="translate(4833.171 1580)" font-size="18" font-family="NotoSansCJKjp-Medium, Noto Sans CJK JP" font-weight="500" letter-spacing="-0.02em"><tspan x="0" y="0">光対応 4</tspan></text>
      <text id="K8K-7" data-name="K8K" transform="translate(4902.171 1580)" font-size="18" font-family="NotoSansCJKjp-Medium, Noto Sans CJK JP" font-weight="500" letter-spacing="-0.02em"><tspan x="0" y="0">K8K</tspan></text>
      <text id="衛星放送-5" data-name="衛星放送" transform="translate(4935.171 1580)" font-size="18" font-family="NotoSansCJKjp-Medium, Noto Sans CJK JP" font-weight="500" letter-spacing="-0.02em"><tspan x="0" y="0">衛星放送</tspan></text>
      <text id="アダプター-4" data-name="アダプター" transform="translate(5006.171 1580)" font-size="18" font-family="NotoSansCJKjp-Medium, Noto Sans CJK JP" font-weight="500" letter-spacing="-0.02em"><tspan x="0" y="0">アダプター</tspan></text>
      <text id="_有料_4" data-name="(有料)" transform="translate(5095.171 1580)" font-size="18" font-family="NotoSansCJKjp-Medium, Noto Sans CJK JP" font-weight="500" letter-spacing="-0.02em"><tspan x="0" y="0">(有料)</tspan></text>
    </g>
    <g id="グループ_16012" data-name="グループ 16012" transform="translate(-191 2031)">
      <circle id="楕円形_273" data-name="楕円形 273" cx="35" cy="35" r="35" transform="translate(4895 -442)" fill="#fff"/>
      <circle id="楕円形_192" data-name="楕円形 192" cx="30.625" cy="30.625" r="30.625" transform="translate(4899.375 -438)" fill="#787878"/>
      <text id="または" transform="translate(4905.39 -400)" fill="#fff" font-size="16" font-family="NotoSansCJKjp-Bold, Noto Sans CJK JP" font-weight="700" letter-spacing="-0.04em"><tspan x="0" y="0">または</tspan></text>
    </g>
  </g>
</svg>
